<mxfile host="app.diagrams.net" agent="Mozilla/5.0 (Windows NT 10.0; Win64; x64) AppleWebKit/537.36 (KHTML, like Gecko) Chrome/134.0.0.0 Safari/537.36 Edg/134.0.0.0" version="26.1.1">
  <diagram name="第 1 页" id="sPw3JjRzw2wNSBTTTE2S">
    <mxGraphModel dx="1773" dy="1880" grid="1" gridSize="10" guides="1" tooltips="1" connect="1" arrows="1" fold="1" page="1" pageScale="1" pageWidth="827" pageHeight="1169" math="0" shadow="0">
      <root>
        <mxCell id="0" />
        <mxCell id="1" parent="0" />
        <mxCell id="7TJYjL8CNuQm4D0-0RJm-77" value="" style="rounded=1;whiteSpace=wrap;html=1;dashed=1;fillColor=#f5f5f5;strokeColor=#666666;fontColor=#333333;" vertex="1" parent="1">
          <mxGeometry x="116.38" y="-154" width="810.62" height="714" as="geometry" />
        </mxCell>
        <mxCell id="7TJYjL8CNuQm4D0-0RJm-64" style="edgeStyle=orthogonalEdgeStyle;rounded=0;orthogonalLoop=1;jettySize=auto;html=1;exitX=0;exitY=0.25;exitDx=0;exitDy=0;entryX=0.75;entryY=1;entryDx=0;entryDy=0;shape=flexArrow;fillColor=#7EA6E0;" edge="1" parent="1" source="7TJYjL8CNuQm4D0-0RJm-63" target="7TJYjL8CNuQm4D0-0RJm-1">
          <mxGeometry relative="1" as="geometry" />
        </mxCell>
        <mxCell id="7TJYjL8CNuQm4D0-0RJm-63" value="" style="rounded=0;whiteSpace=wrap;html=1;dashed=1;fillColor=#fff2cc;strokeColor=#d6b656;" vertex="1" parent="1">
          <mxGeometry x="456.15" y="360" width="287" height="170" as="geometry" />
        </mxCell>
        <mxCell id="7TJYjL8CNuQm4D0-0RJm-58" value="" style="rounded=0;whiteSpace=wrap;html=1;dashed=1;fillColor=#ffe6cc;strokeColor=#d79b00;opacity=60;" vertex="1" parent="1">
          <mxGeometry x="160" y="-120" width="730" height="180" as="geometry" />
        </mxCell>
        <mxCell id="7TJYjL8CNuQm4D0-0RJm-50" value="" style="rounded=1;whiteSpace=wrap;html=1;" vertex="1" parent="1">
          <mxGeometry x="680" y="-100" width="180" height="120" as="geometry" />
        </mxCell>
        <mxCell id="7TJYjL8CNuQm4D0-0RJm-65" style="edgeStyle=orthogonalEdgeStyle;rounded=0;orthogonalLoop=1;jettySize=auto;html=1;exitX=0.25;exitY=1;exitDx=0;exitDy=0;entryX=0;entryY=0.75;entryDx=0;entryDy=0;shape=flexArrow;fillColor=#7EA6E0;" edge="1" parent="1" source="7TJYjL8CNuQm4D0-0RJm-1" target="7TJYjL8CNuQm4D0-0RJm-63">
          <mxGeometry relative="1" as="geometry" />
        </mxCell>
        <mxCell id="7TJYjL8CNuQm4D0-0RJm-1" value="" style="rounded=0;whiteSpace=wrap;html=1;dashed=1;" vertex="1" parent="1">
          <mxGeometry x="159" y="180" width="190" height="110" as="geometry" />
        </mxCell>
        <mxCell id="7TJYjL8CNuQm4D0-0RJm-35" style="edgeStyle=orthogonalEdgeStyle;rounded=0;orthogonalLoop=1;jettySize=auto;html=1;exitX=0.75;exitY=0;exitDx=0;exitDy=0;entryX=0;entryY=0.5;entryDx=0;entryDy=0;shape=flexArrow;fillColor=#7EA6E0;" edge="1" parent="1" source="7TJYjL8CNuQm4D0-0RJm-2" target="7TJYjL8CNuQm4D0-0RJm-20">
          <mxGeometry relative="1" as="geometry" />
        </mxCell>
        <mxCell id="7TJYjL8CNuQm4D0-0RJm-2" value="&lt;font style=&quot;font-size: 14px;&quot;&gt;协同存储发起节点集群&lt;/font&gt;" style="text;html=1;align=center;verticalAlign=middle;whiteSpace=wrap;rounded=0;" vertex="1" parent="1">
          <mxGeometry x="178" y="180" width="152" height="30" as="geometry" />
        </mxCell>
        <mxCell id="7TJYjL8CNuQm4D0-0RJm-3" value="" style="shape=image;verticalLabelPosition=bottom;labelBackgroundColor=default;verticalAlign=top;aspect=fixed;imageAspect=0;image=data:image/png,iVBORw0KGgoAAAANSUhEUgAAAKoAAACfCAYAAABpwUKcAAAAAXNSR0IArs4c6QAAAARnQU1BAACxjwv8YQUAAAAJcEhZcwAADsMAAA7DAcdvqGQAACsgSURBVHhe7X35kyPned7b3UDjGGBmd46dXXK1XJLLQxRJkaZISaRkKVIcO44l2XJiO1WpJP9XKhU7PiqHI8myZcW0KEYiJUrUwfvQklxeuzu7OzcGN/rID8/zAt/0ADs4Ghhgtp+qLjS6G0Cj++n3e+/PCsMwlFsYQSgSiogfcjHWPWM90P3GMV4oEgg+b4mIIyK2JZKyRBwL7x1dj26L7LNFxLKiZ5dAYU0TUUOSJjAIFBhk0HV9VQK11yPbzM+GXBfjvflbUZL6AiIeIKoeIyJeECEqCdcmqklIm+smQY1128J32Pwui+/bC7/b7vKqD0jXbTd5lRl6OKaKqEqsViDSpMRqcfHCzvZmgG2NAOvNEEsj6Gxr8DivG+FMSWk8FPowdFs3iR1dFwGb2iQziNVtXY9RKarbu0lb21hPWyKu3Xl1LZEMX11jX8bGekaPNT/H9VmT4hMnqv5aIB1S1Ukyk3z6vmmQVQnY/hwX/Y56IFLzsb/O7/CkQ3SVgDpsK1EnegFuAiVpVCKnqE6kST7XEslyPUvi6ft9+5wOmTOR1yjhzYcgRek8TTgSogYCcl1tiFxrilxtYr3ki+z4HUJFh3XzfTfpuG+d7/X3otJRCTrRP38IukpaQyKbQ7opeU2pq8d0e28eN+eIFByRxZTISlpkOS1yyhVZTIvMOyDzNCF2opoSUyWZSR7dXvdFLtVFPqrj9f2ayI4nsunhmF4wb2TX4bSLbmcKh6igOPA+suHA/pu8j17IQ99HNhzYH1lXlcN84Mz3vdSWbig4IgspkVNpkdtdkTOuyNmsyGlX5GRKJO/gv5kEV8mu65NE7ERVKVf1RdZbIhstkZ2WyJYnUvFFagH2VQMQs+RBkpY8DOv1oPfFdYS6lw5j5hAWHdI4VLaHsiiRDR3NJPY+okf0TnOf+T2WQRxTh923rRuhzH1ddGB9H3D08KgKeVSDTH1933qA61wLOvcjCh3q8zak65wtUkjhNe9AfchxX8ERWXAgdZfSIPLJdPQbx4vYiOpTj6zzAm21RD6si3zM4f1aU2SXxKwGWBRKGB2ilAg63Fk8xuXFy/Ni6gXN2CI5C/uyHLZy1NvUeNDvsvldNofF9rBq/laE2Ac+w3WH561QQinZAoN47XXDM6Gk3XeMQV5T1VFjshFiqfkdHb3Ba26ul30sLX5Ov9v8Xt3mGw+J3g/X7hD0ZEpkxRW5PSNyNgPpe3umo9uq/jxOxEbUkgdd83ID+uaVpsiNJghbpRRtUArojVEJmLdFco5IwYZ+lHM6RDPXs5SmabszDLWHImN4Ml9VpzOlnykxxXgvkWPMfd2ON99LRDLqRTW3td/32CY9Pm8SzPTtmmqVR8mp29RDooalLjUanBWuV0ho3af3KAw7BMxauA9zJO4KVYVPZETOZKA+rLo84TFhaKLqp3waRjdaIm9XRd6qiLxbE/mgAfLWgv3SzDFcJAUHJJ1PYVlMiaxwfT6F/fOOSDEFEmcdPMG2MiPBoahR3drzRcpUs/Z8ql183WpxP5cKiesZQQ19WByLEjYt8mBB5N6cyAUuqS6jTFwYmqg6fHxYF3mljNerTZHrTZFtDvGNEOScd2BNnqKOo7pOVL/MUrqqpFVCm76/cV2I4wrT/6yqg7r/1CaoG/quqTpstETWmyIbnshmC9saAe7PHHXWxZTI/Xksd2ahGoxDDRiaqOrHfHFP5DsbIu9U8VS2wv2WYsHBMHEuI3JPXuSOrMh5/qEE0wc11HY9kQ/qIpdqIu83RN6vg7TbXsdAU2F1f17kk3mRJxdEHivAdohboAxN1MsNkdfLIi+VRX65h6G/GeAkV6nDnFLfXIpPXxoukXkHQ3uC6YMaV41AZJeqgaoHWx48Odfp+15vYttSCiPk4/Min56DIDqXjdeFNTRRXy6LfG9T5LUyDKcaTcZVV+SBvMiDc3jSzmXo9qBfLsZzTzABqHHnhSDstZbImxWoe+/UIHUVjxZEPjUn8pmiyOPFeIMGAxN1oyWy1hB5tSLyox2caMmH/+1cVuSenMh9eZG7c5CiCw71TJ50QtTZgrIjEKh6ZfrHrzREXqvAgFb342mOop+dF/nCAgyuk6l4dNaBifqbqsiv9kRer+B108P2cxmc3GNFkPW2RAc91mgEIi+WILBeKmOEVTw5L/LVExBWd+fg2hoVA3N9z0fY81oTVmPeFrnNhcV3IQdH8FwMJ5ZguuFYuNcPz8FFdTYD28MSeAjeqolcbsKbEAcGJmrJQ2z+SgNP1ZwDaXovXRTnsyLFhKjHHo5A1XtiHnrp+azIiRQIdaPVcVk2Ndw1Ivom6gYd+pfqeGIajFyccUUeLYo8NAerfhpTxBLED4vRvwxH1IfnYEg7FgzrjZbIWlPkowbWvREla99Evd4UebUMf+m2B+dxxoIu+pmiyMMFPFEJbj2cdkUeKeDVsWB07XhQDy/VwJ3WiJL1UKKG9KtttSBN16h3pG2RBVp1BSaHHPplCY4l5hz4y1cYfSyQCGUfZN32umdwDYJDuaVx3o0WpOlVPh0Zu+PEz7IeKBnxb03kHZD0jAujSnXVig8f++Ykhv4WM2w0gaHig7w5W2Q1jahEmulycYbMEswOHOZinHLhjlpxYaeorrrrMZWQyzA4nKghRHjVhwHlMVKRtfAULZKoCRIspkXuZKDHZj7Irgfu+EMSVHEoURshpGk1gHTV38tS3C+m44k8JJhdaGh8MQV/+goz47wQfvcqKw1GwaEUazKXMVoikrUh4hfTiURNAJxIwae+nIYNE1JPrbPCYBQcStR6gAwZFd8plnwUHZxYwYGOkiCBy7TOAsuEUhakasWHClD2h7f++yLqDstJAhaFFZmmV3DgSz30SxLcMrC03ooJ8CLgznoLxviw1v+hHKsFyPAu+9AzcnRLnUxhPW0nkagEgHp+VLIqUcs+Qu7rzFkeBocStRogQVbFtiZGq1sqQYIo0ixV0SBQ2Uc18vXmGIla9xFZqFBHzdrI5l5IxZvBneD4wKV6mLMhYSs+IpqbreGzqQ4lai3AD1ToYshy6F+IKSE2wfFDjsKswNqpio8S+vUW/PLDoCfVAjr366ydqTEilbFh7Rd5EgkSRJG1OzkgGqFab2FkblLgDRqh6knUFrtxaFMCjUilLCRLZxMjKkEPZGyMuDnqqF7Y6eTS1OZ10Q8dgt5ENdrEaEsYEXQkybIGqueHE9zScNnHKkdhFlDwNYzeWYPaVD25Vgsgqqv+fvY7RvPYJAklQTe4Vqc1k0kwn10cG0OEVG9KVHX0R4mqzcd6fniGEbCjSJ1ZY7usad9k15AbXK5HFt2+3kTG0GZLZJuZQxUfupk3hG42i8iwTZNa/YrAaMI8KFF7VqG+U0Up9I93RZ7dwY0TEfmXJ0X+wyoaZM0xTHacoA3E9jy2JmJLzDpbOraC/V1CQj7t0QZtaaPz86k08iLm2G/ruOv22njtn7dF/uY6aqhE0EXlj1dEPpVH28r8ANZ4T6K+WkZp9M/3RF7YhX4hIvJ7iyL/6TQSZF3emFmEWa+upPPZZGGjhYt7mS0zbzSZBcRhq91qPUTM0KGRqSqRS2OzyLj3hTwqdJfYODfNRPN2l0Ge03FRpVq8Rt/fEvnza/ChChtUfH0JzUlW0tBj+0VPor5YEnmlIvLSHmq2ffaU+r1Fkf98GrVSNi/2LMJjiU2JLWvW2ERBmw/vUZpWmKamTXLVEAiM9pB6HbS/qy7aIvNkCou2Hz/jor7oBLe7WiExo9cyCp/9X/9pW+QvriF82gpRAPr7iyIPsb5qIQ6i/ngHDdDeYDcMi7rHv14U+Y+n8UOzBm1PE7IjdjUAOa80RN6sYgRZa6CpxrCO6ZthKQWi3sumYmczSIubT0ECHzc16uktkb+6gT4QVR//+XcW0Z/qbGawrtU97SF19rd4c3M2EmNn2dEfGongr1ehQz2zLfL8Lvq6Xm92InDjgEb53qmK/Kwk8twO9P+3KtDpjhtSFjqBu1RxfGMmnNjcU62QQx6JOsdOwwupGdZLmba47Yn8ek/kuxsi/7AJwr5SQeHi3gg5k4ehyobHb1ZF/t+OyNPbIt/fRFucElsjHSekOfuKBofG4p7ydV4mjpUujYOcPXvVpgGNpA8b0L2/swFybHu4aANes9igxW8vlUW+uwnpfpnD5LB5m9METbJ3yRltZ6nRqUHQk6gBh39lvmvBvZKZwdBpIBjurzQgOZ/eEnm7Ah+nejOOAg1WT7xZEfnBtshPd2HU1YPRi+GmAY4lkmE7e4sCQye4624Z9UZvohqTGYhRZpCfodCpzwra6010H/zJrsjFascvOqieFDdCPkRVziJzqS7yC3ZKvNECkWeZsKqjZuj496l6NeiLHgQ9OedTT9UEAnPonxWJ6rMK8moTTbt+tIOJMIYZesYJTdr4uCHyQknk12V4I+pD6HLTBEeHfkYxfSPeP+j/6knUgCJan+iMjdlJcmwtOAtohiIf13HjteGwRtimDSGjYjdaIu/VRF7Zg1uwNE1P1IBIGeF21VHbEjVOopo6atSCmwU0AvTofLXMnlmMt08rmiH05o/r7OZcQeBhVuEIgx6qo/KetOLMnlJjSod+U6L2/NCUwA9xg9fZxv1KA++nmKMivM5eiET1yw2MAmtNJLc0Br2zU4AUJ1JzVUc1pqqPb+jXUBjfz5KO6odwPV1tilznbB46GcYsQDPiL3MmxPUW1IJZg+qoGcM9VVcdNXrwIehN1MjQ71qduUenlachl2YIY+S9GtLuhtGJjhJqdGy2ENa9WGVYdwhJdJTQ5mkpIzKlOROD/o+eRPW76ajqR40ePGVoBpjA6zVazwGja7OCkNd/o4UI2q/22IreMG5nAZpkr90e1Y8aawhVL1bIgxxjJuFpFakho2m1AL7TjxowTmbo3u5DPYDqcqUJb8CON3y58VHApp7qGMaUx9Ft0L9xU6Iq6y0eOKX8bEOH/YrPWeaaWJ9VBEbbz40WdNVpda91g/JGSRYaQaTYIlMhh/1QmOAbmUJ8GhEYZSQ19nOdYZ6KGJGrG0xH3GKu7C6XMkvZm5RUg+p+44TFiUc0z1ZHafUkDYLeRDUk6ixIU+H51oPjk9ShqNJddbGK6NU1egM+qndm867602lsmcKt7fKM0+oPKaHCkE9G9IApRMihchj3xzSjxgTvd2oIBPyKBta+pYwI3MsVGJEXqyDyDfYNU99lOIQ0GxaWjsZ8H4Yinto+A55ET/51k6jTLlVDrX0yzv04oMWI1Yd1kZ+XRH7AhOsf7SKX9h+3kLr4f9ZFvr0u8neb2P+LPZGLNei21SESQUZFm6jjGPpDsj0w9B1Hf2zamUqCHieSCofLCpOuL9ZQw/ZaBctLZRDyhZLIcyWR53ZFnt9BQeYv9rD/9Qr8se9xzqdJqQk6EreNKSWqSvYBJOtBovJG6xChCvGBA6cUM/I8jQUh1Z49TpvzJlMbv0tp+7/XQeSrDRB/Ej5ZczRWTqkQHOTnD/DPVHj1i2wS9qihT6BvWPdVHzdm10OMXK3g42RM9YuQ965hhJDfrUGq/ryExOxf7qEU5oMa9N7SCF2gD4NpSCnaZFUbyNh3Mxwgqs/IgSq81pTpqAF9pWXWPl1j/f2lOoa2WY6NjxNN+mMv1VBh/DzzXj+oj+9aRXVURTiErtqVqGZs3CTqpBCVmmVOxrbR6rhmPqxDWvymCgmhOptau3tdLr7F1LM0o2zulC2pMapYmpz9UR1l8KrDvlVF9GuPuQSD6I39wNRRFQHvrzlqH4YDdf17dCL/zQ3oNiIoQfnDZZGvL6Mt+rjRYgFYmUP6DTaF2GjB4V2hM19zGz0meXu0bBssSzaTjm0ahXMOJkKYJpeb3oA6+11pTL/fmzgIVPAUUyILjsgdWdTbX8iJfHIOnVysmFS9bUbTfrgDr8QGW/s8OS/yR8sijxU780AchgNE1YjH/7wh8vebOOF5R+QbyyJfWxovUQO6l7R30WYLVur7dVSQflyH3lWhDjrIjXSZbb6URjsZbakzDdD/UfaRJWX2uho3llIi57PoXvKVE5giUuPzo0JHwR9ui3zLIOrn50W+sQSizjFf9TAcIOompdbfrqN3kG2hlv/rSyDqqTEStcQ2OherGJK2PXQUbDcrI4HNfq39wBGR2zMiZ7MiF7Ii9+enR+dWhAJ1ZYMuqLcqGJLHjRyb7t6bE/nKyU5fqLkYuozsenjwntmG10GJ+tki+PRYEZJdZ0+5GQ4QVdsnfmcDDRIcCz2SvrYk8gdjIqp6GdYYz/4pu4jsMuF5EFJ2Q9rCfPK6fHY+esR4oVdYPSoht9mUXGoD7PkYKl8oifzzFh7WUf97v7gjI/LbJ0R+qyByXx4jz6jenhKTg57ZguBbJ1GfKIJLjxXwkGT7eCgOcNmj7qcXVC23cQ6TVxpwn/xoR+R7m6gYLfnQU+MY/RwLF/6OLJqSHQVCgSH46zJ8mU9vw1V0pQGCeiEky5IxnfiqC3VlEtj10WfsZXoCNlvIxh8FbUN8XFa/WU5sWv3j4uq1JhpD/KyE0N/bVQ7xMRHVEpETjsjZATvIxY31FqJEL+6BrK9W8N/LnBpJJ/I4lRY5o3OKjuuiR1D2oXK8UUUJzA4zskbBPu4Y/yM0Ioj93t+DRKXPTa1OtY7jvl5eKPJ+reOEfrkM6aJusThhMYFX2ztOGjpKXW2gIvatCqTWJbrX1pr7pZdltLCMSqNxIaD/fLuF+/J+rbuLb1AoWU0ERn/Zfm939DskEJGWES/XoT/u6+WFuFkvlODPe6UMi37Eh7gnHPoq47BmB4XPLoJrLN1+m92836uJ/KaG7WaVqaV9VscgIHpBAyk7HqJW79dEyiOWapsS1UTIazKIC+4AUb1ApGGEINs/Fv21IREwE+hqA26n31ShD40bwRFmVWl9+/msyFMLMCLuzcF/+dAc2sybuqgpccadOBJFk+HXzdbofbnaQi4i6No66gDBhQNENSNT7RBqjMN/QP/aR3W4oV5jX9JxQy3uoyCqdgy5O4c5EJ5aAEEfngNp78ygp5ci5LkOMjTGhWYAl9IGfbmjYF9Ck/FHglDEH7B26oB76jWmhf20hArIYkpkNY2W6L+zCAV/GKiUqAYiv+Bw/3oFCvy44VoijxdFfqsIH+Fp92gywnY5gcUOl6U0pGmOJcUthjnfZYL0pRrcO6MSZhA4bDZyd07km8sin1/AQzTIxBAKjbT905bIX1/v+IUfmhP50gk8pOey/Rm4B4j6Mg2bF/m6kMKN/d1FSINhierzJmx7It9aRwPbCitGxw1bQNAVWtNnM52K2jhGiX4R8IEN+ap+VH2vDv9rnBJox2eP2ugXjRmW4AH6/SVEkVbd4e671q793y2RvzKI+qk8fLaPFaEOneiDqBMTKiFPfI9peeUY3B/9ImQ5xy5nyt7SpYVhblLLNlMRSz6yv0p6PuzmotK2zGZuR0FS4fVSD8BGC6mUo8CKQW2cGFGDEH9410gqGfH/D4QWf7/MeaN2IsPwNCx7Roz/qPRpRZMNMK41RidqHDgw9L9ahp76QgkJt8WUyOk0hv5RdNSaD93rvTqSFH5aih4xPjiC4f5sBtMOncuOP4hxM3i0eG1t6KFuwQD+1I/rKOTT7tPqgZkkig4yqj49J/LkAvT7QVHn5HJRHfXBOZEvLWDoP9fn0H+AqG9UkN/5/K7IL0s44VMujKl/NQJRyz58pW9WMMnay+XoEeODa4l8pog49vmsyD15bD8KkgrTEBuBSEpn6eZwG1KXf72C6/9GZfLGlCJnwzZ5cK7jqRgUNY5gT3MGPyXqw3MiX6aOejbTnzF1YOhPcSIv/axewFD693l1g0f/3BpDhpOEbSGd7a4s4v23Z7DcNqFl1cWMMr6gzdClusi7bClZ8WHYLadx0/T8ltPIA1aJO2l4zAcujWBLhBwporSxNKAxgDF7gKiOhhrpqFWLNPpjg8IPkbK31hg94jEobCYKn3LjSV8bFD7Dk6+VkZD+36/DCv77TZGflEDcqkEGnU0kd0QhX+E9r7Embdi8WBVwQSgSGoy0qPKkBkh2OkhUDpUaagwZ0RlFmgpvVonul0m4pKJIs7PcUUkoEehr15qIyl3lTNR7nELIjEDtkzhHdL7DkKkbugk5O3aJaj4R0QMHREidZZc3ZtLQp3vU/zEM1F+atVEtMZ9COUzBgQ2QjUhOveZHcJnasKmnznH6nWEQHjb0D2AndCcqv0QoSYMePzgIAnYbrkyoxMJESB9uia1tJg29MafSiMo8WoAV/UAec6GeTKFuKGBBYyOAKlCfUO19N6Q4XdO8Az4Mg7BH/f6+7LDIvl7oTlRKVDElavTXBkTI4X+YiQZGRcBEmDUmKU8aNlWqCznMrvzNZZE/OwUvis60nLE7IeZdZsbvjGny4H7gGETtp1SkG1SiRvmzb+jvk6kH3FPrTeiR39qA/8sxaqZGKUW52hD5L2vI4J80UdMWwnafmhO5MydyX+5gRs9RQ6X+HjPtf7GHNMCj8qMupiD5HyuKPFxAndmg2PWQhfXMzsGaqa+xCrXfB+EAUTWc97frIv+4Cf3KrEIdlqhrDZH/uibyvS1I1kmS1Ra4e5bTcBXd5naMhGkgq6pX1QA391oTrqsddjE5Ap7KaRe+zieKeLg/kYkecTh2WYX6TKQK9XPz4NNjBUjtoapQd1mu+z+0XJqunW8sQ6oOWy59rSnyl9cgpWvB6LmOg0LLpZfT0BXbSSlTwFQ1nPZ8CIqSD7dQXDVjg8Dig30uiz4On59HltcwtWY77Pr9wx2Rb8dd11/24YT+6+sif7eBC6UNKL4xQgOK9Saeqme3Owkak4IlUF9OpmC83J3FxdFJEI4aPo2OHc7busZK4BJrqSZJVvVOXMiJ/MkKiJrhJCODYruF5iHPbrMBBe/5Uwsif7wCidqvy/AAUWs+JN5fXkc6XiCYDeWPVkDWYYm61UK61wsltOO5OoFkaYWjdf0Z5Fl+MgeiHpVE9WjdO2wtpIbmLon6PstUruvUQ9EvGCMyFtxn9+dh8I1SWr7VwgP3LDulbJKoX1gQ+XcrkKjpPsuDDhBV5wH6b9egp3ohEme/SaKeHpKoJU/kxRKqTV8uo2Z9UnAt6EWPz4vc7iLeb9O/eRRYZweYhRQefCVrg/m5b1VFflUSebsGY2SSAZKCg3LtB+ZgkzxSiB7RP7aYW/vsDtpDKVF/e0HkT06BqE6f9+GAQO/qnhrRhyr0yy27iGX3k4QQJxwLMfcH50TuzUP/Ops9GJMf13LGxQM+n8K5NJhAXg9EshYs7DMupP2Dc/BK3JZBb6hhne3DwKKTf5XnmzvAjsHQizsWpegg7qkDp6I+P1ujBurwj/7agEgx8eJcBjX2qQGiEqPCEvyemWwzSXiCYMdrFRip396AJfzjHcT6363tn2ZI0/9SE/RK2Bx5ltIoOnwg31/63c0QqqFIPdsyIlJtfvWJA0Q1C7L0i8IYFHr1x666uAA5GjOTguqD/QwzcUMDHR/W0XjiZyXk/b5R7dT1dy2XHkDijArHQmudpbTIXTmRO7MI746CaGTKIuHULahLPzhAVIWKZzEiC6NEpyxV1B30NnpyHsZNvyc6KgJKtgmqe22kLAzxp11IqruzWD+bASlWGZlSmJJoZAnRJwqOyD05GFGqpowqSKJD/ygPYG+iKvOt7nrGoLCp++oFeYKGTWoC1aAhS1G0p9akkWLm1moa0bH78tDVz2dB1BUX1yZk5r/H/rCTmobIEgiQe3Ii9+dwngWnP//mYdhHVKozgySjKHqeiopp4Q/FdX9tS2QxjZukasC4G4EFISzQj+pwQh8VVP97Yl7kqydRcXDGRSaVYyEIssPGxWsMZY87iSZtYYhfoaF7O8u340AYGf5Vog4TEex5SqqrSg/LbVg4FsKwF/K4KIvUV8eJQHDTL9VA2KPCKRdx8y+dQNTnyQWEJnWYbQQIX681MUPfjRi6lRwGl7bDaRdO/vPZ+JLLw0gus01D3RmCqAf8qIo/px9V481/uiLyp6fgNokDzaDTh+ntKnyGWh0atxCxpeNyOZeFjqgG4zRARyydbFj7UmnIcRwoOhjNzmfhDruQg+901aUhPSiTumCNbZue58RttQAqxhcWkJTy0Fz0E73Rk6h/cQ0ZL1tMdP6zUyL/PkaiBix1qAf4I8/vQop8UB+PHqk6d57JwCm6quK4IaNCY/01Zk8N2lF7GGjg4zNFkS8uQAVJGf7zOHC1garjn+yK/GAbwulECiHUP1iCvt4vegoVm0aAHuCRWNGyiWFhGT2ZzmcROXq00FHm3ZglXkhCNNlmpsx26zpnwVEuJTblqI0xtq82x4kURpSHC2hzdF8eSUfDDMeHwdcJQTjbis2k/PQQv9WTCzbdCKqnNlno1Qjiu5Aui9juySGl7HPzSCQ+y+52cV+8kO0fyz7i6tEGEEe57HpI8xtXWp8SdSkFg+7xosgXTqB0+cSYiOqFGDE1C8wWeDdce3B/dm+i0iJUvVqnLqzFJVHp+rLpuilyKpkniiJfPIFa8kcL6BeVY+17XFCdMJiSRc8nhst6AKmIMPjKSTQ+uycHQ9bltdX7ESd8JoMrUR2OoBmDV/2i5/3XMJ4pUSs+ul8E0YNHhKoZZ1yRTxdEnpoHUR8xiBqn7nQrQYl6IQ+iaocSte7HeVn3Df0kaob5p7FJVId/Up2zpkTtbn4ND1OyzrP+/jz1qC+eQOe3pxZA4jsMl9YwjuPjCiXkYgqq0/0c3p+aF/kXJ2E03ZuHMXwyJZJzOhGiuCWpQu2aJqOaDltaZoawP3oeH5WoDVqktQlYpFkbF/OBPIrh/nAZE2h9+QRcKGcyUBUmmbQxzbCo7xccuODuyUGF+t2TSNX7t8sinyuiBGfOuclNjxleCAOxaUjULCOUg0rUnu6p72yIPL0Fl9H1JqTbo1weZq3LuBEwpFil2nGjhQkpbjQ7LRwrtJbrHGa0GM5MhjgusNTIpQRN20hqn2OvgAWHlQzsBbuS7vhLj6L05td7yBJ7o4IWRitpGG+PF0UeYd+pftGTqN/dgO/rwzqSX+9nFedniljmR0wB6weateWzRaUSsc6aqzL7nO7yddtjW0vWw8dh9E0TbLp20jRKipSgKy7Cs4upDoEzlFwpwx1kTdhv/GIJDdJ0FpjTGXDnsQLybgfxyfck6vc20R7y/Tqk2F05DCmfnUdkYdLJzybUQV4PEM1Sd1PJM/yRPO44QdWxNBvZ5R3k+C6mcD+KR3hPuuGFXZF/2MJcDVcakKCfm0fzDc3S6hc9ifr9Tcyk914dyRy3s6/oFxZEvnoCw8tRQc9Yp4DxjMXnImNy9xw1bEpH28ix1fqv1ASlZT94jrVS79agtp3PIgr2SAFCbyUOoj69hSTfd2oQ20ucpOFLCyL/ZgnvEyS4GZ7dFvlf6xiVdzzkE3z5BIh6Z3YwDvU0ADW8qcmz9QA/VvGP35CaYDxo0aVZJWdsuqeGCY/3PD7DJOcMh5oG9cFKwEz5ETP+ExxfqKO/zqpaTQDXyNQw7qmeRM1yAtk8oxfNAEZLjbP6jduXmmB2oVyp0IeqNoNDI9AdonbtpkSdZ+9OizHpFssjWsfUT5kgHjRDNCiuRZJsbCalpOMc+nOMDuXt/b43n6lycU1RnuD4oZc905aoQyQZ9Tw+OvQrAqObSmJUJegGbbBRoT9boUkpw8zyfVOiLjD5w/xOrVEfV95kgtmHGt7RBKb20B8ZpfvBoUTNM8tGERh6akLUBN1gDv2+kbSd0jS/OHVUlzMK59hyUDOV/FCkQWsuGfoTdENDiUqOpBjuzXM+gFScRFWHf46EdUnUdo7hBNL9Eswm6uz1WmWSvcveAQXySPNgB0FPoioyav078H21QqbWJRI1QQ+0go57KgiRpL3qInlm2O4rh34s76AgrOAgD7LJic2iFl2CBIoGp0qqMWG6YKM8e4Ut6YfBoUTN2chyKVCi1gJkwmx5eHISJIiiyUrfOiVqIYWOMKsu/KjDoC+iLqaQRe6QqBst5H8eYRunBFMMVQ+1tH7ORpL0cnqMQ3/ORjpWgdGEmo9SkK1Wp7FAkpySQNiSaL2Jiosag0IWW1qedtEcb3xDP7PIVaJWdehvdYq2EiQQEnWjBdeU1q6ZRF0ap0RV10KWEtUL4XbY8xEm22MbmgQJNlto7rbeAifSFgScJjaN0mXjUKKmWYabZdhL/ahl9m1KrP8Eih0PxaBbLfhP03T0Z4ZIQoni0M9nmO6nT0aKU81UfZHrVAES6//WRsDcj42WyKU6JGoQdnzwhUgYfhgcSlQd+ufsDlEttki83sRsbM0hxXmC44GAKuGGB6JuUKJmbBSBqmtzFBxKVC3RPZGGL2w5jfe1AJ2R15sJUW91aLZUmR0JtSlanhGpk+TMKO2DDiWqxTzC5RRKXG/jTHNlH2XUa01Y/wluXVR9GFJ7bKLnUXAVHNTyq3AbBYcTlU/BqovuFndlcQJBCKv/CttfX2nAx5rg1sOWh9r9zRZImrGQdH86LXI+g9Dp2ImqWOVECRfynXY+ZR+T775ZgVuinBD1lsR6C5O7rVM3zTuYav72jMidOaxPjKg6R9TJFH54IQW1YKslcrGGCSOuMiqRqALHH36ICOXFKqTppTpG2CAER+7OgahFZ7jy6Cj6Jqqi6GA+01VO4rXtYY7Pl8voqnK9CYU6wfGGF4Kcz+2KvFQWeaeKod8XJDE9XEAHcXdEgioGJupSGrqqNrlybeQeftQQeaWMk75YxYwYO5xRReurEufA7EFzOfwQhtJ2S+SDGu71y1w+rMOQytkwnu7Mon3P6gix/SiGIupDbBt4R7aTDLvj4eR/WuITVoPrquojOSHB7CLkUF+h7/y1isizOyIv7eE+6yRzKy7mrLo7i/zTBU5iEQd6Nkk7DJdqIj/fw6Rmb1ZENqmbLqZxondzzvlV6rML7BGQY4QrO/AjkmASCNkFx2eovOpDldtjD9q1Job5t2nlb3ud+/l4Ee3rH8hjxHVjvMdDE7Xs40l6uSzyzA6Iq8p0gfUxWsm66sL/+okM2pqfcbEtwfRB23hWfKhvl5silxsilxlx2mQ/2j3mm7ZC3M8zLqbO/Nw8Rt35GKJRJoYmquJiVeQnJVh+H/PP1Nggyw/xVC2zZeVZkvQ2TvfosNArxdc0+xKZ29rrjJLZE+6aPOsIKCHN3rGe0Uu2ZfRp8FkKr/M1XG2gNf6VBsiqc2E5vE9F5oDcmYV//bEi1EJzSve4MDJRdzgcXK5jOLhUwxyYN0jYIIRkzVPKzjn4g5o6qPvmbHRMbqsIRgVs3hbJsoIxPUSDrVsZLYY0a6xhqnLRuQ/2fNQ3VXU/h3od7st+p+FZg4ZVnnMF3J2DnXJXFmRdSUOaxqWXmhiZqIrNFqTrOzVYgZcbnXzVVogLph2iLUrHPIladFBXs+BAxy2QuCa5lbzaY0Clq9mBub0e2ddejAuoq+Y13bfONz33m6+RG6NX1Lywur5vm/HmZsea3xcYeqRKy/b7iI4ZGPMeVEjGsi9SpsSscMKOHRKywqXKIV3412yWz7s27sNyGv34H8iL3JOH4XT7AP34h0FsRNV++jv88xvUba41oYRvtjoXQ2dz0+E8bWHCWNfopJEyFn3vchIFJWyWvTZdftbldv0elcDa5tAktaVqxE3WbYaP2/uMJfpQWFZncgwlUajkMroftsmmpOqyXbeZr0q+Jq+dDtEN9lhohpB4Tb6vcdFjdHj3IsO9frYVinh0JXr8j66OeBQmp9KwMVSKnkghSqkTIY8TsRFVoTrQHpNWLnP6n+st+OD2+FRXOaObeQH1s3rDokixG1yOEjZP9UFJmzWkbk6JzM84BlntHhJYSan7zOPbBI98ztHPWQeJpe99g5Aq+fYd22Vf9Lt8AZHqJF6N84zWaNSoXaAStN2flKTuBZtJR2oL6OIyO18N45OcaO0cSXpXLvpN40XsRNWhp8nhRUmpE/7q09xgx7ddDwbYOmtttlo4vt6lHsviRTWlbNTg0m3tffyMSktTKkpkm/6GxZX2sVzft7/LPlFJyRVdD3ldzP3631QKR/cdOL6bUSQiPjuA60Ou+/Q6qwrQDRaLN9V9uJzGskKrvcgmeWl2zSnQtpjn8ZNE7ETtF34ItWCjBan7cR0G2NVmZxoec1jUm6XrN9tn3lgx9gn3dXudNkQfCIk8VOZDYhnqTLd9vd7bAtItpzGsn81Can6CFaNa1TENODKiBpyRr25YlzW1RrldpYKqCE1tIqx6Gl9V72rvN9Y9w5AzdT2VNAEnW5sWqNqho4Gu2xwtdDQx9XKXQ3V7u+rnxrQ+OgKljfUUJeUcm+EVWDZS1GoOfn4acGREvRlUZ1V9a99iELmmOhr1NXOJGhNRPdiLDKPt4dGQvsamgd5H7+3N3lvGBtWPU5xNO6ripGkkqkGZY6RP9fGcBTee6u5qbGbUuNR1g+CqOlnRk5wyTCVRTcl3gGA9lgP7DSJ64X6XTmgaLYbxYkrYffsMd8++98Z6GDG22sabYXTpe5WQ+7Yb23QYN9/vk7QRqdhejDlSu+npDo/Rdf1OVQWmGVNJ1ElC/7zHSFqb3BGi6/t92/QztModc/r4iCQ0t5mLQwmaIllVh0ywHwlR+RpEpG7QTepGX83jTInaRUo6hrSNSlVTikpC1K645YmaYDZgRzckSDCNSIiaYCaQEDXBTCAhaoKZwP8HDg79wGsfNHIAAAAASUVORK5CYII=;" vertex="1" parent="1">
          <mxGeometry x="178" y="215" width="42.77" height="40" as="geometry" />
        </mxCell>
        <mxCell id="7TJYjL8CNuQm4D0-0RJm-5" value="" style="shape=image;verticalLabelPosition=bottom;labelBackgroundColor=default;verticalAlign=top;aspect=fixed;imageAspect=0;image=data:image/png,iVBORw0KGgoAAAANSUhEUgAAAKoAAACfCAYAAABpwUKcAAAAAXNSR0IArs4c6QAAAARnQU1BAACxjwv8YQUAAAAJcEhZcwAADsMAAA7DAcdvqGQAACsgSURBVHhe7X35kyPned7b3UDjGGBmd46dXXK1XJLLQxRJkaZISaRkKVIcO44l2XJiO1WpJP9XKhU7PiqHI8myZcW0KEYiJUrUwfvQklxeuzu7OzcGN/rID8/zAt/0ADs4Ghhgtp+qLjS6G0Cj++n3e+/PCsMwlFsYQSgSiogfcjHWPWM90P3GMV4oEgg+b4mIIyK2JZKyRBwL7x1dj26L7LNFxLKiZ5dAYU0TUUOSJjAIFBhk0HV9VQK11yPbzM+GXBfjvflbUZL6AiIeIKoeIyJeECEqCdcmqklIm+smQY1128J32Pwui+/bC7/b7vKqD0jXbTd5lRl6OKaKqEqsViDSpMRqcfHCzvZmgG2NAOvNEEsj6Gxr8DivG+FMSWk8FPowdFs3iR1dFwGb2iQziNVtXY9RKarbu0lb21hPWyKu3Xl1LZEMX11jX8bGekaPNT/H9VmT4hMnqv5aIB1S1Ukyk3z6vmmQVQnY/hwX/Y56IFLzsb/O7/CkQ3SVgDpsK1EnegFuAiVpVCKnqE6kST7XEslyPUvi6ft9+5wOmTOR1yjhzYcgRek8TTgSogYCcl1tiFxrilxtYr3ki+z4HUJFh3XzfTfpuG+d7/X3otJRCTrRP38IukpaQyKbQ7opeU2pq8d0e28eN+eIFByRxZTISlpkOS1yyhVZTIvMOyDzNCF2opoSUyWZSR7dXvdFLtVFPqrj9f2ayI4nsunhmF4wb2TX4bSLbmcKh6igOPA+suHA/pu8j17IQ99HNhzYH1lXlcN84Mz3vdSWbig4IgspkVNpkdtdkTOuyNmsyGlX5GRKJO/gv5kEV8mu65NE7ERVKVf1RdZbIhstkZ2WyJYnUvFFagH2VQMQs+RBkpY8DOv1oPfFdYS6lw5j5hAWHdI4VLaHsiiRDR3NJPY+okf0TnOf+T2WQRxTh923rRuhzH1ddGB9H3D08KgKeVSDTH1933qA61wLOvcjCh3q8zak65wtUkjhNe9AfchxX8ERWXAgdZfSIPLJdPQbx4vYiOpTj6zzAm21RD6si3zM4f1aU2SXxKwGWBRKGB2ilAg63Fk8xuXFy/Ni6gXN2CI5C/uyHLZy1NvUeNDvsvldNofF9rBq/laE2Ac+w3WH561QQinZAoN47XXDM6Gk3XeMQV5T1VFjshFiqfkdHb3Ba26ul30sLX5Ov9v8Xt3mGw+J3g/X7hD0ZEpkxRW5PSNyNgPpe3umo9uq/jxOxEbUkgdd83ID+uaVpsiNJghbpRRtUArojVEJmLdFco5IwYZ+lHM6RDPXs5SmabszDLWHImN4Ml9VpzOlnykxxXgvkWPMfd2ON99LRDLqRTW3td/32CY9Pm8SzPTtmmqVR8mp29RDooalLjUanBWuV0ho3af3KAw7BMxauA9zJO4KVYVPZETOZKA+rLo84TFhaKLqp3waRjdaIm9XRd6qiLxbE/mgAfLWgv3SzDFcJAUHJJ1PYVlMiaxwfT6F/fOOSDEFEmcdPMG2MiPBoahR3drzRcpUs/Z8ql183WpxP5cKiesZQQ19WByLEjYt8mBB5N6cyAUuqS6jTFwYmqg6fHxYF3mljNerTZHrTZFtDvGNEOScd2BNnqKOo7pOVL/MUrqqpFVCm76/cV2I4wrT/6yqg7r/1CaoG/quqTpstETWmyIbnshmC9saAe7PHHXWxZTI/Xksd2ahGoxDDRiaqOrHfHFP5DsbIu9U8VS2wv2WYsHBMHEuI3JPXuSOrMh5/qEE0wc11HY9kQ/qIpdqIu83RN6vg7TbXsdAU2F1f17kk3mRJxdEHivAdohboAxN1MsNkdfLIi+VRX65h6G/GeAkV6nDnFLfXIpPXxoukXkHQ3uC6YMaV41AZJeqgaoHWx48Odfp+15vYttSCiPk4/Min56DIDqXjdeFNTRRXy6LfG9T5LUyDKcaTcZVV+SBvMiDc3jSzmXo9qBfLsZzTzABqHHnhSDstZbImxWoe+/UIHUVjxZEPjUn8pmiyOPFeIMGAxN1oyWy1hB5tSLyox2caMmH/+1cVuSenMh9eZG7c5CiCw71TJ50QtTZgrIjEKh6ZfrHrzREXqvAgFb342mOop+dF/nCAgyuk6l4dNaBifqbqsiv9kRer+B108P2cxmc3GNFkPW2RAc91mgEIi+WILBeKmOEVTw5L/LVExBWd+fg2hoVA3N9z0fY81oTVmPeFrnNhcV3IQdH8FwMJ5ZguuFYuNcPz8FFdTYD28MSeAjeqolcbsKbEAcGJmrJQ2z+SgNP1ZwDaXovXRTnsyLFhKjHHo5A1XtiHnrp+azIiRQIdaPVcVk2Ndw1Ivom6gYd+pfqeGIajFyccUUeLYo8NAerfhpTxBLED4vRvwxH1IfnYEg7FgzrjZbIWlPkowbWvREla99Evd4UebUMf+m2B+dxxoIu+pmiyMMFPFEJbj2cdkUeKeDVsWB07XhQDy/VwJ3WiJL1UKKG9KtttSBN16h3pG2RBVp1BSaHHPplCY4l5hz4y1cYfSyQCGUfZN32umdwDYJDuaVx3o0WpOlVPh0Zu+PEz7IeKBnxb03kHZD0jAujSnXVig8f++Ykhv4WM2w0gaHig7w5W2Q1jahEmulycYbMEswOHOZinHLhjlpxYaeorrrrMZWQyzA4nKghRHjVhwHlMVKRtfAULZKoCRIspkXuZKDHZj7Irgfu+EMSVHEoURshpGk1gHTV38tS3C+m44k8JJhdaGh8MQV/+goz47wQfvcqKw1GwaEUazKXMVoikrUh4hfTiURNAJxIwae+nIYNE1JPrbPCYBQcStR6gAwZFd8plnwUHZxYwYGOkiCBy7TOAsuEUhakasWHClD2h7f++yLqDstJAhaFFZmmV3DgSz30SxLcMrC03ooJ8CLgznoLxviw1v+hHKsFyPAu+9AzcnRLnUxhPW0nkagEgHp+VLIqUcs+Qu7rzFkeBocStRogQVbFtiZGq1sqQYIo0ixV0SBQ2Uc18vXmGIla9xFZqFBHzdrI5l5IxZvBneD4wKV6mLMhYSs+IpqbreGzqQ4lai3AD1ToYshy6F+IKSE2wfFDjsKswNqpio8S+vUW/PLDoCfVAjr366ydqTEilbFh7Rd5EgkSRJG1OzkgGqFab2FkblLgDRqh6knUFrtxaFMCjUilLCRLZxMjKkEPZGyMuDnqqF7Y6eTS1OZ10Q8dgt5ENdrEaEsYEXQkybIGqueHE9zScNnHKkdhFlDwNYzeWYPaVD25Vgsgqqv+fvY7RvPYJAklQTe4Vqc1k0kwn10cG0OEVG9KVHX0R4mqzcd6fniGEbCjSJ1ZY7usad9k15AbXK5HFt2+3kTG0GZLZJuZQxUfupk3hG42i8iwTZNa/YrAaMI8KFF7VqG+U0Up9I93RZ7dwY0TEfmXJ0X+wyoaZM0xTHacoA3E9jy2JmJLzDpbOraC/V1CQj7t0QZtaaPz86k08iLm2G/ruOv22njtn7dF/uY6aqhE0EXlj1dEPpVH28r8ANZ4T6K+WkZp9M/3RF7YhX4hIvJ7iyL/6TQSZF3emFmEWa+upPPZZGGjhYt7mS0zbzSZBcRhq91qPUTM0KGRqSqRS2OzyLj3hTwqdJfYODfNRPN2l0Ge03FRpVq8Rt/fEvnza/ChChtUfH0JzUlW0tBj+0VPor5YEnmlIvLSHmq2ffaU+r1Fkf98GrVSNi/2LMJjiU2JLWvW2ERBmw/vUZpWmKamTXLVEAiM9pB6HbS/qy7aIvNkCou2Hz/jor7oBLe7WiExo9cyCp/9X/9pW+QvriF82gpRAPr7iyIPsb5qIQ6i/ngHDdDeYDcMi7rHv14U+Y+n8UOzBm1PE7IjdjUAOa80RN6sYgRZa6CpxrCO6ZthKQWi3sumYmczSIubT0ECHzc16uktkb+6gT4QVR//+XcW0Z/qbGawrtU97SF19rd4c3M2EmNn2dEfGongr1ehQz2zLfL8Lvq6Xm92InDjgEb53qmK/Kwk8twO9P+3KtDpjhtSFjqBu1RxfGMmnNjcU62QQx6JOsdOwwupGdZLmba47Yn8ek/kuxsi/7AJwr5SQeHi3gg5k4ehyobHb1ZF/t+OyNPbIt/fRFucElsjHSekOfuKBofG4p7ydV4mjpUujYOcPXvVpgGNpA8b0L2/swFybHu4aANes9igxW8vlUW+uwnpfpnD5LB5m9METbJ3yRltZ6nRqUHQk6gBh39lvmvBvZKZwdBpIBjurzQgOZ/eEnm7Ah+nejOOAg1WT7xZEfnBtshPd2HU1YPRi+GmAY4lkmE7e4sCQye4624Z9UZvohqTGYhRZpCfodCpzwra6010H/zJrsjFascvOqieFDdCPkRVziJzqS7yC3ZKvNECkWeZsKqjZuj496l6NeiLHgQ9OedTT9UEAnPonxWJ6rMK8moTTbt+tIOJMIYZesYJTdr4uCHyQknk12V4I+pD6HLTBEeHfkYxfSPeP+j/6knUgCJan+iMjdlJcmwtOAtohiIf13HjteGwRtimDSGjYjdaIu/VRF7Zg1uwNE1P1IBIGeF21VHbEjVOopo6atSCmwU0AvTofLXMnlmMt08rmiH05o/r7OZcQeBhVuEIgx6qo/KetOLMnlJjSod+U6L2/NCUwA9xg9fZxv1KA++nmKMivM5eiET1yw2MAmtNJLc0Br2zU4AUJ1JzVUc1pqqPb+jXUBjfz5KO6odwPV1tilznbB46GcYsQDPiL3MmxPUW1IJZg+qoGcM9VVcdNXrwIehN1MjQ71qduUenlachl2YIY+S9GtLuhtGJjhJqdGy2ENa9WGVYdwhJdJTQ5mkpIzKlOROD/o+eRPW76ajqR40ePGVoBpjA6zVazwGja7OCkNd/o4UI2q/22IreMG5nAZpkr90e1Y8aawhVL1bIgxxjJuFpFakho2m1AL7TjxowTmbo3u5DPYDqcqUJb8CON3y58VHApp7qGMaUx9Ft0L9xU6Iq6y0eOKX8bEOH/YrPWeaaWJ9VBEbbz40WdNVpda91g/JGSRYaQaTYIlMhh/1QmOAbmUJ8GhEYZSQ19nOdYZ6KGJGrG0xH3GKu7C6XMkvZm5RUg+p+44TFiUc0z1ZHafUkDYLeRDUk6ixIU+H51oPjk9ShqNJddbGK6NU1egM+qndm867602lsmcKt7fKM0+oPKaHCkE9G9IApRMihchj3xzSjxgTvd2oIBPyKBta+pYwI3MsVGJEXqyDyDfYNU99lOIQ0GxaWjsZ8H4Yinto+A55ET/51k6jTLlVDrX0yzv04oMWI1Yd1kZ+XRH7AhOsf7SKX9h+3kLr4f9ZFvr0u8neb2P+LPZGLNei21SESQUZFm6jjGPpDsj0w9B1Hf2zamUqCHieSCofLCpOuL9ZQw/ZaBctLZRDyhZLIcyWR53ZFnt9BQeYv9rD/9Qr8se9xzqdJqQk6EreNKSWqSvYBJOtBovJG6xChCvGBA6cUM/I8jQUh1Z49TpvzJlMbv0tp+7/XQeSrDRB/Ej5ZczRWTqkQHOTnD/DPVHj1i2wS9qihT6BvWPdVHzdm10OMXK3g42RM9YuQ965hhJDfrUGq/ryExOxf7qEU5oMa9N7SCF2gD4NpSCnaZFUbyNh3Mxwgqs/IgSq81pTpqAF9pWXWPl1j/f2lOoa2WY6NjxNN+mMv1VBh/DzzXj+oj+9aRXVURTiErtqVqGZs3CTqpBCVmmVOxrbR6rhmPqxDWvymCgmhOptau3tdLr7F1LM0o2zulC2pMapYmpz9UR1l8KrDvlVF9GuPuQSD6I39wNRRFQHvrzlqH4YDdf17dCL/zQ3oNiIoQfnDZZGvL6Mt+rjRYgFYmUP6DTaF2GjB4V2hM19zGz0meXu0bBssSzaTjm0ahXMOJkKYJpeb3oA6+11pTL/fmzgIVPAUUyILjsgdWdTbX8iJfHIOnVysmFS9bUbTfrgDr8QGW/s8OS/yR8sijxU780AchgNE1YjH/7wh8vebOOF5R+QbyyJfWxovUQO6l7R30WYLVur7dVSQflyH3lWhDjrIjXSZbb6URjsZbakzDdD/UfaRJWX2uho3llIi57PoXvKVE5giUuPzo0JHwR9ui3zLIOrn50W+sQSizjFf9TAcIOompdbfrqN3kG2hlv/rSyDqqTEStcQ2OherGJK2PXQUbDcrI4HNfq39wBGR2zMiZ7MiF7Ii9+enR+dWhAJ1ZYMuqLcqGJLHjRyb7t6bE/nKyU5fqLkYuozsenjwntmG10GJ+tki+PRYEZJdZ0+5GQ4QVdsnfmcDDRIcCz2SvrYk8gdjIqp6GdYYz/4pu4jsMuF5EFJ2Q9rCfPK6fHY+esR4oVdYPSoht9mUXGoD7PkYKl8oifzzFh7WUf97v7gjI/LbJ0R+qyByXx4jz6jenhKTg57ZguBbJ1GfKIJLjxXwkGT7eCgOcNmj7qcXVC23cQ6TVxpwn/xoR+R7m6gYLfnQU+MY/RwLF/6OLJqSHQVCgSH46zJ8mU9vw1V0pQGCeiEky5IxnfiqC3VlEtj10WfsZXoCNlvIxh8FbUN8XFa/WU5sWv3j4uq1JhpD/KyE0N/bVQ7xMRHVEpETjsjZATvIxY31FqJEL+6BrK9W8N/LnBpJJ/I4lRY5o3OKjuuiR1D2oXK8UUUJzA4zskbBPu4Y/yM0Ioj93t+DRKXPTa1OtY7jvl5eKPJ+reOEfrkM6aJusThhMYFX2ztOGjpKXW2gIvatCqTWJbrX1pr7pZdltLCMSqNxIaD/fLuF+/J+rbuLb1AoWU0ERn/Zfm939DskEJGWES/XoT/u6+WFuFkvlODPe6UMi37Eh7gnHPoq47BmB4XPLoJrLN1+m92836uJ/KaG7WaVqaV9VscgIHpBAyk7HqJW79dEyiOWapsS1UTIazKIC+4AUb1ApGGEINs/Fv21IREwE+hqA26n31ShD40bwRFmVWl9+/msyFMLMCLuzcF/+dAc2sybuqgpccadOBJFk+HXzdbofbnaQi4i6No66gDBhQNENSNT7RBqjMN/QP/aR3W4oV5jX9JxQy3uoyCqdgy5O4c5EJ5aAEEfngNp78ygp5ci5LkOMjTGhWYAl9IGfbmjYF9Ck/FHglDEH7B26oB76jWmhf20hArIYkpkNY2W6L+zCAV/GKiUqAYiv+Bw/3oFCvy44VoijxdFfqsIH+Fp92gywnY5gcUOl6U0pGmOJcUthjnfZYL0pRrcO6MSZhA4bDZyd07km8sin1/AQzTIxBAKjbT905bIX1/v+IUfmhP50gk8pOey/Rm4B4j6Mg2bF/m6kMKN/d1FSINhierzJmx7It9aRwPbCitGxw1bQNAVWtNnM52K2jhGiX4R8IEN+ap+VH2vDv9rnBJox2eP2ugXjRmW4AH6/SVEkVbd4e671q793y2RvzKI+qk8fLaPFaEOneiDqBMTKiFPfI9peeUY3B/9ImQ5xy5nyt7SpYVhblLLNlMRSz6yv0p6PuzmotK2zGZuR0FS4fVSD8BGC6mUo8CKQW2cGFGDEH9410gqGfH/D4QWf7/MeaN2IsPwNCx7Roz/qPRpRZMNMK41RidqHDgw9L9ahp76QgkJt8WUyOk0hv5RdNSaD93rvTqSFH5aih4xPjiC4f5sBtMOncuOP4hxM3i0eG1t6KFuwQD+1I/rKOTT7tPqgZkkig4yqj49J/LkAvT7QVHn5HJRHfXBOZEvLWDoP9fn0H+AqG9UkN/5/K7IL0s44VMujKl/NQJRyz58pW9WMMnay+XoEeODa4l8pog49vmsyD15bD8KkgrTEBuBSEpn6eZwG1KXf72C6/9GZfLGlCJnwzZ5cK7jqRgUNY5gT3MGPyXqw3MiX6aOejbTnzF1YOhPcSIv/axewFD693l1g0f/3BpDhpOEbSGd7a4s4v23Z7DcNqFl1cWMMr6gzdClusi7bClZ8WHYLadx0/T8ltPIA1aJO2l4zAcujWBLhBwporSxNKAxgDF7gKiOhhrpqFWLNPpjg8IPkbK31hg94jEobCYKn3LjSV8bFD7Dk6+VkZD+36/DCv77TZGflEDcqkEGnU0kd0QhX+E9r7Embdi8WBVwQSgSGoy0qPKkBkh2OkhUDpUaagwZ0RlFmgpvVonul0m4pKJIs7PcUUkoEehr15qIyl3lTNR7nELIjEDtkzhHdL7DkKkbugk5O3aJaj4R0QMHREidZZc3ZtLQp3vU/zEM1F+atVEtMZ9COUzBgQ2QjUhOveZHcJnasKmnznH6nWEQHjb0D2AndCcqv0QoSYMePzgIAnYbrkyoxMJESB9uia1tJg29MafSiMo8WoAV/UAec6GeTKFuKGBBYyOAKlCfUO19N6Q4XdO8Az4Mg7BH/f6+7LDIvl7oTlRKVDElavTXBkTI4X+YiQZGRcBEmDUmKU8aNlWqCznMrvzNZZE/OwUvis60nLE7IeZdZsbvjGny4H7gGETtp1SkG1SiRvmzb+jvk6kH3FPrTeiR39qA/8sxaqZGKUW52hD5L2vI4J80UdMWwnafmhO5MydyX+5gRs9RQ6X+HjPtf7GHNMCj8qMupiD5HyuKPFxAndmg2PWQhfXMzsGaqa+xCrXfB+EAUTWc97frIv+4Cf3KrEIdlqhrDZH/uibyvS1I1kmS1Ra4e5bTcBXd5naMhGkgq6pX1QA391oTrqsddjE5Ap7KaRe+zieKeLg/kYkecTh2WYX6TKQK9XPz4NNjBUjtoapQd1mu+z+0XJqunW8sQ6oOWy59rSnyl9cgpWvB6LmOg0LLpZfT0BXbSSlTwFQ1nPZ8CIqSD7dQXDVjg8Dig30uiz4On59HltcwtWY77Pr9wx2Rb8dd11/24YT+6+sif7eBC6UNKL4xQgOK9Saeqme3Owkak4IlUF9OpmC83J3FxdFJEI4aPo2OHc7busZK4BJrqSZJVvVOXMiJ/MkKiJrhJCODYruF5iHPbrMBBe/5Uwsif7wCidqvy/AAUWs+JN5fXkc6XiCYDeWPVkDWYYm61UK61wsltOO5OoFkaYWjdf0Z5Fl+MgeiHpVE9WjdO2wtpIbmLon6PstUruvUQ9EvGCMyFtxn9+dh8I1SWr7VwgP3LDulbJKoX1gQ+XcrkKjpPsuDDhBV5wH6b9egp3ohEme/SaKeHpKoJU/kxRKqTV8uo2Z9UnAt6EWPz4vc7iLeb9O/eRRYZweYhRQefCVrg/m5b1VFflUSebsGY2SSAZKCg3LtB+ZgkzxSiB7RP7aYW/vsDtpDKVF/e0HkT06BqE6f9+GAQO/qnhrRhyr0yy27iGX3k4QQJxwLMfcH50TuzUP/Ops9GJMf13LGxQM+n8K5NJhAXg9EshYs7DMupP2Dc/BK3JZBb6hhne3DwKKTf5XnmzvAjsHQizsWpegg7qkDp6I+P1ujBurwj/7agEgx8eJcBjX2qQGiEqPCEvyemWwzSXiCYMdrFRip396AJfzjHcT6363tn2ZI0/9SE/RK2Bx5ltIoOnwg31/63c0QqqFIPdsyIlJtfvWJA0Q1C7L0i8IYFHr1x666uAA5GjOTguqD/QwzcUMDHR/W0XjiZyXk/b5R7dT1dy2XHkDijArHQmudpbTIXTmRO7MI746CaGTKIuHULahLPzhAVIWKZzEiC6NEpyxV1B30NnpyHsZNvyc6KgJKtgmqe22kLAzxp11IqruzWD+bASlWGZlSmJJoZAnRJwqOyD05GFGqpowqSKJD/ygPYG+iKvOt7nrGoLCp++oFeYKGTWoC1aAhS1G0p9akkWLm1moa0bH78tDVz2dB1BUX1yZk5r/H/rCTmobIEgiQe3Ii9+dwngWnP//mYdhHVKozgySjKHqeiopp4Q/FdX9tS2QxjZukasC4G4EFISzQj+pwQh8VVP97Yl7kqydRcXDGRSaVYyEIssPGxWsMZY87iSZtYYhfoaF7O8u340AYGf5Vog4TEex5SqqrSg/LbVg4FsKwF/K4KIvUV8eJQHDTL9VA2KPCKRdx8y+dQNTnyQWEJnWYbQQIX681MUPfjRi6lRwGl7bDaRdO/vPZ+JLLw0gus01D3RmCqAf8qIo/px9V481/uiLyp6fgNokDzaDTh+ntKnyGWh0atxCxpeNyOZeFjqgG4zRARyydbFj7UmnIcRwoOhjNzmfhDruQg+901aUhPSiTumCNbZue58RttQAqxhcWkJTy0Fz0E73Rk6h/cQ0ZL1tMdP6zUyL/PkaiBix1qAf4I8/vQop8UB+PHqk6d57JwCm6quK4IaNCY/01Zk8N2lF7GGjg4zNFkS8uQAVJGf7zOHC1garjn+yK/GAbwulECiHUP1iCvt4vegoVm0aAHuCRWNGyiWFhGT2ZzmcROXq00FHm3ZglXkhCNNlmpsx26zpnwVEuJTblqI0xtq82x4kURpSHC2hzdF8eSUfDDMeHwdcJQTjbis2k/PQQv9WTCzbdCKqnNlno1Qjiu5Aui9juySGl7HPzSCQ+y+52cV+8kO0fyz7i6tEGEEe57HpI8xtXWp8SdSkFg+7xosgXTqB0+cSYiOqFGDE1C8wWeDdce3B/dm+i0iJUvVqnLqzFJVHp+rLpuilyKpkniiJfPIFa8kcL6BeVY+17XFCdMJiSRc8nhst6AKmIMPjKSTQ+uycHQ9bltdX7ESd8JoMrUR2OoBmDV/2i5/3XMJ4pUSs+ul8E0YNHhKoZZ1yRTxdEnpoHUR8xiBqn7nQrQYl6IQ+iaocSte7HeVn3Df0kaob5p7FJVId/Up2zpkTtbn4ND1OyzrP+/jz1qC+eQOe3pxZA4jsMl9YwjuPjCiXkYgqq0/0c3p+aF/kXJ2E03ZuHMXwyJZJzOhGiuCWpQu2aJqOaDltaZoawP3oeH5WoDVqktQlYpFkbF/OBPIrh/nAZE2h9+QRcKGcyUBUmmbQxzbCo7xccuODuyUGF+t2TSNX7t8sinyuiBGfOuclNjxleCAOxaUjULCOUg0rUnu6p72yIPL0Fl9H1JqTbo1weZq3LuBEwpFil2nGjhQkpbjQ7LRwrtJbrHGa0GM5MhjgusNTIpQRN20hqn2OvgAWHlQzsBbuS7vhLj6L05td7yBJ7o4IWRitpGG+PF0UeYd+pftGTqN/dgO/rwzqSX+9nFedniljmR0wB6weateWzRaUSsc6aqzL7nO7yddtjW0vWw8dh9E0TbLp20jRKipSgKy7Cs4upDoEzlFwpwx1kTdhv/GIJDdJ0FpjTGXDnsQLybgfxyfck6vc20R7y/Tqk2F05DCmfnUdkYdLJzybUQV4PEM1Sd1PJM/yRPO44QdWxNBvZ5R3k+C6mcD+KR3hPuuGFXZF/2MJcDVcakKCfm0fzDc3S6hc9ifr9Tcyk914dyRy3s6/oFxZEvnoCw8tRQc9Yp4DxjMXnImNy9xw1bEpH28ix1fqv1ASlZT94jrVS79agtp3PIgr2SAFCbyUOoj69hSTfd2oQ20ucpOFLCyL/ZgnvEyS4GZ7dFvlf6xiVdzzkE3z5BIh6Z3YwDvU0ADW8qcmz9QA/VvGP35CaYDxo0aVZJWdsuqeGCY/3PD7DJOcMh5oG9cFKwEz5ETP+ExxfqKO/zqpaTQDXyNQw7qmeRM1yAtk8oxfNAEZLjbP6jduXmmB2oVyp0IeqNoNDI9AdonbtpkSdZ+9OizHpFssjWsfUT5kgHjRDNCiuRZJsbCalpOMc+nOMDuXt/b43n6lycU1RnuD4oZc905aoQyQZ9Tw+OvQrAqObSmJUJegGbbBRoT9boUkpw8zyfVOiLjD5w/xOrVEfV95kgtmHGt7RBKb20B8ZpfvBoUTNM8tGERh6akLUBN1gDv2+kbSd0jS/OHVUlzMK59hyUDOV/FCkQWsuGfoTdENDiUqOpBjuzXM+gFScRFWHf46EdUnUdo7hBNL9Eswm6uz1WmWSvcveAQXySPNgB0FPoioyav078H21QqbWJRI1QQ+0go57KgiRpL3qInlm2O4rh34s76AgrOAgD7LJic2iFl2CBIoGp0qqMWG6YKM8e4Ut6YfBoUTN2chyKVCi1gJkwmx5eHISJIiiyUrfOiVqIYWOMKsu/KjDoC+iLqaQRe6QqBst5H8eYRunBFMMVQ+1tH7ORpL0cnqMQ3/ORjpWgdGEmo9SkK1Wp7FAkpySQNiSaL2Jiosag0IWW1qedtEcb3xDP7PIVaJWdehvdYq2EiQQEnWjBdeU1q6ZRF0ap0RV10KWEtUL4XbY8xEm22MbmgQJNlto7rbeAifSFgScJjaN0mXjUKKmWYabZdhL/ahl9m1KrP8Eih0PxaBbLfhP03T0Z4ZIQoni0M9nmO6nT0aKU81UfZHrVAES6//WRsDcj42WyKU6JGoQdnzwhUgYfhgcSlQd+ufsDlEttki83sRsbM0hxXmC44GAKuGGB6JuUKJmbBSBqmtzFBxKVC3RPZGGL2w5jfe1AJ2R15sJUW91aLZUmR0JtSlanhGpk+TMKO2DDiWqxTzC5RRKXG/jTHNlH2XUa01Y/wluXVR9GFJ7bKLnUXAVHNTyq3AbBYcTlU/BqovuFndlcQJBCKv/CttfX2nAx5rg1sOWh9r9zRZImrGQdH86LXI+g9Dp2ImqWOVECRfynXY+ZR+T775ZgVuinBD1lsR6C5O7rVM3zTuYav72jMidOaxPjKg6R9TJFH54IQW1YKslcrGGCSOuMiqRqALHH36ICOXFKqTppTpG2CAER+7OgahFZ7jy6Cj6Jqqi6GA+01VO4rXtYY7Pl8voqnK9CYU6wfGGF4Kcz+2KvFQWeaeKod8XJDE9XEAHcXdEgioGJupSGrqqNrlybeQeftQQeaWMk75YxYwYO5xRReurEufA7EFzOfwQhtJ2S+SDGu71y1w+rMOQytkwnu7Mon3P6gix/SiGIupDbBt4R7aTDLvj4eR/WuITVoPrquojOSHB7CLkUF+h7/y1isizOyIv7eE+6yRzKy7mrLo7i/zTBU5iEQd6Nkk7DJdqIj/fw6Rmb1ZENqmbLqZxondzzvlV6rML7BGQY4QrO/AjkmASCNkFx2eovOpDldtjD9q1Job5t2nlb3ud+/l4Ee3rH8hjxHVjvMdDE7Xs40l6uSzyzA6Iq8p0gfUxWsm66sL/+okM2pqfcbEtwfRB23hWfKhvl5silxsilxlx2mQ/2j3mm7ZC3M8zLqbO/Nw8Rt35GKJRJoYmquJiVeQnJVh+H/PP1Nggyw/xVC2zZeVZkvQ2TvfosNArxdc0+xKZ29rrjJLZE+6aPOsIKCHN3rGe0Uu2ZfRp8FkKr/M1XG2gNf6VBsiqc2E5vE9F5oDcmYV//bEi1EJzSve4MDJRdzgcXK5jOLhUwxyYN0jYIIRkzVPKzjn4g5o6qPvmbHRMbqsIRgVs3hbJsoIxPUSDrVsZLYY0a6xhqnLRuQ/2fNQ3VXU/h3od7st+p+FZg4ZVnnMF3J2DnXJXFmRdSUOaxqWXmhiZqIrNFqTrOzVYgZcbnXzVVogLph2iLUrHPIladFBXs+BAxy2QuCa5lbzaY0Clq9mBub0e2ddejAuoq+Y13bfONz33m6+RG6NX1Lywur5vm/HmZsea3xcYeqRKy/b7iI4ZGPMeVEjGsi9SpsSscMKOHRKywqXKIV3412yWz7s27sNyGv34H8iL3JOH4XT7AP34h0FsRNV++jv88xvUba41oYRvtjoXQ2dz0+E8bWHCWNfopJEyFn3vchIFJWyWvTZdftbldv0elcDa5tAktaVqxE3WbYaP2/uMJfpQWFZncgwlUajkMroftsmmpOqyXbeZr0q+Jq+dDtEN9lhohpB4Tb6vcdFjdHj3IsO9frYVinh0JXr8j66OeBQmp9KwMVSKnkghSqkTIY8TsRFVoTrQHpNWLnP6n+st+OD2+FRXOaObeQH1s3rDokixG1yOEjZP9UFJmzWkbk6JzM84BlntHhJYSan7zOPbBI98ztHPWQeJpe99g5Aq+fYd22Vf9Lt8AZHqJF6N84zWaNSoXaAStN2flKTuBZtJR2oL6OIyO18N45OcaO0cSXpXLvpN40XsRNWhp8nhRUmpE/7q09xgx7ddDwbYOmtttlo4vt6lHsviRTWlbNTg0m3tffyMSktTKkpkm/6GxZX2sVzft7/LPlFJyRVdD3ldzP3631QKR/cdOL6bUSQiPjuA60Ou+/Q6qwrQDRaLN9V9uJzGskKrvcgmeWl2zSnQtpjn8ZNE7ETtF34ItWCjBan7cR0G2NVmZxoec1jUm6XrN9tn3lgx9gn3dXudNkQfCIk8VOZDYhnqTLd9vd7bAtItpzGsn81Can6CFaNa1TENODKiBpyRr25YlzW1RrldpYKqCE1tIqx6Gl9V72rvN9Y9w5AzdT2VNAEnW5sWqNqho4Gu2xwtdDQx9XKXQ3V7u+rnxrQ+OgKljfUUJeUcm+EVWDZS1GoOfn4acGREvRlUZ1V9a99iELmmOhr1NXOJGhNRPdiLDKPt4dGQvsamgd5H7+3N3lvGBtWPU5xNO6ripGkkqkGZY6RP9fGcBTee6u5qbGbUuNR1g+CqOlnRk5wyTCVRTcl3gGA9lgP7DSJ64X6XTmgaLYbxYkrYffsMd8++98Z6GDG22sabYXTpe5WQ+7Yb23QYN9/vk7QRqdhejDlSu+npDo/Rdf1OVQWmGVNJ1ElC/7zHSFqb3BGi6/t92/QztModc/r4iCQ0t5mLQwmaIllVh0ywHwlR+RpEpG7QTepGX83jTInaRUo6hrSNSlVTikpC1K645YmaYDZgRzckSDCNSIiaYCaQEDXBTCAhaoKZwP8HDg79wGsfNHIAAAAASUVORK5CYII=;" vertex="1" parent="1">
          <mxGeometry x="285" y="215" width="42.77" height="40" as="geometry" />
        </mxCell>
        <mxCell id="7TJYjL8CNuQm4D0-0RJm-6" value="&lt;font style=&quot;font-size: 14px;&quot;&gt;发起节点&lt;/font&gt;" style="text;html=1;align=center;verticalAlign=middle;whiteSpace=wrap;rounded=0;" vertex="1" parent="1">
          <mxGeometry x="169.38" y="255" width="60" height="30" as="geometry" />
        </mxCell>
        <mxCell id="7TJYjL8CNuQm4D0-0RJm-7" value="&lt;font style=&quot;font-size: 14px;&quot;&gt;发起节点&lt;/font&gt;" style="text;html=1;align=center;verticalAlign=middle;whiteSpace=wrap;rounded=0;" vertex="1" parent="1">
          <mxGeometry x="276.38" y="255" width="60" height="30" as="geometry" />
        </mxCell>
        <mxCell id="7TJYjL8CNuQm4D0-0RJm-11" value="......." style="text;html=1;align=center;verticalAlign=middle;whiteSpace=wrap;rounded=0;" vertex="1" parent="1">
          <mxGeometry x="220" y="221" width="60" height="20" as="geometry" />
        </mxCell>
        <mxCell id="7TJYjL8CNuQm4D0-0RJm-12" value="" style="rounded=0;whiteSpace=wrap;html=1;dashed=1;" vertex="1" parent="1">
          <mxGeometry x="516" y="182" width="190" height="110" as="geometry" />
        </mxCell>
        <mxCell id="7TJYjL8CNuQm4D0-0RJm-73" style="edgeStyle=orthogonalEdgeStyle;rounded=0;orthogonalLoop=1;jettySize=auto;html=1;exitX=0;exitY=0;exitDx=0;exitDy=0;entryX=1;entryY=0.5;entryDx=0;entryDy=0;shape=flexArrow;fillColor=#7EA6E0;" edge="1" parent="1" source="7TJYjL8CNuQm4D0-0RJm-13" target="7TJYjL8CNuQm4D0-0RJm-20">
          <mxGeometry relative="1" as="geometry" />
        </mxCell>
        <mxCell id="7TJYjL8CNuQm4D0-0RJm-13" value="&lt;font style=&quot;font-size: 14px;&quot;&gt;协同存储发起节点集群&lt;/font&gt;" style="text;html=1;align=center;verticalAlign=middle;whiteSpace=wrap;rounded=0;" vertex="1" parent="1">
          <mxGeometry x="544" y="183" width="144" height="30" as="geometry" />
        </mxCell>
        <mxCell id="7TJYjL8CNuQm4D0-0RJm-14" value="" style="shape=image;verticalLabelPosition=bottom;labelBackgroundColor=default;verticalAlign=top;aspect=fixed;imageAspect=0;image=data:image/png,iVBORw0KGgoAAAANSUhEUgAAAKoAAACfCAYAAABpwUKcAAAAAXNSR0IArs4c6QAAAARnQU1BAACxjwv8YQUAAAAJcEhZcwAADsMAAA7DAcdvqGQAACsgSURBVHhe7X35kyPned7b3UDjGGBmd46dXXK1XJLLQxRJkaZISaRkKVIcO44l2XJiO1WpJP9XKhU7PiqHI8myZcW0KEYiJUrUwfvQklxeuzu7OzcGN/rID8/zAt/0ADs4Ghhgtp+qLjS6G0Cj++n3e+/PCsMwlFsYQSgSiogfcjHWPWM90P3GMV4oEgg+b4mIIyK2JZKyRBwL7x1dj26L7LNFxLKiZ5dAYU0TUUOSJjAIFBhk0HV9VQK11yPbzM+GXBfjvflbUZL6AiIeIKoeIyJeECEqCdcmqklIm+smQY1128J32Pwui+/bC7/b7vKqD0jXbTd5lRl6OKaKqEqsViDSpMRqcfHCzvZmgG2NAOvNEEsj6Gxr8DivG+FMSWk8FPowdFs3iR1dFwGb2iQziNVtXY9RKarbu0lb21hPWyKu3Xl1LZEMX11jX8bGekaPNT/H9VmT4hMnqv5aIB1S1Ukyk3z6vmmQVQnY/hwX/Y56IFLzsb/O7/CkQ3SVgDpsK1EnegFuAiVpVCKnqE6kST7XEslyPUvi6ft9+5wOmTOR1yjhzYcgRek8TTgSogYCcl1tiFxrilxtYr3ki+z4HUJFh3XzfTfpuG+d7/X3otJRCTrRP38IukpaQyKbQ7opeU2pq8d0e28eN+eIFByRxZTISlpkOS1yyhVZTIvMOyDzNCF2opoSUyWZSR7dXvdFLtVFPqrj9f2ayI4nsunhmF4wb2TX4bSLbmcKh6igOPA+suHA/pu8j17IQ99HNhzYH1lXlcN84Mz3vdSWbig4IgspkVNpkdtdkTOuyNmsyGlX5GRKJO/gv5kEV8mu65NE7ERVKVf1RdZbIhstkZ2WyJYnUvFFagH2VQMQs+RBkpY8DOv1oPfFdYS6lw5j5hAWHdI4VLaHsiiRDR3NJPY+okf0TnOf+T2WQRxTh923rRuhzH1ddGB9H3D08KgKeVSDTH1933qA61wLOvcjCh3q8zak65wtUkjhNe9AfchxX8ERWXAgdZfSIPLJdPQbx4vYiOpTj6zzAm21RD6si3zM4f1aU2SXxKwGWBRKGB2ilAg63Fk8xuXFy/Ni6gXN2CI5C/uyHLZy1NvUeNDvsvldNofF9rBq/laE2Ac+w3WH561QQinZAoN47XXDM6Gk3XeMQV5T1VFjshFiqfkdHb3Ba26ul30sLX5Ov9v8Xt3mGw+J3g/X7hD0ZEpkxRW5PSNyNgPpe3umo9uq/jxOxEbUkgdd83ID+uaVpsiNJghbpRRtUArojVEJmLdFco5IwYZ+lHM6RDPXs5SmabszDLWHImN4Ml9VpzOlnykxxXgvkWPMfd2ON99LRDLqRTW3td/32CY9Pm8SzPTtmmqVR8mp29RDooalLjUanBWuV0ho3af3KAw7BMxauA9zJO4KVYVPZETOZKA+rLo84TFhaKLqp3waRjdaIm9XRd6qiLxbE/mgAfLWgv3SzDFcJAUHJJ1PYVlMiaxwfT6F/fOOSDEFEmcdPMG2MiPBoahR3drzRcpUs/Z8ql183WpxP5cKiesZQQ19WByLEjYt8mBB5N6cyAUuqS6jTFwYmqg6fHxYF3mljNerTZHrTZFtDvGNEOScd2BNnqKOo7pOVL/MUrqqpFVCm76/cV2I4wrT/6yqg7r/1CaoG/quqTpstETWmyIbnshmC9saAe7PHHXWxZTI/Xksd2ahGoxDDRiaqOrHfHFP5DsbIu9U8VS2wv2WYsHBMHEuI3JPXuSOrMh5/qEE0wc11HY9kQ/qIpdqIu83RN6vg7TbXsdAU2F1f17kk3mRJxdEHivAdohboAxN1MsNkdfLIi+VRX65h6G/GeAkV6nDnFLfXIpPXxoukXkHQ3uC6YMaV41AZJeqgaoHWx48Odfp+15vYttSCiPk4/Min56DIDqXjdeFNTRRXy6LfG9T5LUyDKcaTcZVV+SBvMiDc3jSzmXo9qBfLsZzTzABqHHnhSDstZbImxWoe+/UIHUVjxZEPjUn8pmiyOPFeIMGAxN1oyWy1hB5tSLyox2caMmH/+1cVuSenMh9eZG7c5CiCw71TJ50QtTZgrIjEKh6ZfrHrzREXqvAgFb342mOop+dF/nCAgyuk6l4dNaBifqbqsiv9kRer+B108P2cxmc3GNFkPW2RAc91mgEIi+WILBeKmOEVTw5L/LVExBWd+fg2hoVA3N9z0fY81oTVmPeFrnNhcV3IQdH8FwMJ5ZguuFYuNcPz8FFdTYD28MSeAjeqolcbsKbEAcGJmrJQ2z+SgNP1ZwDaXovXRTnsyLFhKjHHo5A1XtiHnrp+azIiRQIdaPVcVk2Ndw1Ivom6gYd+pfqeGIajFyccUUeLYo8NAerfhpTxBLED4vRvwxH1IfnYEg7FgzrjZbIWlPkowbWvREla99Evd4UebUMf+m2B+dxxoIu+pmiyMMFPFEJbj2cdkUeKeDVsWB07XhQDy/VwJ3WiJL1UKKG9KtttSBN16h3pG2RBVp1BSaHHPplCY4l5hz4y1cYfSyQCGUfZN32umdwDYJDuaVx3o0WpOlVPh0Zu+PEz7IeKBnxb03kHZD0jAujSnXVig8f++Ykhv4WM2w0gaHig7w5W2Q1jahEmulycYbMEswOHOZinHLhjlpxYaeorrrrMZWQyzA4nKghRHjVhwHlMVKRtfAULZKoCRIspkXuZKDHZj7Irgfu+EMSVHEoURshpGk1gHTV38tS3C+m44k8JJhdaGh8MQV/+goz47wQfvcqKw1GwaEUazKXMVoikrUh4hfTiURNAJxIwae+nIYNE1JPrbPCYBQcStR6gAwZFd8plnwUHZxYwYGOkiCBy7TOAsuEUhakasWHClD2h7f++yLqDstJAhaFFZmmV3DgSz30SxLcMrC03ooJ8CLgznoLxviw1v+hHKsFyPAu+9AzcnRLnUxhPW0nkagEgHp+VLIqUcs+Qu7rzFkeBocStRogQVbFtiZGq1sqQYIo0ixV0SBQ2Uc18vXmGIla9xFZqFBHzdrI5l5IxZvBneD4wKV6mLMhYSs+IpqbreGzqQ4lai3AD1ToYshy6F+IKSE2wfFDjsKswNqpio8S+vUW/PLDoCfVAjr366ydqTEilbFh7Rd5EgkSRJG1OzkgGqFab2FkblLgDRqh6knUFrtxaFMCjUilLCRLZxMjKkEPZGyMuDnqqF7Y6eTS1OZ10Q8dgt5ENdrEaEsYEXQkybIGqueHE9zScNnHKkdhFlDwNYzeWYPaVD25Vgsgqqv+fvY7RvPYJAklQTe4Vqc1k0kwn10cG0OEVG9KVHX0R4mqzcd6fniGEbCjSJ1ZY7usad9k15AbXK5HFt2+3kTG0GZLZJuZQxUfupk3hG42i8iwTZNa/YrAaMI8KFF7VqG+U0Up9I93RZ7dwY0TEfmXJ0X+wyoaZM0xTHacoA3E9jy2JmJLzDpbOraC/V1CQj7t0QZtaaPz86k08iLm2G/ruOv22njtn7dF/uY6aqhE0EXlj1dEPpVH28r8ANZ4T6K+WkZp9M/3RF7YhX4hIvJ7iyL/6TQSZF3emFmEWa+upPPZZGGjhYt7mS0zbzSZBcRhq91qPUTM0KGRqSqRS2OzyLj3hTwqdJfYODfNRPN2l0Ge03FRpVq8Rt/fEvnza/ChChtUfH0JzUlW0tBj+0VPor5YEnmlIvLSHmq2ffaU+r1Fkf98GrVSNi/2LMJjiU2JLWvW2ERBmw/vUZpWmKamTXLVEAiM9pB6HbS/qy7aIvNkCou2Hz/jor7oBLe7WiExo9cyCp/9X/9pW+QvriF82gpRAPr7iyIPsb5qIQ6i/ngHDdDeYDcMi7rHv14U+Y+n8UOzBm1PE7IjdjUAOa80RN6sYgRZa6CpxrCO6ZthKQWi3sumYmczSIubT0ECHzc16uktkb+6gT4QVR//+XcW0Z/qbGawrtU97SF19rd4c3M2EmNn2dEfGongr1ehQz2zLfL8Lvq6Xm92InDjgEb53qmK/Kwk8twO9P+3KtDpjhtSFjqBu1RxfGMmnNjcU62QQx6JOsdOwwupGdZLmba47Yn8ek/kuxsi/7AJwr5SQeHi3gg5k4ehyobHb1ZF/t+OyNPbIt/fRFucElsjHSekOfuKBofG4p7ydV4mjpUujYOcPXvVpgGNpA8b0L2/swFybHu4aANes9igxW8vlUW+uwnpfpnD5LB5m9METbJ3yRltZ6nRqUHQk6gBh39lvmvBvZKZwdBpIBjurzQgOZ/eEnm7Ah+nejOOAg1WT7xZEfnBtshPd2HU1YPRi+GmAY4lkmE7e4sCQye4624Z9UZvohqTGYhRZpCfodCpzwra6010H/zJrsjFascvOqieFDdCPkRVziJzqS7yC3ZKvNECkWeZsKqjZuj496l6NeiLHgQ9OedTT9UEAnPonxWJ6rMK8moTTbt+tIOJMIYZesYJTdr4uCHyQknk12V4I+pD6HLTBEeHfkYxfSPeP+j/6knUgCJan+iMjdlJcmwtOAtohiIf13HjteGwRtimDSGjYjdaIu/VRF7Zg1uwNE1P1IBIGeF21VHbEjVOopo6atSCmwU0AvTofLXMnlmMt08rmiH05o/r7OZcQeBhVuEIgx6qo/KetOLMnlJjSod+U6L2/NCUwA9xg9fZxv1KA++nmKMivM5eiET1yw2MAmtNJLc0Br2zU4AUJ1JzVUc1pqqPb+jXUBjfz5KO6odwPV1tilznbB46GcYsQDPiL3MmxPUW1IJZg+qoGcM9VVcdNXrwIehN1MjQ71qduUenlachl2YIY+S9GtLuhtGJjhJqdGy2ENa9WGVYdwhJdJTQ5mkpIzKlOROD/o+eRPW76ajqR40ePGVoBpjA6zVazwGja7OCkNd/o4UI2q/22IreMG5nAZpkr90e1Y8aawhVL1bIgxxjJuFpFakho2m1AL7TjxowTmbo3u5DPYDqcqUJb8CON3y58VHApp7qGMaUx9Ft0L9xU6Iq6y0eOKX8bEOH/YrPWeaaWJ9VBEbbz40WdNVpda91g/JGSRYaQaTYIlMhh/1QmOAbmUJ8GhEYZSQ19nOdYZ6KGJGrG0xH3GKu7C6XMkvZm5RUg+p+44TFiUc0z1ZHafUkDYLeRDUk6ixIU+H51oPjk9ShqNJddbGK6NU1egM+qndm867602lsmcKt7fKM0+oPKaHCkE9G9IApRMihchj3xzSjxgTvd2oIBPyKBta+pYwI3MsVGJEXqyDyDfYNU99lOIQ0GxaWjsZ8H4Yinto+A55ET/51k6jTLlVDrX0yzv04oMWI1Yd1kZ+XRH7AhOsf7SKX9h+3kLr4f9ZFvr0u8neb2P+LPZGLNei21SESQUZFm6jjGPpDsj0w9B1Hf2zamUqCHieSCofLCpOuL9ZQw/ZaBctLZRDyhZLIcyWR53ZFnt9BQeYv9rD/9Qr8se9xzqdJqQk6EreNKSWqSvYBJOtBovJG6xChCvGBA6cUM/I8jQUh1Z49TpvzJlMbv0tp+7/XQeSrDRB/Ej5ZczRWTqkQHOTnD/DPVHj1i2wS9qihT6BvWPdVHzdm10OMXK3g42RM9YuQ965hhJDfrUGq/ryExOxf7qEU5oMa9N7SCF2gD4NpSCnaZFUbyNh3Mxwgqs/IgSq81pTpqAF9pWXWPl1j/f2lOoa2WY6NjxNN+mMv1VBh/DzzXj+oj+9aRXVURTiErtqVqGZs3CTqpBCVmmVOxrbR6rhmPqxDWvymCgmhOptau3tdLr7F1LM0o2zulC2pMapYmpz9UR1l8KrDvlVF9GuPuQSD6I39wNRRFQHvrzlqH4YDdf17dCL/zQ3oNiIoQfnDZZGvL6Mt+rjRYgFYmUP6DTaF2GjB4V2hM19zGz0meXu0bBssSzaTjm0ahXMOJkKYJpeb3oA6+11pTL/fmzgIVPAUUyILjsgdWdTbX8iJfHIOnVysmFS9bUbTfrgDr8QGW/s8OS/yR8sijxU780AchgNE1YjH/7wh8vebOOF5R+QbyyJfWxovUQO6l7R30WYLVur7dVSQflyH3lWhDjrIjXSZbb6URjsZbakzDdD/UfaRJWX2uho3llIi57PoXvKVE5giUuPzo0JHwR9ui3zLIOrn50W+sQSizjFf9TAcIOompdbfrqN3kG2hlv/rSyDqqTEStcQ2OherGJK2PXQUbDcrI4HNfq39wBGR2zMiZ7MiF7Ii9+enR+dWhAJ1ZYMuqLcqGJLHjRyb7t6bE/nKyU5fqLkYuozsenjwntmG10GJ+tki+PRYEZJdZ0+5GQ4QVdsnfmcDDRIcCz2SvrYk8gdjIqp6GdYYz/4pu4jsMuF5EFJ2Q9rCfPK6fHY+esR4oVdYPSoht9mUXGoD7PkYKl8oifzzFh7WUf97v7gjI/LbJ0R+qyByXx4jz6jenhKTg57ZguBbJ1GfKIJLjxXwkGT7eCgOcNmj7qcXVC23cQ6TVxpwn/xoR+R7m6gYLfnQU+MY/RwLF/6OLJqSHQVCgSH46zJ8mU9vw1V0pQGCeiEky5IxnfiqC3VlEtj10WfsZXoCNlvIxh8FbUN8XFa/WU5sWv3j4uq1JhpD/KyE0N/bVQ7xMRHVEpETjsjZATvIxY31FqJEL+6BrK9W8N/LnBpJJ/I4lRY5o3OKjuuiR1D2oXK8UUUJzA4zskbBPu4Y/yM0Ioj93t+DRKXPTa1OtY7jvl5eKPJ+reOEfrkM6aJusThhMYFX2ztOGjpKXW2gIvatCqTWJbrX1pr7pZdltLCMSqNxIaD/fLuF+/J+rbuLb1AoWU0ERn/Zfm939DskEJGWES/XoT/u6+WFuFkvlODPe6UMi37Eh7gnHPoq47BmB4XPLoJrLN1+m92836uJ/KaG7WaVqaV9VscgIHpBAyk7HqJW79dEyiOWapsS1UTIazKIC+4AUb1ApGGEINs/Fv21IREwE+hqA26n31ShD40bwRFmVWl9+/msyFMLMCLuzcF/+dAc2sybuqgpccadOBJFk+HXzdbofbnaQi4i6No66gDBhQNENSNT7RBqjMN/QP/aR3W4oV5jX9JxQy3uoyCqdgy5O4c5EJ5aAEEfngNp78ygp5ci5LkOMjTGhWYAl9IGfbmjYF9Ck/FHglDEH7B26oB76jWmhf20hArIYkpkNY2W6L+zCAV/GKiUqAYiv+Bw/3oFCvy44VoijxdFfqsIH+Fp92gywnY5gcUOl6U0pGmOJcUthjnfZYL0pRrcO6MSZhA4bDZyd07km8sin1/AQzTIxBAKjbT905bIX1/v+IUfmhP50gk8pOey/Rm4B4j6Mg2bF/m6kMKN/d1FSINhierzJmx7It9aRwPbCitGxw1bQNAVWtNnM52K2jhGiX4R8IEN+ap+VH2vDv9rnBJox2eP2ugXjRmW4AH6/SVEkVbd4e671q793y2RvzKI+qk8fLaPFaEOneiDqBMTKiFPfI9peeUY3B/9ImQ5xy5nyt7SpYVhblLLNlMRSz6yv0p6PuzmotK2zGZuR0FS4fVSD8BGC6mUo8CKQW2cGFGDEH9410gqGfH/D4QWf7/MeaN2IsPwNCx7Roz/qPRpRZMNMK41RidqHDgw9L9ahp76QgkJt8WUyOk0hv5RdNSaD93rvTqSFH5aih4xPjiC4f5sBtMOncuOP4hxM3i0eG1t6KFuwQD+1I/rKOTT7tPqgZkkig4yqj49J/LkAvT7QVHn5HJRHfXBOZEvLWDoP9fn0H+AqG9UkN/5/K7IL0s44VMujKl/NQJRyz58pW9WMMnay+XoEeODa4l8pog49vmsyD15bD8KkgrTEBuBSEpn6eZwG1KXf72C6/9GZfLGlCJnwzZ5cK7jqRgUNY5gT3MGPyXqw3MiX6aOejbTnzF1YOhPcSIv/axewFD693l1g0f/3BpDhpOEbSGd7a4s4v23Z7DcNqFl1cWMMr6gzdClusi7bClZ8WHYLadx0/T8ltPIA1aJO2l4zAcujWBLhBwporSxNKAxgDF7gKiOhhrpqFWLNPpjg8IPkbK31hg94jEobCYKn3LjSV8bFD7Dk6+VkZD+36/DCv77TZGflEDcqkEGnU0kd0QhX+E9r7Embdi8WBVwQSgSGoy0qPKkBkh2OkhUDpUaagwZ0RlFmgpvVonul0m4pKJIs7PcUUkoEehr15qIyl3lTNR7nELIjEDtkzhHdL7DkKkbugk5O3aJaj4R0QMHREidZZc3ZtLQp3vU/zEM1F+atVEtMZ9COUzBgQ2QjUhOveZHcJnasKmnznH6nWEQHjb0D2AndCcqv0QoSYMePzgIAnYbrkyoxMJESB9uia1tJg29MafSiMo8WoAV/UAec6GeTKFuKGBBYyOAKlCfUO19N6Q4XdO8Az4Mg7BH/f6+7LDIvl7oTlRKVDElavTXBkTI4X+YiQZGRcBEmDUmKU8aNlWqCznMrvzNZZE/OwUvis60nLE7IeZdZsbvjGny4H7gGETtp1SkG1SiRvmzb+jvk6kH3FPrTeiR39qA/8sxaqZGKUW52hD5L2vI4J80UdMWwnafmhO5MydyX+5gRs9RQ6X+HjPtf7GHNMCj8qMupiD5HyuKPFxAndmg2PWQhfXMzsGaqa+xCrXfB+EAUTWc97frIv+4Cf3KrEIdlqhrDZH/uibyvS1I1kmS1Ra4e5bTcBXd5naMhGkgq6pX1QA391oTrqsddjE5Ap7KaRe+zieKeLg/kYkecTh2WYX6TKQK9XPz4NNjBUjtoapQd1mu+z+0XJqunW8sQ6oOWy59rSnyl9cgpWvB6LmOg0LLpZfT0BXbSSlTwFQ1nPZ8CIqSD7dQXDVjg8Dig30uiz4On59HltcwtWY77Pr9wx2Rb8dd11/24YT+6+sif7eBC6UNKL4xQgOK9Saeqme3Owkak4IlUF9OpmC83J3FxdFJEI4aPo2OHc7busZK4BJrqSZJVvVOXMiJ/MkKiJrhJCODYruF5iHPbrMBBe/5Uwsif7wCidqvy/AAUWs+JN5fXkc6XiCYDeWPVkDWYYm61UK61wsltOO5OoFkaYWjdf0Z5Fl+MgeiHpVE9WjdO2wtpIbmLon6PstUruvUQ9EvGCMyFtxn9+dh8I1SWr7VwgP3LDulbJKoX1gQ+XcrkKjpPsuDDhBV5wH6b9egp3ohEme/SaKeHpKoJU/kxRKqTV8uo2Z9UnAt6EWPz4vc7iLeb9O/eRRYZweYhRQefCVrg/m5b1VFflUSebsGY2SSAZKCg3LtB+ZgkzxSiB7RP7aYW/vsDtpDKVF/e0HkT06BqE6f9+GAQO/qnhrRhyr0yy27iGX3k4QQJxwLMfcH50TuzUP/Ops9GJMf13LGxQM+n8K5NJhAXg9EshYs7DMupP2Dc/BK3JZBb6hhne3DwKKTf5XnmzvAjsHQizsWpegg7qkDp6I+P1ujBurwj/7agEgx8eJcBjX2qQGiEqPCEvyemWwzSXiCYMdrFRip396AJfzjHcT6363tn2ZI0/9SE/RK2Bx5ltIoOnwg31/63c0QqqFIPdsyIlJtfvWJA0Q1C7L0i8IYFHr1x666uAA5GjOTguqD/QwzcUMDHR/W0XjiZyXk/b5R7dT1dy2XHkDijArHQmudpbTIXTmRO7MI746CaGTKIuHULahLPzhAVIWKZzEiC6NEpyxV1B30NnpyHsZNvyc6KgJKtgmqe22kLAzxp11IqruzWD+bASlWGZlSmJJoZAnRJwqOyD05GFGqpowqSKJD/ygPYG+iKvOt7nrGoLCp++oFeYKGTWoC1aAhS1G0p9akkWLm1moa0bH78tDVz2dB1BUX1yZk5r/H/rCTmobIEgiQe3Ii9+dwngWnP//mYdhHVKozgySjKHqeiopp4Q/FdX9tS2QxjZukasC4G4EFISzQj+pwQh8VVP97Yl7kqydRcXDGRSaVYyEIssPGxWsMZY87iSZtYYhfoaF7O8u340AYGf5Vog4TEex5SqqrSg/LbVg4FsKwF/K4KIvUV8eJQHDTL9VA2KPCKRdx8y+dQNTnyQWEJnWYbQQIX681MUPfjRi6lRwGl7bDaRdO/vPZ+JLLw0gus01D3RmCqAf8qIo/px9V481/uiLyp6fgNokDzaDTh+ntKnyGWh0atxCxpeNyOZeFjqgG4zRARyydbFj7UmnIcRwoOhjNzmfhDruQg+901aUhPSiTumCNbZue58RttQAqxhcWkJTy0Fz0E73Rk6h/cQ0ZL1tMdP6zUyL/PkaiBix1qAf4I8/vQop8UB+PHqk6d57JwCm6quK4IaNCY/01Zk8N2lF7GGjg4zNFkS8uQAVJGf7zOHC1garjn+yK/GAbwulECiHUP1iCvt4vegoVm0aAHuCRWNGyiWFhGT2ZzmcROXq00FHm3ZglXkhCNNlmpsx26zpnwVEuJTblqI0xtq82x4kURpSHC2hzdF8eSUfDDMeHwdcJQTjbis2k/PQQv9WTCzbdCKqnNlno1Qjiu5Aui9juySGl7HPzSCQ+y+52cV+8kO0fyz7i6tEGEEe57HpI8xtXWp8SdSkFg+7xosgXTqB0+cSYiOqFGDE1C8wWeDdce3B/dm+i0iJUvVqnLqzFJVHp+rLpuilyKpkniiJfPIFa8kcL6BeVY+17XFCdMJiSRc8nhst6AKmIMPjKSTQ+uycHQ9bltdX7ESd8JoMrUR2OoBmDV/2i5/3XMJ4pUSs+ul8E0YNHhKoZZ1yRTxdEnpoHUR8xiBqn7nQrQYl6IQ+iaocSte7HeVn3Df0kaob5p7FJVId/Up2zpkTtbn4ND1OyzrP+/jz1qC+eQOe3pxZA4jsMl9YwjuPjCiXkYgqq0/0c3p+aF/kXJ2E03ZuHMXwyJZJzOhGiuCWpQu2aJqOaDltaZoawP3oeH5WoDVqktQlYpFkbF/OBPIrh/nAZE2h9+QRcKGcyUBUmmbQxzbCo7xccuODuyUGF+t2TSNX7t8sinyuiBGfOuclNjxleCAOxaUjULCOUg0rUnu6p72yIPL0Fl9H1JqTbo1weZq3LuBEwpFil2nGjhQkpbjQ7LRwrtJbrHGa0GM5MhjgusNTIpQRN20hqn2OvgAWHlQzsBbuS7vhLj6L05td7yBJ7o4IWRitpGG+PF0UeYd+pftGTqN/dgO/rwzqSX+9nFedniljmR0wB6weateWzRaUSsc6aqzL7nO7yddtjW0vWw8dh9E0TbLp20jRKipSgKy7Cs4upDoEzlFwpwx1kTdhv/GIJDdJ0FpjTGXDnsQLybgfxyfck6vc20R7y/Tqk2F05DCmfnUdkYdLJzybUQV4PEM1Sd1PJM/yRPO44QdWxNBvZ5R3k+C6mcD+KR3hPuuGFXZF/2MJcDVcakKCfm0fzDc3S6hc9ifr9Tcyk914dyRy3s6/oFxZEvnoCw8tRQc9Yp4DxjMXnImNy9xw1bEpH28ix1fqv1ASlZT94jrVS79agtp3PIgr2SAFCbyUOoj69hSTfd2oQ20ucpOFLCyL/ZgnvEyS4GZ7dFvlf6xiVdzzkE3z5BIh6Z3YwDvU0ADW8qcmz9QA/VvGP35CaYDxo0aVZJWdsuqeGCY/3PD7DJOcMh5oG9cFKwEz5ETP+ExxfqKO/zqpaTQDXyNQw7qmeRM1yAtk8oxfNAEZLjbP6jduXmmB2oVyp0IeqNoNDI9AdonbtpkSdZ+9OizHpFssjWsfUT5kgHjRDNCiuRZJsbCalpOMc+nOMDuXt/b43n6lycU1RnuD4oZc905aoQyQZ9Tw+OvQrAqObSmJUJegGbbBRoT9boUkpw8zyfVOiLjD5w/xOrVEfV95kgtmHGt7RBKb20B8ZpfvBoUTNM8tGERh6akLUBN1gDv2+kbSd0jS/OHVUlzMK59hyUDOV/FCkQWsuGfoTdENDiUqOpBjuzXM+gFScRFWHf46EdUnUdo7hBNL9Eswm6uz1WmWSvcveAQXySPNgB0FPoioyav078H21QqbWJRI1QQ+0go57KgiRpL3qInlm2O4rh34s76AgrOAgD7LJic2iFl2CBIoGp0qqMWG6YKM8e4Ut6YfBoUTN2chyKVCi1gJkwmx5eHISJIiiyUrfOiVqIYWOMKsu/KjDoC+iLqaQRe6QqBst5H8eYRunBFMMVQ+1tH7ORpL0cnqMQ3/ORjpWgdGEmo9SkK1Wp7FAkpySQNiSaL2Jiosag0IWW1qedtEcb3xDP7PIVaJWdehvdYq2EiQQEnWjBdeU1q6ZRF0ap0RV10KWEtUL4XbY8xEm22MbmgQJNlto7rbeAifSFgScJjaN0mXjUKKmWYabZdhL/ahl9m1KrP8Eih0PxaBbLfhP03T0Z4ZIQoni0M9nmO6nT0aKU81UfZHrVAES6//WRsDcj42WyKU6JGoQdnzwhUgYfhgcSlQd+ufsDlEttki83sRsbM0hxXmC44GAKuGGB6JuUKJmbBSBqmtzFBxKVC3RPZGGL2w5jfe1AJ2R15sJUW91aLZUmR0JtSlanhGpk+TMKO2DDiWqxTzC5RRKXG/jTHNlH2XUa01Y/wluXVR9GFJ7bKLnUXAVHNTyq3AbBYcTlU/BqovuFndlcQJBCKv/CttfX2nAx5rg1sOWh9r9zRZImrGQdH86LXI+g9Dp2ImqWOVECRfynXY+ZR+T775ZgVuinBD1lsR6C5O7rVM3zTuYav72jMidOaxPjKg6R9TJFH54IQW1YKslcrGGCSOuMiqRqALHH36ICOXFKqTppTpG2CAER+7OgahFZ7jy6Cj6Jqqi6GA+01VO4rXtYY7Pl8voqnK9CYU6wfGGF4Kcz+2KvFQWeaeKod8XJDE9XEAHcXdEgioGJupSGrqqNrlybeQeftQQeaWMk75YxYwYO5xRReurEufA7EFzOfwQhtJ2S+SDGu71y1w+rMOQytkwnu7Mon3P6gix/SiGIupDbBt4R7aTDLvj4eR/WuITVoPrquojOSHB7CLkUF+h7/y1isizOyIv7eE+6yRzKy7mrLo7i/zTBU5iEQd6Nkk7DJdqIj/fw6Rmb1ZENqmbLqZxondzzvlV6rML7BGQY4QrO/AjkmASCNkFx2eovOpDldtjD9q1Job5t2nlb3ud+/l4Ee3rH8hjxHVjvMdDE7Xs40l6uSzyzA6Iq8p0gfUxWsm66sL/+okM2pqfcbEtwfRB23hWfKhvl5silxsilxlx2mQ/2j3mm7ZC3M8zLqbO/Nw8Rt35GKJRJoYmquJiVeQnJVh+H/PP1Nggyw/xVC2zZeVZkvQ2TvfosNArxdc0+xKZ29rrjJLZE+6aPOsIKCHN3rGe0Uu2ZfRp8FkKr/M1XG2gNf6VBsiqc2E5vE9F5oDcmYV//bEi1EJzSve4MDJRdzgcXK5jOLhUwxyYN0jYIIRkzVPKzjn4g5o6qPvmbHRMbqsIRgVs3hbJsoIxPUSDrVsZLYY0a6xhqnLRuQ/2fNQ3VXU/h3od7st+p+FZg4ZVnnMF3J2DnXJXFmRdSUOaxqWXmhiZqIrNFqTrOzVYgZcbnXzVVogLph2iLUrHPIladFBXs+BAxy2QuCa5lbzaY0Clq9mBub0e2ddejAuoq+Y13bfONz33m6+RG6NX1Lywur5vm/HmZsea3xcYeqRKy/b7iI4ZGPMeVEjGsi9SpsSscMKOHRKywqXKIV3412yWz7s27sNyGv34H8iL3JOH4XT7AP34h0FsRNV++jv88xvUba41oYRvtjoXQ2dz0+E8bWHCWNfopJEyFn3vchIFJWyWvTZdftbldv0elcDa5tAktaVqxE3WbYaP2/uMJfpQWFZncgwlUajkMroftsmmpOqyXbeZr0q+Jq+dDtEN9lhohpB4Tb6vcdFjdHj3IsO9frYVinh0JXr8j66OeBQmp9KwMVSKnkghSqkTIY8TsRFVoTrQHpNWLnP6n+st+OD2+FRXOaObeQH1s3rDokixG1yOEjZP9UFJmzWkbk6JzM84BlntHhJYSan7zOPbBI98ztHPWQeJpe99g5Aq+fYd22Vf9Lt8AZHqJF6N84zWaNSoXaAStN2flKTuBZtJR2oL6OIyO18N45OcaO0cSXpXLvpN40XsRNWhp8nhRUmpE/7q09xgx7ddDwbYOmtttlo4vt6lHsviRTWlbNTg0m3tffyMSktTKkpkm/6GxZX2sVzft7/LPlFJyRVdD3ldzP3631QKR/cdOL6bUSQiPjuA60Ou+/Q6qwrQDRaLN9V9uJzGskKrvcgmeWl2zSnQtpjn8ZNE7ETtF34ItWCjBan7cR0G2NVmZxoec1jUm6XrN9tn3lgx9gn3dXudNkQfCIk8VOZDYhnqTLd9vd7bAtItpzGsn81Can6CFaNa1TENODKiBpyRr25YlzW1RrldpYKqCE1tIqx6Gl9V72rvN9Y9w5AzdT2VNAEnW5sWqNqho4Gu2xwtdDQx9XKXQ3V7u+rnxrQ+OgKljfUUJeUcm+EVWDZS1GoOfn4acGREvRlUZ1V9a99iELmmOhr1NXOJGhNRPdiLDKPt4dGQvsamgd5H7+3N3lvGBtWPU5xNO6ripGkkqkGZY6RP9fGcBTee6u5qbGbUuNR1g+CqOlnRk5wyTCVRTcl3gGA9lgP7DSJ64X6XTmgaLYbxYkrYffsMd8++98Z6GDG22sabYXTpe5WQ+7Yb23QYN9/vk7QRqdhejDlSu+npDo/Rdf1OVQWmGVNJ1ElC/7zHSFqb3BGi6/t92/QztModc/r4iCQ0t5mLQwmaIllVh0ywHwlR+RpEpG7QTepGX83jTInaRUo6hrSNSlVTikpC1K645YmaYDZgRzckSDCNSIiaYCaQEDXBTCAhaoKZwP8HDg79wGsfNHIAAAAASUVORK5CYII=;" vertex="1" parent="1">
          <mxGeometry x="539" y="217" width="42.77" height="40" as="geometry" />
        </mxCell>
        <mxCell id="7TJYjL8CNuQm4D0-0RJm-15" value="" style="shape=image;verticalLabelPosition=bottom;labelBackgroundColor=default;verticalAlign=top;aspect=fixed;imageAspect=0;image=data:image/png,iVBORw0KGgoAAAANSUhEUgAAAKoAAACfCAYAAABpwUKcAAAAAXNSR0IArs4c6QAAAARnQU1BAACxjwv8YQUAAAAJcEhZcwAADsMAAA7DAcdvqGQAACsgSURBVHhe7X35kyPned7b3UDjGGBmd46dXXK1XJLLQxRJkaZISaRkKVIcO44l2XJiO1WpJP9XKhU7PiqHI8myZcW0KEYiJUrUwfvQklxeuzu7OzcGN/rID8/zAt/0ADs4Ghhgtp+qLjS6G0Cj++n3e+/PCsMwlFsYQSgSiogfcjHWPWM90P3GMV4oEgg+b4mIIyK2JZKyRBwL7x1dj26L7LNFxLKiZ5dAYU0TUUOSJjAIFBhk0HV9VQK11yPbzM+GXBfjvflbUZL6AiIeIKoeIyJeECEqCdcmqklIm+smQY1128J32Pwui+/bC7/b7vKqD0jXbTd5lRl6OKaKqEqsViDSpMRqcfHCzvZmgG2NAOvNEEsj6Gxr8DivG+FMSWk8FPowdFs3iR1dFwGb2iQziNVtXY9RKarbu0lb21hPWyKu3Xl1LZEMX11jX8bGekaPNT/H9VmT4hMnqv5aIB1S1Ukyk3z6vmmQVQnY/hwX/Y56IFLzsb/O7/CkQ3SVgDpsK1EnegFuAiVpVCKnqE6kST7XEslyPUvi6ft9+5wOmTOR1yjhzYcgRek8TTgSogYCcl1tiFxrilxtYr3ki+z4HUJFh3XzfTfpuG+d7/X3otJRCTrRP38IukpaQyKbQ7opeU2pq8d0e28eN+eIFByRxZTISlpkOS1yyhVZTIvMOyDzNCF2opoSUyWZSR7dXvdFLtVFPqrj9f2ayI4nsunhmF4wb2TX4bSLbmcKh6igOPA+suHA/pu8j17IQ99HNhzYH1lXlcN84Mz3vdSWbig4IgspkVNpkdtdkTOuyNmsyGlX5GRKJO/gv5kEV8mu65NE7ERVKVf1RdZbIhstkZ2WyJYnUvFFagH2VQMQs+RBkpY8DOv1oPfFdYS6lw5j5hAWHdI4VLaHsiiRDR3NJPY+okf0TnOf+T2WQRxTh923rRuhzH1ddGB9H3D08KgKeVSDTH1933qA61wLOvcjCh3q8zak65wtUkjhNe9AfchxX8ERWXAgdZfSIPLJdPQbx4vYiOpTj6zzAm21RD6si3zM4f1aU2SXxKwGWBRKGB2ilAg63Fk8xuXFy/Ni6gXN2CI5C/uyHLZy1NvUeNDvsvldNofF9rBq/laE2Ac+w3WH561QQinZAoN47XXDM6Gk3XeMQV5T1VFjshFiqfkdHb3Ba26ul30sLX5Ov9v8Xt3mGw+J3g/X7hD0ZEpkxRW5PSNyNgPpe3umo9uq/jxOxEbUkgdd83ID+uaVpsiNJghbpRRtUArojVEJmLdFco5IwYZ+lHM6RDPXs5SmabszDLWHImN4Ml9VpzOlnykxxXgvkWPMfd2ON99LRDLqRTW3td/32CY9Pm8SzPTtmmqVR8mp29RDooalLjUanBWuV0ho3af3KAw7BMxauA9zJO4KVYVPZETOZKA+rLo84TFhaKLqp3waRjdaIm9XRd6qiLxbE/mgAfLWgv3SzDFcJAUHJJ1PYVlMiaxwfT6F/fOOSDEFEmcdPMG2MiPBoahR3drzRcpUs/Z8ql183WpxP5cKiesZQQ19WByLEjYt8mBB5N6cyAUuqS6jTFwYmqg6fHxYF3mljNerTZHrTZFtDvGNEOScd2BNnqKOo7pOVL/MUrqqpFVCm76/cV2I4wrT/6yqg7r/1CaoG/quqTpstETWmyIbnshmC9saAe7PHHXWxZTI/Xksd2ahGoxDDRiaqOrHfHFP5DsbIu9U8VS2wv2WYsHBMHEuI3JPXuSOrMh5/qEE0wc11HY9kQ/qIpdqIu83RN6vg7TbXsdAU2F1f17kk3mRJxdEHivAdohboAxN1MsNkdfLIi+VRX65h6G/GeAkV6nDnFLfXIpPXxoukXkHQ3uC6YMaV41AZJeqgaoHWx48Odfp+15vYttSCiPk4/Min56DIDqXjdeFNTRRXy6LfG9T5LUyDKcaTcZVV+SBvMiDc3jSzmXo9qBfLsZzTzABqHHnhSDstZbImxWoe+/UIHUVjxZEPjUn8pmiyOPFeIMGAxN1oyWy1hB5tSLyox2caMmH/+1cVuSenMh9eZG7c5CiCw71TJ50QtTZgrIjEKh6ZfrHrzREXqvAgFb342mOop+dF/nCAgyuk6l4dNaBifqbqsiv9kRer+B108P2cxmc3GNFkPW2RAc91mgEIi+WILBeKmOEVTw5L/LVExBWd+fg2hoVA3N9z0fY81oTVmPeFrnNhcV3IQdH8FwMJ5ZguuFYuNcPz8FFdTYD28MSeAjeqolcbsKbEAcGJmrJQ2z+SgNP1ZwDaXovXRTnsyLFhKjHHo5A1XtiHnrp+azIiRQIdaPVcVk2Ndw1Ivom6gYd+pfqeGIajFyccUUeLYo8NAerfhpTxBLED4vRvwxH1IfnYEg7FgzrjZbIWlPkowbWvREla99Evd4UebUMf+m2B+dxxoIu+pmiyMMFPFEJbj2cdkUeKeDVsWB07XhQDy/VwJ3WiJL1UKKG9KtttSBN16h3pG2RBVp1BSaHHPplCY4l5hz4y1cYfSyQCGUfZN32umdwDYJDuaVx3o0WpOlVPh0Zu+PEz7IeKBnxb03kHZD0jAujSnXVig8f++Ykhv4WM2w0gaHig7w5W2Q1jahEmulycYbMEswOHOZinHLhjlpxYaeorrrrMZWQyzA4nKghRHjVhwHlMVKRtfAULZKoCRIspkXuZKDHZj7Irgfu+EMSVHEoURshpGk1gHTV38tS3C+m44k8JJhdaGh8MQV/+goz47wQfvcqKw1GwaEUazKXMVoikrUh4hfTiURNAJxIwae+nIYNE1JPrbPCYBQcStR6gAwZFd8plnwUHZxYwYGOkiCBy7TOAsuEUhakasWHClD2h7f++yLqDstJAhaFFZmmV3DgSz30SxLcMrC03ooJ8CLgznoLxviw1v+hHKsFyPAu+9AzcnRLnUxhPW0nkagEgHp+VLIqUcs+Qu7rzFkeBocStRogQVbFtiZGq1sqQYIo0ixV0SBQ2Uc18vXmGIla9xFZqFBHzdrI5l5IxZvBneD4wKV6mLMhYSs+IpqbreGzqQ4lai3AD1ToYshy6F+IKSE2wfFDjsKswNqpio8S+vUW/PLDoCfVAjr366ydqTEilbFh7Rd5EgkSRJG1OzkgGqFab2FkblLgDRqh6knUFrtxaFMCjUilLCRLZxMjKkEPZGyMuDnqqF7Y6eTS1OZ10Q8dgt5ENdrEaEsYEXQkybIGqueHE9zScNnHKkdhFlDwNYzeWYPaVD25Vgsgqqv+fvY7RvPYJAklQTe4Vqc1k0kwn10cG0OEVG9KVHX0R4mqzcd6fniGEbCjSJ1ZY7usad9k15AbXK5HFt2+3kTG0GZLZJuZQxUfupk3hG42i8iwTZNa/YrAaMI8KFF7VqG+U0Up9I93RZ7dwY0TEfmXJ0X+wyoaZM0xTHacoA3E9jy2JmJLzDpbOraC/V1CQj7t0QZtaaPz86k08iLm2G/ruOv22njtn7dF/uY6aqhE0EXlj1dEPpVH28r8ANZ4T6K+WkZp9M/3RF7YhX4hIvJ7iyL/6TQSZF3emFmEWa+upPPZZGGjhYt7mS0zbzSZBcRhq91qPUTM0KGRqSqRS2OzyLj3hTwqdJfYODfNRPN2l0Ge03FRpVq8Rt/fEvnza/ChChtUfH0JzUlW0tBj+0VPor5YEnmlIvLSHmq2ffaU+r1Fkf98GrVSNi/2LMJjiU2JLWvW2ERBmw/vUZpWmKamTXLVEAiM9pB6HbS/qy7aIvNkCou2Hz/jor7oBLe7WiExo9cyCp/9X/9pW+QvriF82gpRAPr7iyIPsb5qIQ6i/ngHDdDeYDcMi7rHv14U+Y+n8UOzBm1PE7IjdjUAOa80RN6sYgRZa6CpxrCO6ZthKQWi3sumYmczSIubT0ECHzc16uktkb+6gT4QVR//+XcW0Z/qbGawrtU97SF19rd4c3M2EmNn2dEfGongr1ehQz2zLfL8Lvq6Xm92InDjgEb53qmK/Kwk8twO9P+3KtDpjhtSFjqBu1RxfGMmnNjcU62QQx6JOsdOwwupGdZLmba47Yn8ek/kuxsi/7AJwr5SQeHi3gg5k4ehyobHb1ZF/t+OyNPbIt/fRFucElsjHSekOfuKBofG4p7ydV4mjpUujYOcPXvVpgGNpA8b0L2/swFybHu4aANes9igxW8vlUW+uwnpfpnD5LB5m9METbJ3yRltZ6nRqUHQk6gBh39lvmvBvZKZwdBpIBjurzQgOZ/eEnm7Ah+nejOOAg1WT7xZEfnBtshPd2HU1YPRi+GmAY4lkmE7e4sCQye4624Z9UZvohqTGYhRZpCfodCpzwra6010H/zJrsjFascvOqieFDdCPkRVziJzqS7yC3ZKvNECkWeZsKqjZuj496l6NeiLHgQ9OedTT9UEAnPonxWJ6rMK8moTTbt+tIOJMIYZesYJTdr4uCHyQknk12V4I+pD6HLTBEeHfkYxfSPeP+j/6knUgCJan+iMjdlJcmwtOAtohiIf13HjteGwRtimDSGjYjdaIu/VRF7Zg1uwNE1P1IBIGeF21VHbEjVOopo6atSCmwU0AvTofLXMnlmMt08rmiH05o/r7OZcQeBhVuEIgx6qo/KetOLMnlJjSod+U6L2/NCUwA9xg9fZxv1KA++nmKMivM5eiET1yw2MAmtNJLc0Br2zU4AUJ1JzVUc1pqqPb+jXUBjfz5KO6odwPV1tilznbB46GcYsQDPiL3MmxPUW1IJZg+qoGcM9VVcdNXrwIehN1MjQ71qduUenlachl2YIY+S9GtLuhtGJjhJqdGy2ENa9WGVYdwhJdJTQ5mkpIzKlOROD/o+eRPW76ajqR40ePGVoBpjA6zVazwGja7OCkNd/o4UI2q/22IreMG5nAZpkr90e1Y8aawhVL1bIgxxjJuFpFakho2m1AL7TjxowTmbo3u5DPYDqcqUJb8CON3y58VHApp7qGMaUx9Ft0L9xU6Iq6y0eOKX8bEOH/YrPWeaaWJ9VBEbbz40WdNVpda91g/JGSRYaQaTYIlMhh/1QmOAbmUJ8GhEYZSQ19nOdYZ6KGJGrG0xH3GKu7C6XMkvZm5RUg+p+44TFiUc0z1ZHafUkDYLeRDUk6ixIU+H51oPjk9ShqNJddbGK6NU1egM+qndm867602lsmcKt7fKM0+oPKaHCkE9G9IApRMihchj3xzSjxgTvd2oIBPyKBta+pYwI3MsVGJEXqyDyDfYNU99lOIQ0GxaWjsZ8H4Yinto+A55ET/51k6jTLlVDrX0yzv04oMWI1Yd1kZ+XRH7AhOsf7SKX9h+3kLr4f9ZFvr0u8neb2P+LPZGLNei21SESQUZFm6jjGPpDsj0w9B1Hf2zamUqCHieSCofLCpOuL9ZQw/ZaBctLZRDyhZLIcyWR53ZFnt9BQeYv9rD/9Qr8se9xzqdJqQk6EreNKSWqSvYBJOtBovJG6xChCvGBA6cUM/I8jQUh1Z49TpvzJlMbv0tp+7/XQeSrDRB/Ej5ZczRWTqkQHOTnD/DPVHj1i2wS9qihT6BvWPdVHzdm10OMXK3g42RM9YuQ965hhJDfrUGq/ryExOxf7qEU5oMa9N7SCF2gD4NpSCnaZFUbyNh3Mxwgqs/IgSq81pTpqAF9pWXWPl1j/f2lOoa2WY6NjxNN+mMv1VBh/DzzXj+oj+9aRXVURTiErtqVqGZs3CTqpBCVmmVOxrbR6rhmPqxDWvymCgmhOptau3tdLr7F1LM0o2zulC2pMapYmpz9UR1l8KrDvlVF9GuPuQSD6I39wNRRFQHvrzlqH4YDdf17dCL/zQ3oNiIoQfnDZZGvL6Mt+rjRYgFYmUP6DTaF2GjB4V2hM19zGz0meXu0bBssSzaTjm0ahXMOJkKYJpeb3oA6+11pTL/fmzgIVPAUUyILjsgdWdTbX8iJfHIOnVysmFS9bUbTfrgDr8QGW/s8OS/yR8sijxU780AchgNE1YjH/7wh8vebOOF5R+QbyyJfWxovUQO6l7R30WYLVur7dVSQflyH3lWhDjrIjXSZbb6URjsZbakzDdD/UfaRJWX2uho3llIi57PoXvKVE5giUuPzo0JHwR9ui3zLIOrn50W+sQSizjFf9TAcIOompdbfrqN3kG2hlv/rSyDqqTEStcQ2OherGJK2PXQUbDcrI4HNfq39wBGR2zMiZ7MiF7Ii9+enR+dWhAJ1ZYMuqLcqGJLHjRyb7t6bE/nKyU5fqLkYuozsenjwntmG10GJ+tki+PRYEZJdZ0+5GQ4QVdsnfmcDDRIcCz2SvrYk8gdjIqp6GdYYz/4pu4jsMuF5EFJ2Q9rCfPK6fHY+esR4oVdYPSoht9mUXGoD7PkYKl8oifzzFh7WUf97v7gjI/LbJ0R+qyByXx4jz6jenhKTg57ZguBbJ1GfKIJLjxXwkGT7eCgOcNmj7qcXVC23cQ6TVxpwn/xoR+R7m6gYLfnQU+MY/RwLF/6OLJqSHQVCgSH46zJ8mU9vw1V0pQGCeiEky5IxnfiqC3VlEtj10WfsZXoCNlvIxh8FbUN8XFa/WU5sWv3j4uq1JhpD/KyE0N/bVQ7xMRHVEpETjsjZATvIxY31FqJEL+6BrK9W8N/LnBpJJ/I4lRY5o3OKjuuiR1D2oXK8UUUJzA4zskbBPu4Y/yM0Ioj93t+DRKXPTa1OtY7jvl5eKPJ+reOEfrkM6aJusThhMYFX2ztOGjpKXW2gIvatCqTWJbrX1pr7pZdltLCMSqNxIaD/fLuF+/J+rbuLb1AoWU0ERn/Zfm939DskEJGWES/XoT/u6+WFuFkvlODPe6UMi37Eh7gnHPoq47BmB4XPLoJrLN1+m92836uJ/KaG7WaVqaV9VscgIHpBAyk7HqJW79dEyiOWapsS1UTIazKIC+4AUb1ApGGEINs/Fv21IREwE+hqA26n31ShD40bwRFmVWl9+/msyFMLMCLuzcF/+dAc2sybuqgpccadOBJFk+HXzdbofbnaQi4i6No66gDBhQNENSNT7RBqjMN/QP/aR3W4oV5jX9JxQy3uoyCqdgy5O4c5EJ5aAEEfngNp78ygp5ci5LkOMjTGhWYAl9IGfbmjYF9Ck/FHglDEH7B26oB76jWmhf20hArIYkpkNY2W6L+zCAV/GKiUqAYiv+Bw/3oFCvy44VoijxdFfqsIH+Fp92gywnY5gcUOl6U0pGmOJcUthjnfZYL0pRrcO6MSZhA4bDZyd07km8sin1/AQzTIxBAKjbT905bIX1/v+IUfmhP50gk8pOey/Rm4B4j6Mg2bF/m6kMKN/d1FSINhierzJmx7It9aRwPbCitGxw1bQNAVWtNnM52K2jhGiX4R8IEN+ap+VH2vDv9rnBJox2eP2ugXjRmW4AH6/SVEkVbd4e671q793y2RvzKI+qk8fLaPFaEOneiDqBMTKiFPfI9peeUY3B/9ImQ5xy5nyt7SpYVhblLLNlMRSz6yv0p6PuzmotK2zGZuR0FS4fVSD8BGC6mUo8CKQW2cGFGDEH9410gqGfH/D4QWf7/MeaN2IsPwNCx7Roz/qPRpRZMNMK41RidqHDgw9L9ahp76QgkJt8WUyOk0hv5RdNSaD93rvTqSFH5aih4xPjiC4f5sBtMOncuOP4hxM3i0eG1t6KFuwQD+1I/rKOTT7tPqgZkkig4yqj49J/LkAvT7QVHn5HJRHfXBOZEvLWDoP9fn0H+AqG9UkN/5/K7IL0s44VMujKl/NQJRyz58pW9WMMnay+XoEeODa4l8pog49vmsyD15bD8KkgrTEBuBSEpn6eZwG1KXf72C6/9GZfLGlCJnwzZ5cK7jqRgUNY5gT3MGPyXqw3MiX6aOejbTnzF1YOhPcSIv/axewFD693l1g0f/3BpDhpOEbSGd7a4s4v23Z7DcNqFl1cWMMr6gzdClusi7bClZ8WHYLadx0/T8ltPIA1aJO2l4zAcujWBLhBwporSxNKAxgDF7gKiOhhrpqFWLNPpjg8IPkbK31hg94jEobCYKn3LjSV8bFD7Dk6+VkZD+36/DCv77TZGflEDcqkEGnU0kd0QhX+E9r7Embdi8WBVwQSgSGoy0qPKkBkh2OkhUDpUaagwZ0RlFmgpvVonul0m4pKJIs7PcUUkoEehr15qIyl3lTNR7nELIjEDtkzhHdL7DkKkbugk5O3aJaj4R0QMHREidZZc3ZtLQp3vU/zEM1F+atVEtMZ9COUzBgQ2QjUhOveZHcJnasKmnznH6nWEQHjb0D2AndCcqv0QoSYMePzgIAnYbrkyoxMJESB9uia1tJg29MafSiMo8WoAV/UAec6GeTKFuKGBBYyOAKlCfUO19N6Q4XdO8Az4Mg7BH/f6+7LDIvl7oTlRKVDElavTXBkTI4X+YiQZGRcBEmDUmKU8aNlWqCznMrvzNZZE/OwUvis60nLE7IeZdZsbvjGny4H7gGETtp1SkG1SiRvmzb+jvk6kH3FPrTeiR39qA/8sxaqZGKUW52hD5L2vI4J80UdMWwnafmhO5MydyX+5gRs9RQ6X+HjPtf7GHNMCj8qMupiD5HyuKPFxAndmg2PWQhfXMzsGaqa+xCrXfB+EAUTWc97frIv+4Cf3KrEIdlqhrDZH/uibyvS1I1kmS1Ra4e5bTcBXd5naMhGkgq6pX1QA391oTrqsddjE5Ap7KaRe+zieKeLg/kYkecTh2WYX6TKQK9XPz4NNjBUjtoapQd1mu+z+0XJqunW8sQ6oOWy59rSnyl9cgpWvB6LmOg0LLpZfT0BXbSSlTwFQ1nPZ8CIqSD7dQXDVjg8Dig30uiz4On59HltcwtWY77Pr9wx2Rb8dd11/24YT+6+sif7eBC6UNKL4xQgOK9Saeqme3Owkak4IlUF9OpmC83J3FxdFJEI4aPo2OHc7busZK4BJrqSZJVvVOXMiJ/MkKiJrhJCODYruF5iHPbrMBBe/5Uwsif7wCidqvy/AAUWs+JN5fXkc6XiCYDeWPVkDWYYm61UK61wsltOO5OoFkaYWjdf0Z5Fl+MgeiHpVE9WjdO2wtpIbmLon6PstUruvUQ9EvGCMyFtxn9+dh8I1SWr7VwgP3LDulbJKoX1gQ+XcrkKjpPsuDDhBV5wH6b9egp3ohEme/SaKeHpKoJU/kxRKqTV8uo2Z9UnAt6EWPz4vc7iLeb9O/eRRYZweYhRQefCVrg/m5b1VFflUSebsGY2SSAZKCg3LtB+ZgkzxSiB7RP7aYW/vsDtpDKVF/e0HkT06BqE6f9+GAQO/qnhrRhyr0yy27iGX3k4QQJxwLMfcH50TuzUP/Ops9GJMf13LGxQM+n8K5NJhAXg9EshYs7DMupP2Dc/BK3JZBb6hhne3DwKKTf5XnmzvAjsHQizsWpegg7qkDp6I+P1ujBurwj/7agEgx8eJcBjX2qQGiEqPCEvyemWwzSXiCYMdrFRip396AJfzjHcT6363tn2ZI0/9SE/RK2Bx5ltIoOnwg31/63c0QqqFIPdsyIlJtfvWJA0Q1C7L0i8IYFHr1x666uAA5GjOTguqD/QwzcUMDHR/W0XjiZyXk/b5R7dT1dy2XHkDijArHQmudpbTIXTmRO7MI746CaGTKIuHULahLPzhAVIWKZzEiC6NEpyxV1B30NnpyHsZNvyc6KgJKtgmqe22kLAzxp11IqruzWD+bASlWGZlSmJJoZAnRJwqOyD05GFGqpowqSKJD/ygPYG+iKvOt7nrGoLCp++oFeYKGTWoC1aAhS1G0p9akkWLm1moa0bH78tDVz2dB1BUX1yZk5r/H/rCTmobIEgiQe3Ii9+dwngWnP//mYdhHVKozgySjKHqeiopp4Q/FdX9tS2QxjZukasC4G4EFISzQj+pwQh8VVP97Yl7kqydRcXDGRSaVYyEIssPGxWsMZY87iSZtYYhfoaF7O8u340AYGf5Vog4TEex5SqqrSg/LbVg4FsKwF/K4KIvUV8eJQHDTL9VA2KPCKRdx8y+dQNTnyQWEJnWYbQQIX681MUPfjRi6lRwGl7bDaRdO/vPZ+JLLw0gus01D3RmCqAf8qIo/px9V481/uiLyp6fgNokDzaDTh+ntKnyGWh0atxCxpeNyOZeFjqgG4zRARyydbFj7UmnIcRwoOhjNzmfhDruQg+901aUhPSiTumCNbZue58RttQAqxhcWkJTy0Fz0E73Rk6h/cQ0ZL1tMdP6zUyL/PkaiBix1qAf4I8/vQop8UB+PHqk6d57JwCm6quK4IaNCY/01Zk8N2lF7GGjg4zNFkS8uQAVJGf7zOHC1garjn+yK/GAbwulECiHUP1iCvt4vegoVm0aAHuCRWNGyiWFhGT2ZzmcROXq00FHm3ZglXkhCNNlmpsx26zpnwVEuJTblqI0xtq82x4kURpSHC2hzdF8eSUfDDMeHwdcJQTjbis2k/PQQv9WTCzbdCKqnNlno1Qjiu5Aui9juySGl7HPzSCQ+y+52cV+8kO0fyz7i6tEGEEe57HpI8xtXWp8SdSkFg+7xosgXTqB0+cSYiOqFGDE1C8wWeDdce3B/dm+i0iJUvVqnLqzFJVHp+rLpuilyKpkniiJfPIFa8kcL6BeVY+17XFCdMJiSRc8nhst6AKmIMPjKSTQ+uycHQ9bltdX7ESd8JoMrUR2OoBmDV/2i5/3XMJ4pUSs+ul8E0YNHhKoZZ1yRTxdEnpoHUR8xiBqn7nQrQYl6IQ+iaocSte7HeVn3Df0kaob5p7FJVId/Up2zpkTtbn4ND1OyzrP+/jz1qC+eQOe3pxZA4jsMl9YwjuPjCiXkYgqq0/0c3p+aF/kXJ2E03ZuHMXwyJZJzOhGiuCWpQu2aJqOaDltaZoawP3oeH5WoDVqktQlYpFkbF/OBPIrh/nAZE2h9+QRcKGcyUBUmmbQxzbCo7xccuODuyUGF+t2TSNX7t8sinyuiBGfOuclNjxleCAOxaUjULCOUg0rUnu6p72yIPL0Fl9H1JqTbo1weZq3LuBEwpFil2nGjhQkpbjQ7LRwrtJbrHGa0GM5MhjgusNTIpQRN20hqn2OvgAWHlQzsBbuS7vhLj6L05td7yBJ7o4IWRitpGG+PF0UeYd+pftGTqN/dgO/rwzqSX+9nFedniljmR0wB6weateWzRaUSsc6aqzL7nO7yddtjW0vWw8dh9E0TbLp20jRKipSgKy7Cs4upDoEzlFwpwx1kTdhv/GIJDdJ0FpjTGXDnsQLybgfxyfck6vc20R7y/Tqk2F05DCmfnUdkYdLJzybUQV4PEM1Sd1PJM/yRPO44QdWxNBvZ5R3k+C6mcD+KR3hPuuGFXZF/2MJcDVcakKCfm0fzDc3S6hc9ifr9Tcyk914dyRy3s6/oFxZEvnoCw8tRQc9Yp4DxjMXnImNy9xw1bEpH28ix1fqv1ASlZT94jrVS79agtp3PIgr2SAFCbyUOoj69hSTfd2oQ20ucpOFLCyL/ZgnvEyS4GZ7dFvlf6xiVdzzkE3z5BIh6Z3YwDvU0ADW8qcmz9QA/VvGP35CaYDxo0aVZJWdsuqeGCY/3PD7DJOcMh5oG9cFKwEz5ETP+ExxfqKO/zqpaTQDXyNQw7qmeRM1yAtk8oxfNAEZLjbP6jduXmmB2oVyp0IeqNoNDI9AdonbtpkSdZ+9OizHpFssjWsfUT5kgHjRDNCiuRZJsbCalpOMc+nOMDuXt/b43n6lycU1RnuD4oZc905aoQyQZ9Tw+OvQrAqObSmJUJegGbbBRoT9boUkpw8zyfVOiLjD5w/xOrVEfV95kgtmHGt7RBKb20B8ZpfvBoUTNM8tGERh6akLUBN1gDv2+kbSd0jS/OHVUlzMK59hyUDOV/FCkQWsuGfoTdENDiUqOpBjuzXM+gFScRFWHf46EdUnUdo7hBNL9Eswm6uz1WmWSvcveAQXySPNgB0FPoioyav078H21QqbWJRI1QQ+0go57KgiRpL3qInlm2O4rh34s76AgrOAgD7LJic2iFl2CBIoGp0qqMWG6YKM8e4Ut6YfBoUTN2chyKVCi1gJkwmx5eHISJIiiyUrfOiVqIYWOMKsu/KjDoC+iLqaQRe6QqBst5H8eYRunBFMMVQ+1tH7ORpL0cnqMQ3/ORjpWgdGEmo9SkK1Wp7FAkpySQNiSaL2Jiosag0IWW1qedtEcb3xDP7PIVaJWdehvdYq2EiQQEnWjBdeU1q6ZRF0ap0RV10KWEtUL4XbY8xEm22MbmgQJNlto7rbeAifSFgScJjaN0mXjUKKmWYabZdhL/ahl9m1KrP8Eih0PxaBbLfhP03T0Z4ZIQoni0M9nmO6nT0aKU81UfZHrVAES6//WRsDcj42WyKU6JGoQdnzwhUgYfhgcSlQd+ufsDlEttki83sRsbM0hxXmC44GAKuGGB6JuUKJmbBSBqmtzFBxKVC3RPZGGL2w5jfe1AJ2R15sJUW91aLZUmR0JtSlanhGpk+TMKO2DDiWqxTzC5RRKXG/jTHNlH2XUa01Y/wluXVR9GFJ7bKLnUXAVHNTyq3AbBYcTlU/BqovuFndlcQJBCKv/CttfX2nAx5rg1sOWh9r9zRZImrGQdH86LXI+g9Dp2ImqWOVECRfynXY+ZR+T775ZgVuinBD1lsR6C5O7rVM3zTuYav72jMidOaxPjKg6R9TJFH54IQW1YKslcrGGCSOuMiqRqALHH36ICOXFKqTppTpG2CAER+7OgahFZ7jy6Cj6Jqqi6GA+01VO4rXtYY7Pl8voqnK9CYU6wfGGF4Kcz+2KvFQWeaeKod8XJDE9XEAHcXdEgioGJupSGrqqNrlybeQeftQQeaWMk75YxYwYO5xRReurEufA7EFzOfwQhtJ2S+SDGu71y1w+rMOQytkwnu7Mon3P6gix/SiGIupDbBt4R7aTDLvj4eR/WuITVoPrquojOSHB7CLkUF+h7/y1isizOyIv7eE+6yRzKy7mrLo7i/zTBU5iEQd6Nkk7DJdqIj/fw6Rmb1ZENqmbLqZxondzzvlV6rML7BGQY4QrO/AjkmASCNkFx2eovOpDldtjD9q1Job5t2nlb3ud+/l4Ee3rH8hjxHVjvMdDE7Xs40l6uSzyzA6Iq8p0gfUxWsm66sL/+okM2pqfcbEtwfRB23hWfKhvl5silxsilxlx2mQ/2j3mm7ZC3M8zLqbO/Nw8Rt35GKJRJoYmquJiVeQnJVh+H/PP1Nggyw/xVC2zZeVZkvQ2TvfosNArxdc0+xKZ29rrjJLZE+6aPOsIKCHN3rGe0Uu2ZfRp8FkKr/M1XG2gNf6VBsiqc2E5vE9F5oDcmYV//bEi1EJzSve4MDJRdzgcXK5jOLhUwxyYN0jYIIRkzVPKzjn4g5o6qPvmbHRMbqsIRgVs3hbJsoIxPUSDrVsZLYY0a6xhqnLRuQ/2fNQ3VXU/h3od7st+p+FZg4ZVnnMF3J2DnXJXFmRdSUOaxqWXmhiZqIrNFqTrOzVYgZcbnXzVVogLph2iLUrHPIladFBXs+BAxy2QuCa5lbzaY0Clq9mBub0e2ddejAuoq+Y13bfONz33m6+RG6NX1Lywur5vm/HmZsea3xcYeqRKy/b7iI4ZGPMeVEjGsi9SpsSscMKOHRKywqXKIV3412yWz7s27sNyGv34H8iL3JOH4XT7AP34h0FsRNV++jv88xvUba41oYRvtjoXQ2dz0+E8bWHCWNfopJEyFn3vchIFJWyWvTZdftbldv0elcDa5tAktaVqxE3WbYaP2/uMJfpQWFZncgwlUajkMroftsmmpOqyXbeZr0q+Jq+dDtEN9lhohpB4Tb6vcdFjdHj3IsO9frYVinh0JXr8j66OeBQmp9KwMVSKnkghSqkTIY8TsRFVoTrQHpNWLnP6n+st+OD2+FRXOaObeQH1s3rDokixG1yOEjZP9UFJmzWkbk6JzM84BlntHhJYSan7zOPbBI98ztHPWQeJpe99g5Aq+fYd22Vf9Lt8AZHqJF6N84zWaNSoXaAStN2flKTuBZtJR2oL6OIyO18N45OcaO0cSXpXLvpN40XsRNWhp8nhRUmpE/7q09xgx7ddDwbYOmtttlo4vt6lHsviRTWlbNTg0m3tffyMSktTKkpkm/6GxZX2sVzft7/LPlFJyRVdD3ldzP3631QKR/cdOL6bUSQiPjuA60Ou+/Q6qwrQDRaLN9V9uJzGskKrvcgmeWl2zSnQtpjn8ZNE7ETtF34ItWCjBan7cR0G2NVmZxoec1jUm6XrN9tn3lgx9gn3dXudNkQfCIk8VOZDYhnqTLd9vd7bAtItpzGsn81Can6CFaNa1TENODKiBpyRr25YlzW1RrldpYKqCE1tIqx6Gl9V72rvN9Y9w5AzdT2VNAEnW5sWqNqho4Gu2xwtdDQx9XKXQ3V7u+rnxrQ+OgKljfUUJeUcm+EVWDZS1GoOfn4acGREvRlUZ1V9a99iELmmOhr1NXOJGhNRPdiLDKPt4dGQvsamgd5H7+3N3lvGBtWPU5xNO6ripGkkqkGZY6RP9fGcBTee6u5qbGbUuNR1g+CqOlnRk5wyTCVRTcl3gGA9lgP7DSJ64X6XTmgaLYbxYkrYffsMd8++98Z6GDG22sabYXTpe5WQ+7Yb23QYN9/vk7QRqdhejDlSu+npDo/Rdf1OVQWmGVNJ1ElC/7zHSFqb3BGi6/t92/QztModc/r4iCQ0t5mLQwmaIllVh0ywHwlR+RpEpG7QTepGX83jTInaRUo6hrSNSlVTikpC1K645YmaYDZgRzckSDCNSIiaYCaQEDXBTCAhaoKZwP8HDg79wGsfNHIAAAAASUVORK5CYII=;" vertex="1" parent="1">
          <mxGeometry x="646" y="217" width="42.77" height="40" as="geometry" />
        </mxCell>
        <mxCell id="7TJYjL8CNuQm4D0-0RJm-16" value="&lt;font style=&quot;font-size: 14px;&quot;&gt;协作节点&lt;/font&gt;" style="text;html=1;align=center;verticalAlign=middle;whiteSpace=wrap;rounded=0;" vertex="1" parent="1">
          <mxGeometry x="530.38" y="257" width="60" height="30" as="geometry" />
        </mxCell>
        <mxCell id="7TJYjL8CNuQm4D0-0RJm-17" value="&lt;font style=&quot;font-size: 14px;&quot;&gt;协作节点&lt;/font&gt;" style="text;html=1;align=center;verticalAlign=middle;whiteSpace=wrap;rounded=0;" vertex="1" parent="1">
          <mxGeometry x="637.38" y="257" width="60" height="30" as="geometry" />
        </mxCell>
        <mxCell id="7TJYjL8CNuQm4D0-0RJm-18" value="......." style="text;html=1;align=center;verticalAlign=middle;whiteSpace=wrap;rounded=0;" vertex="1" parent="1">
          <mxGeometry x="581" y="223" width="60" height="20" as="geometry" />
        </mxCell>
        <mxCell id="7TJYjL8CNuQm4D0-0RJm-20" value="" style="rounded=1;whiteSpace=wrap;html=1;fillColor=#fff2cc;strokeColor=#d6b656;" vertex="1" parent="1">
          <mxGeometry x="330" y="70" width="120" height="50" as="geometry" />
        </mxCell>
        <mxCell id="7TJYjL8CNuQm4D0-0RJm-21" value="&lt;font style=&quot;font-size: 14px;&quot;&gt;分片分配&lt;/font&gt;" style="text;html=1;align=center;verticalAlign=middle;whiteSpace=wrap;rounded=0;" vertex="1" parent="1">
          <mxGeometry x="360" y="82" width="60" height="30" as="geometry" />
        </mxCell>
        <mxCell id="7TJYjL8CNuQm4D0-0RJm-33" style="edgeStyle=orthogonalEdgeStyle;rounded=0;orthogonalLoop=1;jettySize=auto;html=1;exitX=1;exitY=0.75;exitDx=0;exitDy=0;shape=flexArrow;entryX=0.75;entryY=0;entryDx=0;entryDy=0;fillColor=#7EA6E0;" edge="1" parent="1" target="7TJYjL8CNuQm4D0-0RJm-13">
          <mxGeometry relative="1" as="geometry">
            <mxPoint x="490" y="4.5" as="sourcePoint" />
            <mxPoint x="600" y="160" as="targetPoint" />
          </mxGeometry>
        </mxCell>
        <mxCell id="7TJYjL8CNuQm4D0-0RJm-37" style="edgeStyle=orthogonalEdgeStyle;rounded=0;orthogonalLoop=1;jettySize=auto;html=1;exitX=0;exitY=0.5;exitDx=0;exitDy=0;entryX=0.25;entryY=0;entryDx=0;entryDy=0;shape=flexArrow;fillColor=#7EA6E0;" edge="1" parent="1" source="7TJYjL8CNuQm4D0-0RJm-22" target="7TJYjL8CNuQm4D0-0RJm-2">
          <mxGeometry relative="1" as="geometry" />
        </mxCell>
        <mxCell id="7TJYjL8CNuQm4D0-0RJm-22" value="" style="rounded=0;whiteSpace=wrap;html=1;dashed=1;" vertex="1" parent="1">
          <mxGeometry x="300" y="-90" width="190" height="110" as="geometry" />
        </mxCell>
        <mxCell id="7TJYjL8CNuQm4D0-0RJm-23" value="&lt;font style=&quot;font-size: 14px;&quot;&gt;CA集群&lt;/font&gt;" style="text;html=1;align=center;verticalAlign=middle;whiteSpace=wrap;rounded=0;" vertex="1" parent="1">
          <mxGeometry x="330" y="-90" width="130" height="30" as="geometry" />
        </mxCell>
        <mxCell id="7TJYjL8CNuQm4D0-0RJm-24" value="" style="shape=image;verticalLabelPosition=bottom;labelBackgroundColor=default;verticalAlign=top;aspect=fixed;imageAspect=0;image=data:image/png,iVBORw0KGgoAAAANSUhEUgAAAKoAAACfCAYAAABpwUKcAAAAAXNSR0IArs4c6QAAAARnQU1BAACxjwv8YQUAAAAJcEhZcwAADsMAAA7DAcdvqGQAACsgSURBVHhe7X35kyPned7b3UDjGGBmd46dXXK1XJLLQxRJkaZISaRkKVIcO44l2XJiO1WpJP9XKhU7PiqHI8myZcW0KEYiJUrUwfvQklxeuzu7OzcGN/rID8/zAt/0ADs4Ghhgtp+qLjS6G0Cj++n3e+/PCsMwlFsYQSgSiogfcjHWPWM90P3GMV4oEgg+b4mIIyK2JZKyRBwL7x1dj26L7LNFxLKiZ5dAYU0TUUOSJjAIFBhk0HV9VQK11yPbzM+GXBfjvflbUZL6AiIeIKoeIyJeECEqCdcmqklIm+smQY1128J32Pwui+/bC7/b7vKqD0jXbTd5lRl6OKaKqEqsViDSpMRqcfHCzvZmgG2NAOvNEEsj6Gxr8DivG+FMSWk8FPowdFs3iR1dFwGb2iQziNVtXY9RKarbu0lb21hPWyKu3Xl1LZEMX11jX8bGekaPNT/H9VmT4hMnqv5aIB1S1Ukyk3z6vmmQVQnY/hwX/Y56IFLzsb/O7/CkQ3SVgDpsK1EnegFuAiVpVCKnqE6kST7XEslyPUvi6ft9+5wOmTOR1yjhzYcgRek8TTgSogYCcl1tiFxrilxtYr3ki+z4HUJFh3XzfTfpuG+d7/X3otJRCTrRP38IukpaQyKbQ7opeU2pq8d0e28eN+eIFByRxZTISlpkOS1yyhVZTIvMOyDzNCF2opoSUyWZSR7dXvdFLtVFPqrj9f2ayI4nsunhmF4wb2TX4bSLbmcKh6igOPA+suHA/pu8j17IQ99HNhzYH1lXlcN84Mz3vdSWbig4IgspkVNpkdtdkTOuyNmsyGlX5GRKJO/gv5kEV8mu65NE7ERVKVf1RdZbIhstkZ2WyJYnUvFFagH2VQMQs+RBkpY8DOv1oPfFdYS6lw5j5hAWHdI4VLaHsiiRDR3NJPY+okf0TnOf+T2WQRxTh923rRuhzH1ddGB9H3D08KgKeVSDTH1933qA61wLOvcjCh3q8zak65wtUkjhNe9AfchxX8ERWXAgdZfSIPLJdPQbx4vYiOpTj6zzAm21RD6si3zM4f1aU2SXxKwGWBRKGB2ilAg63Fk8xuXFy/Ni6gXN2CI5C/uyHLZy1NvUeNDvsvldNofF9rBq/laE2Ac+w3WH561QQinZAoN47XXDM6Gk3XeMQV5T1VFjshFiqfkdHb3Ba26ul30sLX5Ov9v8Xt3mGw+J3g/X7hD0ZEpkxRW5PSNyNgPpe3umo9uq/jxOxEbUkgdd83ID+uaVpsiNJghbpRRtUArojVEJmLdFco5IwYZ+lHM6RDPXs5SmabszDLWHImN4Ml9VpzOlnykxxXgvkWPMfd2ON99LRDLqRTW3td/32CY9Pm8SzPTtmmqVR8mp29RDooalLjUanBWuV0ho3af3KAw7BMxauA9zJO4KVYVPZETOZKA+rLo84TFhaKLqp3waRjdaIm9XRd6qiLxbE/mgAfLWgv3SzDFcJAUHJJ1PYVlMiaxwfT6F/fOOSDEFEmcdPMG2MiPBoahR3drzRcpUs/Z8ql183WpxP5cKiesZQQ19WByLEjYt8mBB5N6cyAUuqS6jTFwYmqg6fHxYF3mljNerTZHrTZFtDvGNEOScd2BNnqKOo7pOVL/MUrqqpFVCm76/cV2I4wrT/6yqg7r/1CaoG/quqTpstETWmyIbnshmC9saAe7PHHXWxZTI/Xksd2ahGoxDDRiaqOrHfHFP5DsbIu9U8VS2wv2WYsHBMHEuI3JPXuSOrMh5/qEE0wc11HY9kQ/qIpdqIu83RN6vg7TbXsdAU2F1f17kk3mRJxdEHivAdohboAxN1MsNkdfLIi+VRX65h6G/GeAkV6nDnFLfXIpPXxoukXkHQ3uC6YMaV41AZJeqgaoHWx48Odfp+15vYttSCiPk4/Min56DIDqXjdeFNTRRXy6LfG9T5LUyDKcaTcZVV+SBvMiDc3jSzmXo9qBfLsZzTzABqHHnhSDstZbImxWoe+/UIHUVjxZEPjUn8pmiyOPFeIMGAxN1oyWy1hB5tSLyox2caMmH/+1cVuSenMh9eZG7c5CiCw71TJ50QtTZgrIjEKh6ZfrHrzREXqvAgFb342mOop+dF/nCAgyuk6l4dNaBifqbqsiv9kRer+B108P2cxmc3GNFkPW2RAc91mgEIi+WILBeKmOEVTw5L/LVExBWd+fg2hoVA3N9z0fY81oTVmPeFrnNhcV3IQdH8FwMJ5ZguuFYuNcPz8FFdTYD28MSeAjeqolcbsKbEAcGJmrJQ2z+SgNP1ZwDaXovXRTnsyLFhKjHHo5A1XtiHnrp+azIiRQIdaPVcVk2Ndw1Ivom6gYd+pfqeGIajFyccUUeLYo8NAerfhpTxBLED4vRvwxH1IfnYEg7FgzrjZbIWlPkowbWvREla99Evd4UebUMf+m2B+dxxoIu+pmiyMMFPFEJbj2cdkUeKeDVsWB07XhQDy/VwJ3WiJL1UKKG9KtttSBN16h3pG2RBVp1BSaHHPplCY4l5hz4y1cYfSyQCGUfZN32umdwDYJDuaVx3o0WpOlVPh0Zu+PEz7IeKBnxb03kHZD0jAujSnXVig8f++Ykhv4WM2w0gaHig7w5W2Q1jahEmulycYbMEswOHOZinHLhjlpxYaeorrrrMZWQyzA4nKghRHjVhwHlMVKRtfAULZKoCRIspkXuZKDHZj7Irgfu+EMSVHEoURshpGk1gHTV38tS3C+m44k8JJhdaGh8MQV/+goz47wQfvcqKw1GwaEUazKXMVoikrUh4hfTiURNAJxIwae+nIYNE1JPrbPCYBQcStR6gAwZFd8plnwUHZxYwYGOkiCBy7TOAsuEUhakasWHClD2h7f++yLqDstJAhaFFZmmV3DgSz30SxLcMrC03ooJ8CLgznoLxviw1v+hHKsFyPAu+9AzcnRLnUxhPW0nkagEgHp+VLIqUcs+Qu7rzFkeBocStRogQVbFtiZGq1sqQYIo0ixV0SBQ2Uc18vXmGIla9xFZqFBHzdrI5l5IxZvBneD4wKV6mLMhYSs+IpqbreGzqQ4lai3AD1ToYshy6F+IKSE2wfFDjsKswNqpio8S+vUW/PLDoCfVAjr366ydqTEilbFh7Rd5EgkSRJG1OzkgGqFab2FkblLgDRqh6knUFrtxaFMCjUilLCRLZxMjKkEPZGyMuDnqqF7Y6eTS1OZ10Q8dgt5ENdrEaEsYEXQkybIGqueHE9zScNnHKkdhFlDwNYzeWYPaVD25Vgsgqqv+fvY7RvPYJAklQTe4Vqc1k0kwn10cG0OEVG9KVHX0R4mqzcd6fniGEbCjSJ1ZY7usad9k15AbXK5HFt2+3kTG0GZLZJuZQxUfupk3hG42i8iwTZNa/YrAaMI8KFF7VqG+U0Up9I93RZ7dwY0TEfmXJ0X+wyoaZM0xTHacoA3E9jy2JmJLzDpbOraC/V1CQj7t0QZtaaPz86k08iLm2G/ruOv22njtn7dF/uY6aqhE0EXlj1dEPpVH28r8ANZ4T6K+WkZp9M/3RF7YhX4hIvJ7iyL/6TQSZF3emFmEWa+upPPZZGGjhYt7mS0zbzSZBcRhq91qPUTM0KGRqSqRS2OzyLj3hTwqdJfYODfNRPN2l0Ge03FRpVq8Rt/fEvnza/ChChtUfH0JzUlW0tBj+0VPor5YEnmlIvLSHmq2ffaU+r1Fkf98GrVSNi/2LMJjiU2JLWvW2ERBmw/vUZpWmKamTXLVEAiM9pB6HbS/qy7aIvNkCou2Hz/jor7oBLe7WiExo9cyCp/9X/9pW+QvriF82gpRAPr7iyIPsb5qIQ6i/ngHDdDeYDcMi7rHv14U+Y+n8UOzBm1PE7IjdjUAOa80RN6sYgRZa6CpxrCO6ZthKQWi3sumYmczSIubT0ECHzc16uktkb+6gT4QVR//+XcW0Z/qbGawrtU97SF19rd4c3M2EmNn2dEfGongr1ehQz2zLfL8Lvq6Xm92InDjgEb53qmK/Kwk8twO9P+3KtDpjhtSFjqBu1RxfGMmnNjcU62QQx6JOsdOwwupGdZLmba47Yn8ek/kuxsi/7AJwr5SQeHi3gg5k4ehyobHb1ZF/t+OyNPbIt/fRFucElsjHSekOfuKBofG4p7ydV4mjpUujYOcPXvVpgGNpA8b0L2/swFybHu4aANes9igxW8vlUW+uwnpfpnD5LB5m9METbJ3yRltZ6nRqUHQk6gBh39lvmvBvZKZwdBpIBjurzQgOZ/eEnm7Ah+nejOOAg1WT7xZEfnBtshPd2HU1YPRi+GmAY4lkmE7e4sCQye4624Z9UZvohqTGYhRZpCfodCpzwra6010H/zJrsjFascvOqieFDdCPkRVziJzqS7yC3ZKvNECkWeZsKqjZuj496l6NeiLHgQ9OedTT9UEAnPonxWJ6rMK8moTTbt+tIOJMIYZesYJTdr4uCHyQknk12V4I+pD6HLTBEeHfkYxfSPeP+j/6knUgCJan+iMjdlJcmwtOAtohiIf13HjteGwRtimDSGjYjdaIu/VRF7Zg1uwNE1P1IBIGeF21VHbEjVOopo6atSCmwU0AvTofLXMnlmMt08rmiH05o/r7OZcQeBhVuEIgx6qo/KetOLMnlJjSod+U6L2/NCUwA9xg9fZxv1KA++nmKMivM5eiET1yw2MAmtNJLc0Br2zU4AUJ1JzVUc1pqqPb+jXUBjfz5KO6odwPV1tilznbB46GcYsQDPiL3MmxPUW1IJZg+qoGcM9VVcdNXrwIehN1MjQ71qduUenlachl2YIY+S9GtLuhtGJjhJqdGy2ENa9WGVYdwhJdJTQ5mkpIzKlOROD/o+eRPW76ajqR40ePGVoBpjA6zVazwGja7OCkNd/o4UI2q/22IreMG5nAZpkr90e1Y8aawhVL1bIgxxjJuFpFakho2m1AL7TjxowTmbo3u5DPYDqcqUJb8CON3y58VHApp7qGMaUx9Ft0L9xU6Iq6y0eOKX8bEOH/YrPWeaaWJ9VBEbbz40WdNVpda91g/JGSRYaQaTYIlMhh/1QmOAbmUJ8GhEYZSQ19nOdYZ6KGJGrG0xH3GKu7C6XMkvZm5RUg+p+44TFiUc0z1ZHafUkDYLeRDUk6ixIU+H51oPjk9ShqNJddbGK6NU1egM+qndm867602lsmcKt7fKM0+oPKaHCkE9G9IApRMihchj3xzSjxgTvd2oIBPyKBta+pYwI3MsVGJEXqyDyDfYNU99lOIQ0GxaWjsZ8H4Yinto+A55ET/51k6jTLlVDrX0yzv04oMWI1Yd1kZ+XRH7AhOsf7SKX9h+3kLr4f9ZFvr0u8neb2P+LPZGLNei21SESQUZFm6jjGPpDsj0w9B1Hf2zamUqCHieSCofLCpOuL9ZQw/ZaBctLZRDyhZLIcyWR53ZFnt9BQeYv9rD/9Qr8se9xzqdJqQk6EreNKSWqSvYBJOtBovJG6xChCvGBA6cUM/I8jQUh1Z49TpvzJlMbv0tp+7/XQeSrDRB/Ej5ZczRWTqkQHOTnD/DPVHj1i2wS9qihT6BvWPdVHzdm10OMXK3g42RM9YuQ965hhJDfrUGq/ryExOxf7qEU5oMa9N7SCF2gD4NpSCnaZFUbyNh3Mxwgqs/IgSq81pTpqAF9pWXWPl1j/f2lOoa2WY6NjxNN+mMv1VBh/DzzXj+oj+9aRXVURTiErtqVqGZs3CTqpBCVmmVOxrbR6rhmPqxDWvymCgmhOptau3tdLr7F1LM0o2zulC2pMapYmpz9UR1l8KrDvlVF9GuPuQSD6I39wNRRFQHvrzlqH4YDdf17dCL/zQ3oNiIoQfnDZZGvL6Mt+rjRYgFYmUP6DTaF2GjB4V2hM19zGz0meXu0bBssSzaTjm0ahXMOJkKYJpeb3oA6+11pTL/fmzgIVPAUUyILjsgdWdTbX8iJfHIOnVysmFS9bUbTfrgDr8QGW/s8OS/yR8sijxU780AchgNE1YjH/7wh8vebOOF5R+QbyyJfWxovUQO6l7R30WYLVur7dVSQflyH3lWhDjrIjXSZbb6URjsZbakzDdD/UfaRJWX2uho3llIi57PoXvKVE5giUuPzo0JHwR9ui3zLIOrn50W+sQSizjFf9TAcIOompdbfrqN3kG2hlv/rSyDqqTEStcQ2OherGJK2PXQUbDcrI4HNfq39wBGR2zMiZ7MiF7Ii9+enR+dWhAJ1ZYMuqLcqGJLHjRyb7t6bE/nKyU5fqLkYuozsenjwntmG10GJ+tki+PRYEZJdZ0+5GQ4QVdsnfmcDDRIcCz2SvrYk8gdjIqp6GdYYz/4pu4jsMuF5EFJ2Q9rCfPK6fHY+esR4oVdYPSoht9mUXGoD7PkYKl8oifzzFh7WUf97v7gjI/LbJ0R+qyByXx4jz6jenhKTg57ZguBbJ1GfKIJLjxXwkGT7eCgOcNmj7qcXVC23cQ6TVxpwn/xoR+R7m6gYLfnQU+MY/RwLF/6OLJqSHQVCgSH46zJ8mU9vw1V0pQGCeiEky5IxnfiqC3VlEtj10WfsZXoCNlvIxh8FbUN8XFa/WU5sWv3j4uq1JhpD/KyE0N/bVQ7xMRHVEpETjsjZATvIxY31FqJEL+6BrK9W8N/LnBpJJ/I4lRY5o3OKjuuiR1D2oXK8UUUJzA4zskbBPu4Y/yM0Ioj93t+DRKXPTa1OtY7jvl5eKPJ+reOEfrkM6aJusThhMYFX2ztOGjpKXW2gIvatCqTWJbrX1pr7pZdltLCMSqNxIaD/fLuF+/J+rbuLb1AoWU0ERn/Zfm939DskEJGWES/XoT/u6+WFuFkvlODPe6UMi37Eh7gnHPoq47BmB4XPLoJrLN1+m92836uJ/KaG7WaVqaV9VscgIHpBAyk7HqJW79dEyiOWapsS1UTIazKIC+4AUb1ApGGEINs/Fv21IREwE+hqA26n31ShD40bwRFmVWl9+/msyFMLMCLuzcF/+dAc2sybuqgpccadOBJFk+HXzdbofbnaQi4i6No66gDBhQNENSNT7RBqjMN/QP/aR3W4oV5jX9JxQy3uoyCqdgy5O4c5EJ5aAEEfngNp78ygp5ci5LkOMjTGhWYAl9IGfbmjYF9Ck/FHglDEH7B26oB76jWmhf20hArIYkpkNY2W6L+zCAV/GKiUqAYiv+Bw/3oFCvy44VoijxdFfqsIH+Fp92gywnY5gcUOl6U0pGmOJcUthjnfZYL0pRrcO6MSZhA4bDZyd07km8sin1/AQzTIxBAKjbT905bIX1/v+IUfmhP50gk8pOey/Rm4B4j6Mg2bF/m6kMKN/d1FSINhierzJmx7It9aRwPbCitGxw1bQNAVWtNnM52K2jhGiX4R8IEN+ap+VH2vDv9rnBJox2eP2ugXjRmW4AH6/SVEkVbd4e671q793y2RvzKI+qk8fLaPFaEOneiDqBMTKiFPfI9peeUY3B/9ImQ5xy5nyt7SpYVhblLLNlMRSz6yv0p6PuzmotK2zGZuR0FS4fVSD8BGC6mUo8CKQW2cGFGDEH9410gqGfH/D4QWf7/MeaN2IsPwNCx7Roz/qPRpRZMNMK41RidqHDgw9L9ahp76QgkJt8WUyOk0hv5RdNSaD93rvTqSFH5aih4xPjiC4f5sBtMOncuOP4hxM3i0eG1t6KFuwQD+1I/rKOTT7tPqgZkkig4yqj49J/LkAvT7QVHn5HJRHfXBOZEvLWDoP9fn0H+AqG9UkN/5/K7IL0s44VMujKl/NQJRyz58pW9WMMnay+XoEeODa4l8pog49vmsyD15bD8KkgrTEBuBSEpn6eZwG1KXf72C6/9GZfLGlCJnwzZ5cK7jqRgUNY5gT3MGPyXqw3MiX6aOejbTnzF1YOhPcSIv/axewFD693l1g0f/3BpDhpOEbSGd7a4s4v23Z7DcNqFl1cWMMr6gzdClusi7bClZ8WHYLadx0/T8ltPIA1aJO2l4zAcujWBLhBwporSxNKAxgDF7gKiOhhrpqFWLNPpjg8IPkbK31hg94jEobCYKn3LjSV8bFD7Dk6+VkZD+36/DCv77TZGflEDcqkEGnU0kd0QhX+E9r7Embdi8WBVwQSgSGoy0qPKkBkh2OkhUDpUaagwZ0RlFmgpvVonul0m4pKJIs7PcUUkoEehr15qIyl3lTNR7nELIjEDtkzhHdL7DkKkbugk5O3aJaj4R0QMHREidZZc3ZtLQp3vU/zEM1F+atVEtMZ9COUzBgQ2QjUhOveZHcJnasKmnznH6nWEQHjb0D2AndCcqv0QoSYMePzgIAnYbrkyoxMJESB9uia1tJg29MafSiMo8WoAV/UAec6GeTKFuKGBBYyOAKlCfUO19N6Q4XdO8Az4Mg7BH/f6+7LDIvl7oTlRKVDElavTXBkTI4X+YiQZGRcBEmDUmKU8aNlWqCznMrvzNZZE/OwUvis60nLE7IeZdZsbvjGny4H7gGETtp1SkG1SiRvmzb+jvk6kH3FPrTeiR39qA/8sxaqZGKUW52hD5L2vI4J80UdMWwnafmhO5MydyX+5gRs9RQ6X+HjPtf7GHNMCj8qMupiD5HyuKPFxAndmg2PWQhfXMzsGaqa+xCrXfB+EAUTWc97frIv+4Cf3KrEIdlqhrDZH/uibyvS1I1kmS1Ra4e5bTcBXd5naMhGkgq6pX1QA391oTrqsddjE5Ap7KaRe+zieKeLg/kYkecTh2WYX6TKQK9XPz4NNjBUjtoapQd1mu+z+0XJqunW8sQ6oOWy59rSnyl9cgpWvB6LmOg0LLpZfT0BXbSSlTwFQ1nPZ8CIqSD7dQXDVjg8Dig30uiz4On59HltcwtWY77Pr9wx2Rb8dd11/24YT+6+sif7eBC6UNKL4xQgOK9Saeqme3Owkak4IlUF9OpmC83J3FxdFJEI4aPo2OHc7busZK4BJrqSZJVvVOXMiJ/MkKiJrhJCODYruF5iHPbrMBBe/5Uwsif7wCidqvy/AAUWs+JN5fXkc6XiCYDeWPVkDWYYm61UK61wsltOO5OoFkaYWjdf0Z5Fl+MgeiHpVE9WjdO2wtpIbmLon6PstUruvUQ9EvGCMyFtxn9+dh8I1SWr7VwgP3LDulbJKoX1gQ+XcrkKjpPsuDDhBV5wH6b9egp3ohEme/SaKeHpKoJU/kxRKqTV8uo2Z9UnAt6EWPz4vc7iLeb9O/eRRYZweYhRQefCVrg/m5b1VFflUSebsGY2SSAZKCg3LtB+ZgkzxSiB7RP7aYW/vsDtpDKVF/e0HkT06BqE6f9+GAQO/qnhrRhyr0yy27iGX3k4QQJxwLMfcH50TuzUP/Ops9GJMf13LGxQM+n8K5NJhAXg9EshYs7DMupP2Dc/BK3JZBb6hhne3DwKKTf5XnmzvAjsHQizsWpegg7qkDp6I+P1ujBurwj/7agEgx8eJcBjX2qQGiEqPCEvyemWwzSXiCYMdrFRip396AJfzjHcT6363tn2ZI0/9SE/RK2Bx5ltIoOnwg31/63c0QqqFIPdsyIlJtfvWJA0Q1C7L0i8IYFHr1x666uAA5GjOTguqD/QwzcUMDHR/W0XjiZyXk/b5R7dT1dy2XHkDijArHQmudpbTIXTmRO7MI746CaGTKIuHULahLPzhAVIWKZzEiC6NEpyxV1B30NnpyHsZNvyc6KgJKtgmqe22kLAzxp11IqruzWD+bASlWGZlSmJJoZAnRJwqOyD05GFGqpowqSKJD/ygPYG+iKvOt7nrGoLCp++oFeYKGTWoC1aAhS1G0p9akkWLm1moa0bH78tDVz2dB1BUX1yZk5r/H/rCTmobIEgiQe3Ii9+dwngWnP//mYdhHVKozgySjKHqeiopp4Q/FdX9tS2QxjZukasC4G4EFISzQj+pwQh8VVP97Yl7kqydRcXDGRSaVYyEIssPGxWsMZY87iSZtYYhfoaF7O8u340AYGf5Vog4TEex5SqqrSg/LbVg4FsKwF/K4KIvUV8eJQHDTL9VA2KPCKRdx8y+dQNTnyQWEJnWYbQQIX681MUPfjRi6lRwGl7bDaRdO/vPZ+JLLw0gus01D3RmCqAf8qIo/px9V481/uiLyp6fgNokDzaDTh+ntKnyGWh0atxCxpeNyOZeFjqgG4zRARyydbFj7UmnIcRwoOhjNzmfhDruQg+901aUhPSiTumCNbZue58RttQAqxhcWkJTy0Fz0E73Rk6h/cQ0ZL1tMdP6zUyL/PkaiBix1qAf4I8/vQop8UB+PHqk6d57JwCm6quK4IaNCY/01Zk8N2lF7GGjg4zNFkS8uQAVJGf7zOHC1garjn+yK/GAbwulECiHUP1iCvt4vegoVm0aAHuCRWNGyiWFhGT2ZzmcROXq00FHm3ZglXkhCNNlmpsx26zpnwVEuJTblqI0xtq82x4kURpSHC2hzdF8eSUfDDMeHwdcJQTjbis2k/PQQv9WTCzbdCKqnNlno1Qjiu5Aui9juySGl7HPzSCQ+y+52cV+8kO0fyz7i6tEGEEe57HpI8xtXWp8SdSkFg+7xosgXTqB0+cSYiOqFGDE1C8wWeDdce3B/dm+i0iJUvVqnLqzFJVHp+rLpuilyKpkniiJfPIFa8kcL6BeVY+17XFCdMJiSRc8nhst6AKmIMPjKSTQ+uycHQ9bltdX7ESd8JoMrUR2OoBmDV/2i5/3XMJ4pUSs+ul8E0YNHhKoZZ1yRTxdEnpoHUR8xiBqn7nQrQYl6IQ+iaocSte7HeVn3Df0kaob5p7FJVId/Up2zpkTtbn4ND1OyzrP+/jz1qC+eQOe3pxZA4jsMl9YwjuPjCiXkYgqq0/0c3p+aF/kXJ2E03ZuHMXwyJZJzOhGiuCWpQu2aJqOaDltaZoawP3oeH5WoDVqktQlYpFkbF/OBPIrh/nAZE2h9+QRcKGcyUBUmmbQxzbCo7xccuODuyUGF+t2TSNX7t8sinyuiBGfOuclNjxleCAOxaUjULCOUg0rUnu6p72yIPL0Fl9H1JqTbo1weZq3LuBEwpFil2nGjhQkpbjQ7LRwrtJbrHGa0GM5MhjgusNTIpQRN20hqn2OvgAWHlQzsBbuS7vhLj6L05td7yBJ7o4IWRitpGG+PF0UeYd+pftGTqN/dgO/rwzqSX+9nFedniljmR0wB6weateWzRaUSsc6aqzL7nO7yddtjW0vWw8dh9E0TbLp20jRKipSgKy7Cs4upDoEzlFwpwx1kTdhv/GIJDdJ0FpjTGXDnsQLybgfxyfck6vc20R7y/Tqk2F05DCmfnUdkYdLJzybUQV4PEM1Sd1PJM/yRPO44QdWxNBvZ5R3k+C6mcD+KR3hPuuGFXZF/2MJcDVcakKCfm0fzDc3S6hc9ifr9Tcyk914dyRy3s6/oFxZEvnoCw8tRQc9Yp4DxjMXnImNy9xw1bEpH28ix1fqv1ASlZT94jrVS79agtp3PIgr2SAFCbyUOoj69hSTfd2oQ20ucpOFLCyL/ZgnvEyS4GZ7dFvlf6xiVdzzkE3z5BIh6Z3YwDvU0ADW8qcmz9QA/VvGP35CaYDxo0aVZJWdsuqeGCY/3PD7DJOcMh5oG9cFKwEz5ETP+ExxfqKO/zqpaTQDXyNQw7qmeRM1yAtk8oxfNAEZLjbP6jduXmmB2oVyp0IeqNoNDI9AdonbtpkSdZ+9OizHpFssjWsfUT5kgHjRDNCiuRZJsbCalpOMc+nOMDuXt/b43n6lycU1RnuD4oZc905aoQyQZ9Tw+OvQrAqObSmJUJegGbbBRoT9boUkpw8zyfVOiLjD5w/xOrVEfV95kgtmHGt7RBKb20B8ZpfvBoUTNM8tGERh6akLUBN1gDv2+kbSd0jS/OHVUlzMK59hyUDOV/FCkQWsuGfoTdENDiUqOpBjuzXM+gFScRFWHf46EdUnUdo7hBNL9Eswm6uz1WmWSvcveAQXySPNgB0FPoioyav078H21QqbWJRI1QQ+0go57KgiRpL3qInlm2O4rh34s76AgrOAgD7LJic2iFl2CBIoGp0qqMWG6YKM8e4Ut6YfBoUTN2chyKVCi1gJkwmx5eHISJIiiyUrfOiVqIYWOMKsu/KjDoC+iLqaQRe6QqBst5H8eYRunBFMMVQ+1tH7ORpL0cnqMQ3/ORjpWgdGEmo9SkK1Wp7FAkpySQNiSaL2Jiosag0IWW1qedtEcb3xDP7PIVaJWdehvdYq2EiQQEnWjBdeU1q6ZRF0ap0RV10KWEtUL4XbY8xEm22MbmgQJNlto7rbeAifSFgScJjaN0mXjUKKmWYabZdhL/ahl9m1KrP8Eih0PxaBbLfhP03T0Z4ZIQoni0M9nmO6nT0aKU81UfZHrVAES6//WRsDcj42WyKU6JGoQdnzwhUgYfhgcSlQd+ufsDlEttki83sRsbM0hxXmC44GAKuGGB6JuUKJmbBSBqmtzFBxKVC3RPZGGL2w5jfe1AJ2R15sJUW91aLZUmR0JtSlanhGpk+TMKO2DDiWqxTzC5RRKXG/jTHNlH2XUa01Y/wluXVR9GFJ7bKLnUXAVHNTyq3AbBYcTlU/BqovuFndlcQJBCKv/CttfX2nAx5rg1sOWh9r9zRZImrGQdH86LXI+g9Dp2ImqWOVECRfynXY+ZR+T775ZgVuinBD1lsR6C5O7rVM3zTuYav72jMidOaxPjKg6R9TJFH54IQW1YKslcrGGCSOuMiqRqALHH36ICOXFKqTppTpG2CAER+7OgahFZ7jy6Cj6Jqqi6GA+01VO4rXtYY7Pl8voqnK9CYU6wfGGF4Kcz+2KvFQWeaeKod8XJDE9XEAHcXdEgioGJupSGrqqNrlybeQeftQQeaWMk75YxYwYO5xRReurEufA7EFzOfwQhtJ2S+SDGu71y1w+rMOQytkwnu7Mon3P6gix/SiGIupDbBt4R7aTDLvj4eR/WuITVoPrquojOSHB7CLkUF+h7/y1isizOyIv7eE+6yRzKy7mrLo7i/zTBU5iEQd6Nkk7DJdqIj/fw6Rmb1ZENqmbLqZxondzzvlV6rML7BGQY4QrO/AjkmASCNkFx2eovOpDldtjD9q1Job5t2nlb3ud+/l4Ee3rH8hjxHVjvMdDE7Xs40l6uSzyzA6Iq8p0gfUxWsm66sL/+okM2pqfcbEtwfRB23hWfKhvl5silxsilxlx2mQ/2j3mm7ZC3M8zLqbO/Nw8Rt35GKJRJoYmquJiVeQnJVh+H/PP1Nggyw/xVC2zZeVZkvQ2TvfosNArxdc0+xKZ29rrjJLZE+6aPOsIKCHN3rGe0Uu2ZfRp8FkKr/M1XG2gNf6VBsiqc2E5vE9F5oDcmYV//bEi1EJzSve4MDJRdzgcXK5jOLhUwxyYN0jYIIRkzVPKzjn4g5o6qPvmbHRMbqsIRgVs3hbJsoIxPUSDrVsZLYY0a6xhqnLRuQ/2fNQ3VXU/h3od7st+p+FZg4ZVnnMF3J2DnXJXFmRdSUOaxqWXmhiZqIrNFqTrOzVYgZcbnXzVVogLph2iLUrHPIladFBXs+BAxy2QuCa5lbzaY0Clq9mBub0e2ddejAuoq+Y13bfONz33m6+RG6NX1Lywur5vm/HmZsea3xcYeqRKy/b7iI4ZGPMeVEjGsi9SpsSscMKOHRKywqXKIV3412yWz7s27sNyGv34H8iL3JOH4XT7AP34h0FsRNV++jv88xvUba41oYRvtjoXQ2dz0+E8bWHCWNfopJEyFn3vchIFJWyWvTZdftbldv0elcDa5tAktaVqxE3WbYaP2/uMJfpQWFZncgwlUajkMroftsmmpOqyXbeZr0q+Jq+dDtEN9lhohpB4Tb6vcdFjdHj3IsO9frYVinh0JXr8j66OeBQmp9KwMVSKnkghSqkTIY8TsRFVoTrQHpNWLnP6n+st+OD2+FRXOaObeQH1s3rDokixG1yOEjZP9UFJmzWkbk6JzM84BlntHhJYSan7zOPbBI98ztHPWQeJpe99g5Aq+fYd22Vf9Lt8AZHqJF6N84zWaNSoXaAStN2flKTuBZtJR2oL6OIyO18N45OcaO0cSXpXLvpN40XsRNWhp8nhRUmpE/7q09xgx7ddDwbYOmtttlo4vt6lHsviRTWlbNTg0m3tffyMSktTKkpkm/6GxZX2sVzft7/LPlFJyRVdD3ldzP3631QKR/cdOL6bUSQiPjuA60Ou+/Q6qwrQDRaLN9V9uJzGskKrvcgmeWl2zSnQtpjn8ZNE7ETtF34ItWCjBan7cR0G2NVmZxoec1jUm6XrN9tn3lgx9gn3dXudNkQfCIk8VOZDYhnqTLd9vd7bAtItpzGsn81Can6CFaNa1TENODKiBpyRr25YlzW1RrldpYKqCE1tIqx6Gl9V72rvN9Y9w5AzdT2VNAEnW5sWqNqho4Gu2xwtdDQx9XKXQ3V7u+rnxrQ+OgKljfUUJeUcm+EVWDZS1GoOfn4acGREvRlUZ1V9a99iELmmOhr1NXOJGhNRPdiLDKPt4dGQvsamgd5H7+3N3lvGBtWPU5xNO6ripGkkqkGZY6RP9fGcBTee6u5qbGbUuNR1g+CqOlnRk5wyTCVRTcl3gGA9lgP7DSJ64X6XTmgaLYbxYkrYffsMd8++98Z6GDG22sabYXTpe5WQ+7Yb23QYN9/vk7QRqdhejDlSu+npDo/Rdf1OVQWmGVNJ1ElC/7zHSFqb3BGi6/t92/QztModc/r4iCQ0t5mLQwmaIllVh0ywHwlR+RpEpG7QTepGX83jTInaRUo6hrSNSlVTikpC1K645YmaYDZgRzckSDCNSIiaYCaQEDXBTCAhaoKZwP8HDg79wGsfNHIAAAAASUVORK5CYII=;" vertex="1" parent="1">
          <mxGeometry x="323" y="-55" width="42.77" height="40" as="geometry" />
        </mxCell>
        <mxCell id="7TJYjL8CNuQm4D0-0RJm-25" value="" style="shape=image;verticalLabelPosition=bottom;labelBackgroundColor=default;verticalAlign=top;aspect=fixed;imageAspect=0;image=data:image/png,iVBORw0KGgoAAAANSUhEUgAAAKoAAACfCAYAAABpwUKcAAAAAXNSR0IArs4c6QAAAARnQU1BAACxjwv8YQUAAAAJcEhZcwAADsMAAA7DAcdvqGQAACsgSURBVHhe7X35kyPned7b3UDjGGBmd46dXXK1XJLLQxRJkaZISaRkKVIcO44l2XJiO1WpJP9XKhU7PiqHI8myZcW0KEYiJUrUwfvQklxeuzu7OzcGN/rID8/zAt/0ADs4Ghhgtp+qLjS6G0Cj++n3e+/PCsMwlFsYQSgSiogfcjHWPWM90P3GMV4oEgg+b4mIIyK2JZKyRBwL7x1dj26L7LNFxLKiZ5dAYU0TUUOSJjAIFBhk0HV9VQK11yPbzM+GXBfjvflbUZL6AiIeIKoeIyJeECEqCdcmqklIm+smQY1128J32Pwui+/bC7/b7vKqD0jXbTd5lRl6OKaKqEqsViDSpMRqcfHCzvZmgG2NAOvNEEsj6Gxr8DivG+FMSWk8FPowdFs3iR1dFwGb2iQziNVtXY9RKarbu0lb21hPWyKu3Xl1LZEMX11jX8bGekaPNT/H9VmT4hMnqv5aIB1S1Ukyk3z6vmmQVQnY/hwX/Y56IFLzsb/O7/CkQ3SVgDpsK1EnegFuAiVpVCKnqE6kST7XEslyPUvi6ft9+5wOmTOR1yjhzYcgRek8TTgSogYCcl1tiFxrilxtYr3ki+z4HUJFh3XzfTfpuG+d7/X3otJRCTrRP38IukpaQyKbQ7opeU2pq8d0e28eN+eIFByRxZTISlpkOS1yyhVZTIvMOyDzNCF2opoSUyWZSR7dXvdFLtVFPqrj9f2ayI4nsunhmF4wb2TX4bSLbmcKh6igOPA+suHA/pu8j17IQ99HNhzYH1lXlcN84Mz3vdSWbig4IgspkVNpkdtdkTOuyNmsyGlX5GRKJO/gv5kEV8mu65NE7ERVKVf1RdZbIhstkZ2WyJYnUvFFagH2VQMQs+RBkpY8DOv1oPfFdYS6lw5j5hAWHdI4VLaHsiiRDR3NJPY+okf0TnOf+T2WQRxTh923rRuhzH1ddGB9H3D08KgKeVSDTH1933qA61wLOvcjCh3q8zak65wtUkjhNe9AfchxX8ERWXAgdZfSIPLJdPQbx4vYiOpTj6zzAm21RD6si3zM4f1aU2SXxKwGWBRKGB2ilAg63Fk8xuXFy/Ni6gXN2CI5C/uyHLZy1NvUeNDvsvldNofF9rBq/laE2Ac+w3WH561QQinZAoN47XXDM6Gk3XeMQV5T1VFjshFiqfkdHb3Ba26ul30sLX5Ov9v8Xt3mGw+J3g/X7hD0ZEpkxRW5PSNyNgPpe3umo9uq/jxOxEbUkgdd83ID+uaVpsiNJghbpRRtUArojVEJmLdFco5IwYZ+lHM6RDPXs5SmabszDLWHImN4Ml9VpzOlnykxxXgvkWPMfd2ON99LRDLqRTW3td/32CY9Pm8SzPTtmmqVR8mp29RDooalLjUanBWuV0ho3af3KAw7BMxauA9zJO4KVYVPZETOZKA+rLo84TFhaKLqp3waRjdaIm9XRd6qiLxbE/mgAfLWgv3SzDFcJAUHJJ1PYVlMiaxwfT6F/fOOSDEFEmcdPMG2MiPBoahR3drzRcpUs/Z8ql183WpxP5cKiesZQQ19WByLEjYt8mBB5N6cyAUuqS6jTFwYmqg6fHxYF3mljNerTZHrTZFtDvGNEOScd2BNnqKOo7pOVL/MUrqqpFVCm76/cV2I4wrT/6yqg7r/1CaoG/quqTpstETWmyIbnshmC9saAe7PHHXWxZTI/Xksd2ahGoxDDRiaqOrHfHFP5DsbIu9U8VS2wv2WYsHBMHEuI3JPXuSOrMh5/qEE0wc11HY9kQ/qIpdqIu83RN6vg7TbXsdAU2F1f17kk3mRJxdEHivAdohboAxN1MsNkdfLIi+VRX65h6G/GeAkV6nDnFLfXIpPXxoukXkHQ3uC6YMaV41AZJeqgaoHWx48Odfp+15vYttSCiPk4/Min56DIDqXjdeFNTRRXy6LfG9T5LUyDKcaTcZVV+SBvMiDc3jSzmXo9qBfLsZzTzABqHHnhSDstZbImxWoe+/UIHUVjxZEPjUn8pmiyOPFeIMGAxN1oyWy1hB5tSLyox2caMmH/+1cVuSenMh9eZG7c5CiCw71TJ50QtTZgrIjEKh6ZfrHrzREXqvAgFb342mOop+dF/nCAgyuk6l4dNaBifqbqsiv9kRer+B108P2cxmc3GNFkPW2RAc91mgEIi+WILBeKmOEVTw5L/LVExBWd+fg2hoVA3N9z0fY81oTVmPeFrnNhcV3IQdH8FwMJ5ZguuFYuNcPz8FFdTYD28MSeAjeqolcbsKbEAcGJmrJQ2z+SgNP1ZwDaXovXRTnsyLFhKjHHo5A1XtiHnrp+azIiRQIdaPVcVk2Ndw1Ivom6gYd+pfqeGIajFyccUUeLYo8NAerfhpTxBLED4vRvwxH1IfnYEg7FgzrjZbIWlPkowbWvREla99Evd4UebUMf+m2B+dxxoIu+pmiyMMFPFEJbj2cdkUeKeDVsWB07XhQDy/VwJ3WiJL1UKKG9KtttSBN16h3pG2RBVp1BSaHHPplCY4l5hz4y1cYfSyQCGUfZN32umdwDYJDuaVx3o0WpOlVPh0Zu+PEz7IeKBnxb03kHZD0jAujSnXVig8f++Ykhv4WM2w0gaHig7w5W2Q1jahEmulycYbMEswOHOZinHLhjlpxYaeorrrrMZWQyzA4nKghRHjVhwHlMVKRtfAULZKoCRIspkXuZKDHZj7Irgfu+EMSVHEoURshpGk1gHTV38tS3C+m44k8JJhdaGh8MQV/+goz47wQfvcqKw1GwaEUazKXMVoikrUh4hfTiURNAJxIwae+nIYNE1JPrbPCYBQcStR6gAwZFd8plnwUHZxYwYGOkiCBy7TOAsuEUhakasWHClD2h7f++yLqDstJAhaFFZmmV3DgSz30SxLcMrC03ooJ8CLgznoLxviw1v+hHKsFyPAu+9AzcnRLnUxhPW0nkagEgHp+VLIqUcs+Qu7rzFkeBocStRogQVbFtiZGq1sqQYIo0ixV0SBQ2Uc18vXmGIla9xFZqFBHzdrI5l5IxZvBneD4wKV6mLMhYSs+IpqbreGzqQ4lai3AD1ToYshy6F+IKSE2wfFDjsKswNqpio8S+vUW/PLDoCfVAjr366ydqTEilbFh7Rd5EgkSRJG1OzkgGqFab2FkblLgDRqh6knUFrtxaFMCjUilLCRLZxMjKkEPZGyMuDnqqF7Y6eTS1OZ10Q8dgt5ENdrEaEsYEXQkybIGqueHE9zScNnHKkdhFlDwNYzeWYPaVD25Vgsgqqv+fvY7RvPYJAklQTe4Vqc1k0kwn10cG0OEVG9KVHX0R4mqzcd6fniGEbCjSJ1ZY7usad9k15AbXK5HFt2+3kTG0GZLZJuZQxUfupk3hG42i8iwTZNa/YrAaMI8KFF7VqG+U0Up9I93RZ7dwY0TEfmXJ0X+wyoaZM0xTHacoA3E9jy2JmJLzDpbOraC/V1CQj7t0QZtaaPz86k08iLm2G/ruOv22njtn7dF/uY6aqhE0EXlj1dEPpVH28r8ANZ4T6K+WkZp9M/3RF7YhX4hIvJ7iyL/6TQSZF3emFmEWa+upPPZZGGjhYt7mS0zbzSZBcRhq91qPUTM0KGRqSqRS2OzyLj3hTwqdJfYODfNRPN2l0Ge03FRpVq8Rt/fEvnza/ChChtUfH0JzUlW0tBj+0VPor5YEnmlIvLSHmq2ffaU+r1Fkf98GrVSNi/2LMJjiU2JLWvW2ERBmw/vUZpWmKamTXLVEAiM9pB6HbS/qy7aIvNkCou2Hz/jor7oBLe7WiExo9cyCp/9X/9pW+QvriF82gpRAPr7iyIPsb5qIQ6i/ngHDdDeYDcMi7rHv14U+Y+n8UOzBm1PE7IjdjUAOa80RN6sYgRZa6CpxrCO6ZthKQWi3sumYmczSIubT0ECHzc16uktkb+6gT4QVR//+XcW0Z/qbGawrtU97SF19rd4c3M2EmNn2dEfGongr1ehQz2zLfL8Lvq6Xm92InDjgEb53qmK/Kwk8twO9P+3KtDpjhtSFjqBu1RxfGMmnNjcU62QQx6JOsdOwwupGdZLmba47Yn8ek/kuxsi/7AJwr5SQeHi3gg5k4ehyobHb1ZF/t+OyNPbIt/fRFucElsjHSekOfuKBofG4p7ydV4mjpUujYOcPXvVpgGNpA8b0L2/swFybHu4aANes9igxW8vlUW+uwnpfpnD5LB5m9METbJ3yRltZ6nRqUHQk6gBh39lvmvBvZKZwdBpIBjurzQgOZ/eEnm7Ah+nejOOAg1WT7xZEfnBtshPd2HU1YPRi+GmAY4lkmE7e4sCQye4624Z9UZvohqTGYhRZpCfodCpzwra6010H/zJrsjFascvOqieFDdCPkRVziJzqS7yC3ZKvNECkWeZsKqjZuj496l6NeiLHgQ9OedTT9UEAnPonxWJ6rMK8moTTbt+tIOJMIYZesYJTdr4uCHyQknk12V4I+pD6HLTBEeHfkYxfSPeP+j/6knUgCJan+iMjdlJcmwtOAtohiIf13HjteGwRtimDSGjYjdaIu/VRF7Zg1uwNE1P1IBIGeF21VHbEjVOopo6atSCmwU0AvTofLXMnlmMt08rmiH05o/r7OZcQeBhVuEIgx6qo/KetOLMnlJjSod+U6L2/NCUwA9xg9fZxv1KA++nmKMivM5eiET1yw2MAmtNJLc0Br2zU4AUJ1JzVUc1pqqPb+jXUBjfz5KO6odwPV1tilznbB46GcYsQDPiL3MmxPUW1IJZg+qoGcM9VVcdNXrwIehN1MjQ71qduUenlachl2YIY+S9GtLuhtGJjhJqdGy2ENa9WGVYdwhJdJTQ5mkpIzKlOROD/o+eRPW76ajqR40ePGVoBpjA6zVazwGja7OCkNd/o4UI2q/22IreMG5nAZpkr90e1Y8aawhVL1bIgxxjJuFpFakho2m1AL7TjxowTmbo3u5DPYDqcqUJb8CON3y58VHApp7qGMaUx9Ft0L9xU6Iq6y0eOKX8bEOH/YrPWeaaWJ9VBEbbz40WdNVpda91g/JGSRYaQaTYIlMhh/1QmOAbmUJ8GhEYZSQ19nOdYZ6KGJGrG0xH3GKu7C6XMkvZm5RUg+p+44TFiUc0z1ZHafUkDYLeRDUk6ixIU+H51oPjk9ShqNJddbGK6NU1egM+qndm867602lsmcKt7fKM0+oPKaHCkE9G9IApRMihchj3xzSjxgTvd2oIBPyKBta+pYwI3MsVGJEXqyDyDfYNU99lOIQ0GxaWjsZ8H4Yinto+A55ET/51k6jTLlVDrX0yzv04oMWI1Yd1kZ+XRH7AhOsf7SKX9h+3kLr4f9ZFvr0u8neb2P+LPZGLNei21SESQUZFm6jjGPpDsj0w9B1Hf2zamUqCHieSCofLCpOuL9ZQw/ZaBctLZRDyhZLIcyWR53ZFnt9BQeYv9rD/9Qr8se9xzqdJqQk6EreNKSWqSvYBJOtBovJG6xChCvGBA6cUM/I8jQUh1Z49TpvzJlMbv0tp+7/XQeSrDRB/Ej5ZczRWTqkQHOTnD/DPVHj1i2wS9qihT6BvWPdVHzdm10OMXK3g42RM9YuQ965hhJDfrUGq/ryExOxf7qEU5oMa9N7SCF2gD4NpSCnaZFUbyNh3Mxwgqs/IgSq81pTpqAF9pWXWPl1j/f2lOoa2WY6NjxNN+mMv1VBh/DzzXj+oj+9aRXVURTiErtqVqGZs3CTqpBCVmmVOxrbR6rhmPqxDWvymCgmhOptau3tdLr7F1LM0o2zulC2pMapYmpz9UR1l8KrDvlVF9GuPuQSD6I39wNRRFQHvrzlqH4YDdf17dCL/zQ3oNiIoQfnDZZGvL6Mt+rjRYgFYmUP6DTaF2GjB4V2hM19zGz0meXu0bBssSzaTjm0ahXMOJkKYJpeb3oA6+11pTL/fmzgIVPAUUyILjsgdWdTbX8iJfHIOnVysmFS9bUbTfrgDr8QGW/s8OS/yR8sijxU780AchgNE1YjH/7wh8vebOOF5R+QbyyJfWxovUQO6l7R30WYLVur7dVSQflyH3lWhDjrIjXSZbb6URjsZbakzDdD/UfaRJWX2uho3llIi57PoXvKVE5giUuPzo0JHwR9ui3zLIOrn50W+sQSizjFf9TAcIOompdbfrqN3kG2hlv/rSyDqqTEStcQ2OherGJK2PXQUbDcrI4HNfq39wBGR2zMiZ7MiF7Ii9+enR+dWhAJ1ZYMuqLcqGJLHjRyb7t6bE/nKyU5fqLkYuozsenjwntmG10GJ+tki+PRYEZJdZ0+5GQ4QVdsnfmcDDRIcCz2SvrYk8gdjIqp6GdYYz/4pu4jsMuF5EFJ2Q9rCfPK6fHY+esR4oVdYPSoht9mUXGoD7PkYKl8oifzzFh7WUf97v7gjI/LbJ0R+qyByXx4jz6jenhKTg57ZguBbJ1GfKIJLjxXwkGT7eCgOcNmj7qcXVC23cQ6TVxpwn/xoR+R7m6gYLfnQU+MY/RwLF/6OLJqSHQVCgSH46zJ8mU9vw1V0pQGCeiEky5IxnfiqC3VlEtj10WfsZXoCNlvIxh8FbUN8XFa/WU5sWv3j4uq1JhpD/KyE0N/bVQ7xMRHVEpETjsjZATvIxY31FqJEL+6BrK9W8N/LnBpJJ/I4lRY5o3OKjuuiR1D2oXK8UUUJzA4zskbBPu4Y/yM0Ioj93t+DRKXPTa1OtY7jvl5eKPJ+reOEfrkM6aJusThhMYFX2ztOGjpKXW2gIvatCqTWJbrX1pr7pZdltLCMSqNxIaD/fLuF+/J+rbuLb1AoWU0ERn/Zfm939DskEJGWES/XoT/u6+WFuFkvlODPe6UMi37Eh7gnHPoq47BmB4XPLoJrLN1+m92836uJ/KaG7WaVqaV9VscgIHpBAyk7HqJW79dEyiOWapsS1UTIazKIC+4AUb1ApGGEINs/Fv21IREwE+hqA26n31ShD40bwRFmVWl9+/msyFMLMCLuzcF/+dAc2sybuqgpccadOBJFk+HXzdbofbnaQi4i6No66gDBhQNENSNT7RBqjMN/QP/aR3W4oV5jX9JxQy3uoyCqdgy5O4c5EJ5aAEEfngNp78ygp5ci5LkOMjTGhWYAl9IGfbmjYF9Ck/FHglDEH7B26oB76jWmhf20hArIYkpkNY2W6L+zCAV/GKiUqAYiv+Bw/3oFCvy44VoijxdFfqsIH+Fp92gywnY5gcUOl6U0pGmOJcUthjnfZYL0pRrcO6MSZhA4bDZyd07km8sin1/AQzTIxBAKjbT905bIX1/v+IUfmhP50gk8pOey/Rm4B4j6Mg2bF/m6kMKN/d1FSINhierzJmx7It9aRwPbCitGxw1bQNAVWtNnM52K2jhGiX4R8IEN+ap+VH2vDv9rnBJox2eP2ugXjRmW4AH6/SVEkVbd4e671q793y2RvzKI+qk8fLaPFaEOneiDqBMTKiFPfI9peeUY3B/9ImQ5xy5nyt7SpYVhblLLNlMRSz6yv0p6PuzmotK2zGZuR0FS4fVSD8BGC6mUo8CKQW2cGFGDEH9410gqGfH/D4QWf7/MeaN2IsPwNCx7Roz/qPRpRZMNMK41RidqHDgw9L9ahp76QgkJt8WUyOk0hv5RdNSaD93rvTqSFH5aih4xPjiC4f5sBtMOncuOP4hxM3i0eG1t6KFuwQD+1I/rKOTT7tPqgZkkig4yqj49J/LkAvT7QVHn5HJRHfXBOZEvLWDoP9fn0H+AqG9UkN/5/K7IL0s44VMujKl/NQJRyz58pW9WMMnay+XoEeODa4l8pog49vmsyD15bD8KkgrTEBuBSEpn6eZwG1KXf72C6/9GZfLGlCJnwzZ5cK7jqRgUNY5gT3MGPyXqw3MiX6aOejbTnzF1YOhPcSIv/axewFD693l1g0f/3BpDhpOEbSGd7a4s4v23Z7DcNqFl1cWMMr6gzdClusi7bClZ8WHYLadx0/T8ltPIA1aJO2l4zAcujWBLhBwporSxNKAxgDF7gKiOhhrpqFWLNPpjg8IPkbK31hg94jEobCYKn3LjSV8bFD7Dk6+VkZD+36/DCv77TZGflEDcqkEGnU0kd0QhX+E9r7Embdi8WBVwQSgSGoy0qPKkBkh2OkhUDpUaagwZ0RlFmgpvVonul0m4pKJIs7PcUUkoEehr15qIyl3lTNR7nELIjEDtkzhHdL7DkKkbugk5O3aJaj4R0QMHREidZZc3ZtLQp3vU/zEM1F+atVEtMZ9COUzBgQ2QjUhOveZHcJnasKmnznH6nWEQHjb0D2AndCcqv0QoSYMePzgIAnYbrkyoxMJESB9uia1tJg29MafSiMo8WoAV/UAec6GeTKFuKGBBYyOAKlCfUO19N6Q4XdO8Az4Mg7BH/f6+7LDIvl7oTlRKVDElavTXBkTI4X+YiQZGRcBEmDUmKU8aNlWqCznMrvzNZZE/OwUvis60nLE7IeZdZsbvjGny4H7gGETtp1SkG1SiRvmzb+jvk6kH3FPrTeiR39qA/8sxaqZGKUW52hD5L2vI4J80UdMWwnafmhO5MydyX+5gRs9RQ6X+HjPtf7GHNMCj8qMupiD5HyuKPFxAndmg2PWQhfXMzsGaqa+xCrXfB+EAUTWc97frIv+4Cf3KrEIdlqhrDZH/uibyvS1I1kmS1Ra4e5bTcBXd5naMhGkgq6pX1QA391oTrqsddjE5Ap7KaRe+zieKeLg/kYkecTh2WYX6TKQK9XPz4NNjBUjtoapQd1mu+z+0XJqunW8sQ6oOWy59rSnyl9cgpWvB6LmOg0LLpZfT0BXbSSlTwFQ1nPZ8CIqSD7dQXDVjg8Dig30uiz4On59HltcwtWY77Pr9wx2Rb8dd11/24YT+6+sif7eBC6UNKL4xQgOK9Saeqme3Owkak4IlUF9OpmC83J3FxdFJEI4aPo2OHc7busZK4BJrqSZJVvVOXMiJ/MkKiJrhJCODYruF5iHPbrMBBe/5Uwsif7wCidqvy/AAUWs+JN5fXkc6XiCYDeWPVkDWYYm61UK61wsltOO5OoFkaYWjdf0Z5Fl+MgeiHpVE9WjdO2wtpIbmLon6PstUruvUQ9EvGCMyFtxn9+dh8I1SWr7VwgP3LDulbJKoX1gQ+XcrkKjpPsuDDhBV5wH6b9egp3ohEme/SaKeHpKoJU/kxRKqTV8uo2Z9UnAt6EWPz4vc7iLeb9O/eRRYZweYhRQefCVrg/m5b1VFflUSebsGY2SSAZKCg3LtB+ZgkzxSiB7RP7aYW/vsDtpDKVF/e0HkT06BqE6f9+GAQO/qnhrRhyr0yy27iGX3k4QQJxwLMfcH50TuzUP/Ops9GJMf13LGxQM+n8K5NJhAXg9EshYs7DMupP2Dc/BK3JZBb6hhne3DwKKTf5XnmzvAjsHQizsWpegg7qkDp6I+P1ujBurwj/7agEgx8eJcBjX2qQGiEqPCEvyemWwzSXiCYMdrFRip396AJfzjHcT6363tn2ZI0/9SE/RK2Bx5ltIoOnwg31/63c0QqqFIPdsyIlJtfvWJA0Q1C7L0i8IYFHr1x666uAA5GjOTguqD/QwzcUMDHR/W0XjiZyXk/b5R7dT1dy2XHkDijArHQmudpbTIXTmRO7MI746CaGTKIuHULahLPzhAVIWKZzEiC6NEpyxV1B30NnpyHsZNvyc6KgJKtgmqe22kLAzxp11IqruzWD+bASlWGZlSmJJoZAnRJwqOyD05GFGqpowqSKJD/ygPYG+iKvOt7nrGoLCp++oFeYKGTWoC1aAhS1G0p9akkWLm1moa0bH78tDVz2dB1BUX1yZk5r/H/rCTmobIEgiQe3Ii9+dwngWnP//mYdhHVKozgySjKHqeiopp4Q/FdX9tS2QxjZukasC4G4EFISzQj+pwQh8VVP97Yl7kqydRcXDGRSaVYyEIssPGxWsMZY87iSZtYYhfoaF7O8u340AYGf5Vog4TEex5SqqrSg/LbVg4FsKwF/K4KIvUV8eJQHDTL9VA2KPCKRdx8y+dQNTnyQWEJnWYbQQIX681MUPfjRi6lRwGl7bDaRdO/vPZ+JLLw0gus01D3RmCqAf8qIo/px9V481/uiLyp6fgNokDzaDTh+ntKnyGWh0atxCxpeNyOZeFjqgG4zRARyydbFj7UmnIcRwoOhjNzmfhDruQg+901aUhPSiTumCNbZue58RttQAqxhcWkJTy0Fz0E73Rk6h/cQ0ZL1tMdP6zUyL/PkaiBix1qAf4I8/vQop8UB+PHqk6d57JwCm6quK4IaNCY/01Zk8N2lF7GGjg4zNFkS8uQAVJGf7zOHC1garjn+yK/GAbwulECiHUP1iCvt4vegoVm0aAHuCRWNGyiWFhGT2ZzmcROXq00FHm3ZglXkhCNNlmpsx26zpnwVEuJTblqI0xtq82x4kURpSHC2hzdF8eSUfDDMeHwdcJQTjbis2k/PQQv9WTCzbdCKqnNlno1Qjiu5Aui9juySGl7HPzSCQ+y+52cV+8kO0fyz7i6tEGEEe57HpI8xtXWp8SdSkFg+7xosgXTqB0+cSYiOqFGDE1C8wWeDdce3B/dm+i0iJUvVqnLqzFJVHp+rLpuilyKpkniiJfPIFa8kcL6BeVY+17XFCdMJiSRc8nhst6AKmIMPjKSTQ+uycHQ9bltdX7ESd8JoMrUR2OoBmDV/2i5/3XMJ4pUSs+ul8E0YNHhKoZZ1yRTxdEnpoHUR8xiBqn7nQrQYl6IQ+iaocSte7HeVn3Df0kaob5p7FJVId/Up2zpkTtbn4ND1OyzrP+/jz1qC+eQOe3pxZA4jsMl9YwjuPjCiXkYgqq0/0c3p+aF/kXJ2E03ZuHMXwyJZJzOhGiuCWpQu2aJqOaDltaZoawP3oeH5WoDVqktQlYpFkbF/OBPIrh/nAZE2h9+QRcKGcyUBUmmbQxzbCo7xccuODuyUGF+t2TSNX7t8sinyuiBGfOuclNjxleCAOxaUjULCOUg0rUnu6p72yIPL0Fl9H1JqTbo1weZq3LuBEwpFil2nGjhQkpbjQ7LRwrtJbrHGa0GM5MhjgusNTIpQRN20hqn2OvgAWHlQzsBbuS7vhLj6L05td7yBJ7o4IWRitpGG+PF0UeYd+pftGTqN/dgO/rwzqSX+9nFedniljmR0wB6weateWzRaUSsc6aqzL7nO7yddtjW0vWw8dh9E0TbLp20jRKipSgKy7Cs4upDoEzlFwpwx1kTdhv/GIJDdJ0FpjTGXDnsQLybgfxyfck6vc20R7y/Tqk2F05DCmfnUdkYdLJzybUQV4PEM1Sd1PJM/yRPO44QdWxNBvZ5R3k+C6mcD+KR3hPuuGFXZF/2MJcDVcakKCfm0fzDc3S6hc9ifr9Tcyk914dyRy3s6/oFxZEvnoCw8tRQc9Yp4DxjMXnImNy9xw1bEpH28ix1fqv1ASlZT94jrVS79agtp3PIgr2SAFCbyUOoj69hSTfd2oQ20ucpOFLCyL/ZgnvEyS4GZ7dFvlf6xiVdzzkE3z5BIh6Z3YwDvU0ADW8qcmz9QA/VvGP35CaYDxo0aVZJWdsuqeGCY/3PD7DJOcMh5oG9cFKwEz5ETP+ExxfqKO/zqpaTQDXyNQw7qmeRM1yAtk8oxfNAEZLjbP6jduXmmB2oVyp0IeqNoNDI9AdonbtpkSdZ+9OizHpFssjWsfUT5kgHjRDNCiuRZJsbCalpOMc+nOMDuXt/b43n6lycU1RnuD4oZc905aoQyQZ9Tw+OvQrAqObSmJUJegGbbBRoT9boUkpw8zyfVOiLjD5w/xOrVEfV95kgtmHGt7RBKb20B8ZpfvBoUTNM8tGERh6akLUBN1gDv2+kbSd0jS/OHVUlzMK59hyUDOV/FCkQWsuGfoTdENDiUqOpBjuzXM+gFScRFWHf46EdUnUdo7hBNL9Eswm6uz1WmWSvcveAQXySPNgB0FPoioyav078H21QqbWJRI1QQ+0go57KgiRpL3qInlm2O4rh34s76AgrOAgD7LJic2iFl2CBIoGp0qqMWG6YKM8e4Ut6YfBoUTN2chyKVCi1gJkwmx5eHISJIiiyUrfOiVqIYWOMKsu/KjDoC+iLqaQRe6QqBst5H8eYRunBFMMVQ+1tH7ORpL0cnqMQ3/ORjpWgdGEmo9SkK1Wp7FAkpySQNiSaL2Jiosag0IWW1qedtEcb3xDP7PIVaJWdehvdYq2EiQQEnWjBdeU1q6ZRF0ap0RV10KWEtUL4XbY8xEm22MbmgQJNlto7rbeAifSFgScJjaN0mXjUKKmWYabZdhL/ahl9m1KrP8Eih0PxaBbLfhP03T0Z4ZIQoni0M9nmO6nT0aKU81UfZHrVAES6//WRsDcj42WyKU6JGoQdnzwhUgYfhgcSlQd+ufsDlEttki83sRsbM0hxXmC44GAKuGGB6JuUKJmbBSBqmtzFBxKVC3RPZGGL2w5jfe1AJ2R15sJUW91aLZUmR0JtSlanhGpk+TMKO2DDiWqxTzC5RRKXG/jTHNlH2XUa01Y/wluXVR9GFJ7bKLnUXAVHNTyq3AbBYcTlU/BqovuFndlcQJBCKv/CttfX2nAx5rg1sOWh9r9zRZImrGQdH86LXI+g9Dp2ImqWOVECRfynXY+ZR+T775ZgVuinBD1lsR6C5O7rVM3zTuYav72jMidOaxPjKg6R9TJFH54IQW1YKslcrGGCSOuMiqRqALHH36ICOXFKqTppTpG2CAER+7OgahFZ7jy6Cj6Jqqi6GA+01VO4rXtYY7Pl8voqnK9CYU6wfGGF4Kcz+2KvFQWeaeKod8XJDE9XEAHcXdEgioGJupSGrqqNrlybeQeftQQeaWMk75YxYwYO5xRReurEufA7EFzOfwQhtJ2S+SDGu71y1w+rMOQytkwnu7Mon3P6gix/SiGIupDbBt4R7aTDLvj4eR/WuITVoPrquojOSHB7CLkUF+h7/y1isizOyIv7eE+6yRzKy7mrLo7i/zTBU5iEQd6Nkk7DJdqIj/fw6Rmb1ZENqmbLqZxondzzvlV6rML7BGQY4QrO/AjkmASCNkFx2eovOpDldtjD9q1Job5t2nlb3ud+/l4Ee3rH8hjxHVjvMdDE7Xs40l6uSzyzA6Iq8p0gfUxWsm66sL/+okM2pqfcbEtwfRB23hWfKhvl5silxsilxlx2mQ/2j3mm7ZC3M8zLqbO/Nw8Rt35GKJRJoYmquJiVeQnJVh+H/PP1Nggyw/xVC2zZeVZkvQ2TvfosNArxdc0+xKZ29rrjJLZE+6aPOsIKCHN3rGe0Uu2ZfRp8FkKr/M1XG2gNf6VBsiqc2E5vE9F5oDcmYV//bEi1EJzSve4MDJRdzgcXK5jOLhUwxyYN0jYIIRkzVPKzjn4g5o6qPvmbHRMbqsIRgVs3hbJsoIxPUSDrVsZLYY0a6xhqnLRuQ/2fNQ3VXU/h3od7st+p+FZg4ZVnnMF3J2DnXJXFmRdSUOaxqWXmhiZqIrNFqTrOzVYgZcbnXzVVogLph2iLUrHPIladFBXs+BAxy2QuCa5lbzaY0Clq9mBub0e2ddejAuoq+Y13bfONz33m6+RG6NX1Lywur5vm/HmZsea3xcYeqRKy/b7iI4ZGPMeVEjGsi9SpsSscMKOHRKywqXKIV3412yWz7s27sNyGv34H8iL3JOH4XT7AP34h0FsRNV++jv88xvUba41oYRvtjoXQ2dz0+E8bWHCWNfopJEyFn3vchIFJWyWvTZdftbldv0elcDa5tAktaVqxE3WbYaP2/uMJfpQWFZncgwlUajkMroftsmmpOqyXbeZr0q+Jq+dDtEN9lhohpB4Tb6vcdFjdHj3IsO9frYVinh0JXr8j66OeBQmp9KwMVSKnkghSqkTIY8TsRFVoTrQHpNWLnP6n+st+OD2+FRXOaObeQH1s3rDokixG1yOEjZP9UFJmzWkbk6JzM84BlntHhJYSan7zOPbBI98ztHPWQeJpe99g5Aq+fYd22Vf9Lt8AZHqJF6N84zWaNSoXaAStN2flKTuBZtJR2oL6OIyO18N45OcaO0cSXpXLvpN40XsRNWhp8nhRUmpE/7q09xgx7ddDwbYOmtttlo4vt6lHsviRTWlbNTg0m3tffyMSktTKkpkm/6GxZX2sVzft7/LPlFJyRVdD3ldzP3631QKR/cdOL6bUSQiPjuA60Ou+/Q6qwrQDRaLN9V9uJzGskKrvcgmeWl2zSnQtpjn8ZNE7ETtF34ItWCjBan7cR0G2NVmZxoec1jUm6XrN9tn3lgx9gn3dXudNkQfCIk8VOZDYhnqTLd9vd7bAtItpzGsn81Can6CFaNa1TENODKiBpyRr25YlzW1RrldpYKqCE1tIqx6Gl9V72rvN9Y9w5AzdT2VNAEnW5sWqNqho4Gu2xwtdDQx9XKXQ3V7u+rnxrQ+OgKljfUUJeUcm+EVWDZS1GoOfn4acGREvRlUZ1V9a99iELmmOhr1NXOJGhNRPdiLDKPt4dGQvsamgd5H7+3N3lvGBtWPU5xNO6ripGkkqkGZY6RP9fGcBTee6u5qbGbUuNR1g+CqOlnRk5wyTCVRTcl3gGA9lgP7DSJ64X6XTmgaLYbxYkrYffsMd8++98Z6GDG22sabYXTpe5WQ+7Yb23QYN9/vk7QRqdhejDlSu+npDo/Rdf1OVQWmGVNJ1ElC/7zHSFqb3BGi6/t92/QztModc/r4iCQ0t5mLQwmaIllVh0ywHwlR+RpEpG7QTepGX83jTInaRUo6hrSNSlVTikpC1K645YmaYDZgRzckSDCNSIiaYCaQEDXBTCAhaoKZwP8HDg79wGsfNHIAAAAASUVORK5CYII=;" vertex="1" parent="1">
          <mxGeometry x="430" y="-55" width="42.77" height="40" as="geometry" />
        </mxCell>
        <mxCell id="7TJYjL8CNuQm4D0-0RJm-26" value="&lt;font style=&quot;font-size: 14px;&quot;&gt;CA&lt;/font&gt;" style="text;html=1;align=center;verticalAlign=middle;whiteSpace=wrap;rounded=0;" vertex="1" parent="1">
          <mxGeometry x="314.38" y="-15" width="60" height="30" as="geometry" />
        </mxCell>
        <mxCell id="7TJYjL8CNuQm4D0-0RJm-27" value="&lt;font style=&quot;font-size: 14px;&quot;&gt;CA&lt;/font&gt;" style="text;html=1;align=center;verticalAlign=middle;whiteSpace=wrap;rounded=0;" vertex="1" parent="1">
          <mxGeometry x="421.38" y="-15" width="60" height="30" as="geometry" />
        </mxCell>
        <mxCell id="7TJYjL8CNuQm4D0-0RJm-28" value="......." style="text;html=1;align=center;verticalAlign=middle;whiteSpace=wrap;rounded=0;" vertex="1" parent="1">
          <mxGeometry x="365" y="-49" width="60" height="20" as="geometry" />
        </mxCell>
        <mxCell id="7TJYjL8CNuQm4D0-0RJm-29" style="edgeStyle=orthogonalEdgeStyle;rounded=0;orthogonalLoop=1;jettySize=auto;html=1;exitX=0.5;exitY=0;exitDx=0;exitDy=0;entryX=0.474;entryY=1.024;entryDx=0;entryDy=0;entryPerimeter=0;shape=flexArrow;fillColor=#7EA6E0;" edge="1" parent="1" source="7TJYjL8CNuQm4D0-0RJm-20" target="7TJYjL8CNuQm4D0-0RJm-22">
          <mxGeometry relative="1" as="geometry" />
        </mxCell>
        <mxCell id="7TJYjL8CNuQm4D0-0RJm-30" value="&lt;font style=&quot;font-size: 14px;&quot;&gt;分配&lt;/font&gt;" style="text;html=1;align=center;verticalAlign=middle;whiteSpace=wrap;rounded=0;" vertex="1" parent="1">
          <mxGeometry x="393" y="31" width="60" height="30" as="geometry" />
        </mxCell>
        <mxCell id="7TJYjL8CNuQm4D0-0RJm-32" value="&lt;font style=&quot;font-size: 14px;&quot;&gt;6.发送凭证&lt;/font&gt;" style="text;html=1;align=center;verticalAlign=middle;resizable=0;points=[];autosize=1;strokeColor=none;fillColor=none;" vertex="1" parent="1">
          <mxGeometry x="453.15" y="126" width="90" height="30" as="geometry" />
        </mxCell>
        <mxCell id="7TJYjL8CNuQm4D0-0RJm-34" value="&lt;font style=&quot;font-size: 14px;&quot;&gt;9.返回验证结果&lt;/font&gt;" style="text;html=1;align=center;verticalAlign=middle;resizable=0;points=[];autosize=1;strokeColor=none;fillColor=none;" vertex="1" parent="1">
          <mxGeometry x="465.38" y="64" width="120" height="30" as="geometry" />
        </mxCell>
        <mxCell id="7TJYjL8CNuQm4D0-0RJm-36" value="&lt;font style=&quot;font-size: 14px;&quot;&gt;2.转发CSR和&lt;/font&gt;&lt;div&gt;&lt;font style=&quot;font-size: 14px;&quot;&gt;部分签名信息&lt;/font&gt;&lt;/div&gt;" style="text;html=1;align=center;verticalAlign=middle;resizable=0;points=[];autosize=1;strokeColor=none;fillColor=none;" vertex="1" parent="1">
          <mxGeometry x="303" y="120" width="110" height="50" as="geometry" />
        </mxCell>
        <mxCell id="7TJYjL8CNuQm4D0-0RJm-38" value="&lt;font style=&quot;font-size: 14px;&quot;&gt;3.返回证书凭证&lt;/font&gt;" style="text;html=1;align=center;verticalAlign=middle;resizable=0;points=[];autosize=1;strokeColor=none;fillColor=none;" vertex="1" parent="1">
          <mxGeometry x="190" y="-76" width="120" height="30" as="geometry" />
        </mxCell>
        <mxCell id="7TJYjL8CNuQm4D0-0RJm-39" value="" style="shape=image;verticalLabelPosition=bottom;labelBackgroundColor=default;verticalAlign=top;aspect=fixed;imageAspect=0;image=data:image/png,iVBORw0KGgoAAAANSUhEUgAAAGUAAABsCAYAAABzc3wHAAAAAXNSR0IArs4c6QAAAARnQU1BAACxjwv8YQUAAAAJcEhZcwAADsMAAA7DAcdvqGQAACO9SURBVHhe7Z1pdxvnled/KOz7ShAkwH0BuEmyKEpRLFvpWHZip5PuzmROd8+reTdfwx9lzpx5MWc649PTSfcksR13IstSWytFcRUJAiBWbth3VNW8AFGRGFmWZIqku/07R29EoFBV/7rPc5/73LpXJcuyzCmk0WhQqVRIJpMkEgnC4TCRSIR0Oo1KpcJgMDA6OkogEMDn89FqtYjFYkQiEba2thBFEaPRSG9vL4ODgwwPDxMIBPB4POj1ejQazeGfPDWoTpsooihSr9fJ5/Nsb2+zvLzM6uoqa2trFItFLBYLfr+fgYEB5ubmGBsbw2KxIIoi+/v7zM/PMz8/TzKZZGdnh2q1is/nIxgMMjk5yfDwMC6XC4vFgk6nQxCEw6dw4pw6UXK5HOvr66ysrLCwsEA+n6dYLNJoNOjv7+ett96ip6cHh8OB2+3GarWi1WqRJIlGo0E2m2V/f5+dnR3W19e5e/cuxWIRnU6HzWbD4/Fw5swZgsEgw8PD6PX6w6dw4pyoKLIsI8sy5XKZYrFIPp8nHo+zsrLCxsYG4XAYp9Op/JuamuKtt97C6XSi0+kOH05BkiRKpRKRSITbt28Ti8UUoRqNBsFgkPHxcSYmJnC73TgcDqxWKwaD4fChToQTFUWSJERRJBKJsL6+zvLyMhsbG+zu7iJJEnq9njfeeIPp6Wn6+/vp7u7GarWi0WhQqVSHD6cgyzKSJFGr1SgUCqTTaeLxOLdu3WJ5eRkAk8lET08P4+PjTE5OMjY2htfrPXyoE+FERGk2m5RKJXZ3d0kkEkQiETY3N5U5wGg04vP5GB4eZnBwkL6+PlwuF2azGZVK9VxBnqQjerFYJJvN8vjxY8LhMPF4nL29Per1Og6HA5/Px9jYGP39/fh8PhwOByaTCUEQXvi3jpITEaVSqbC1tcXS0hI3btwgmUyyu7uL2Wymt7eXiYkJzp49y+XLlxEE4cgm41arRaFQ4Msvv2R+fl6Zs2q1Gv39/YyNjXHx4kVGR0fp7u5Gq9Ue2W+/DMcmSrPZpF6vc+fOHVZXV8lkMmxvb7O9vY3VasXj8TA1NcXo6ChOpxOXy0VXV9dLWcbXIUkSzWaT3d1d9vb22N/fZ3l5mfv371OtVlGpVHg8Hnp6ehgYGGBiYoKxsTG0Wi1qtfrw4V4br02UziRer9efmsg//vhjFhYWqFQqqFQqzGYzw8PDjI+PMzs7y/Dw8LEMG515Z35+nhs3bhCJRMhkMlSrVfR6Pd3d3czOzjI7O4vFYsFqtWI0GtFqtUf6oDyL1yZKx0VNJBIsLS0RjUaJx+MkEgmq1SpdXV0MDAwwOTlJb2+vMpabzWaA13rRHIgCkM/n2d/fJx6PE4vFWF1dJZVKkc/ncblceL1e+vv7GR8fZ3x8HKfTiV6vf63nd6SidCbWUqlEoVAglUqxsbHB2toa29vb5HI5rFYrbreboaEhhoeHCYVC2O12LBYLHIMYX8Xe3h6ZTIb19XU2NzfZ2NigWCxSr9fxeDwMDAwQCoXw+/14vV7Fco5yzutwpKI0Gg2q1SrhcJjV1VVu3rxJOBxGFEVsNhtut5uLFy8yOTnJwMAAdrtdcW87YpyUKJIkIUkSrVaL7e1tZfG6tLREPp+n1WrhcDgYHR3l3LlzBINB/H4/Op3uyEM2RyJKrVYjl8sRi8VYWVkhk8mQTqeJxWKo1WpGRkbo7++nr6+Pvr4+uru7sdvtp2413bkVlUqF3d1d0uk0yWSSaDRKNBolnU4r7npXVxfd3d1MT0/T19eHzWY7MmfgpUXpfLwzUbZaLXK5HNFolLt37/Lpp5/SbDYRRRG1Ws34+DjvvPMOoVCIoaGhw4c79TSbTZaXl7lz5w43b95ke3tbuT6bzcZPf/pT5ubm8Pv9GAwG1Go1KpXqGw1pryxKLpdjb2+PtbU1YrEYyWSSdDpNOp2mr6+PQCBAT08PQ0NDDA4O4nQ6sdlshw936pEkiWw2q1j+1tYW8Xiczc1NstmssrgNBAIMDg4yODj41Bz5KrywKB0fv1qtUigUiMfjRKNRHj16RCKRoFKpYDQa8Xg8TExMEAwGGRgYoKurC71e/42enNNA59pTqRSbm5s8evSIjY0NSqUSsixjs9kYGhpifHycQCBAb28vFosFvV6PVquFl5gvX1iURqNBPp8nFospJxSLxahWq2g0GpxOJ6FQiMuXLytBPoPBoKyKX/SETisdR6DRaFCr1UilUsTjcR49esTm5ibb29sIgoDBYFDiacFgEJ/Ph81me6l78FxR5IMFYCqVUoJ6sViMcDhMNpulUqkwODhIT08P3d3dDA0NMTU1hcFgeG4U998DpVKJXC5HOBwmFosRj8eJRCKEw2F6enro7+9XnJvOiOFyuV5o4flcUTpPxx//+Efu3LnD8vIyOzs7iKKI1Wqlq6uL999/n5mZGZxOJwaD4c9c3H+vSJKELMu0Wi2q1Sr7+/t8+umnfPTRRwAIgoBGoyEQCHDhwgUl2v0i65qnROl4VNlslkQiQTqdJpPJsLa2RiqVolwuY7PZGB8fx+fz4fP5GB0dxev1otfrj8wl/LYhiiK1Wo3NzU1WVlbY3t4mmUwSj8dpNpvY7XbFcvx+v7IsMBqNz3yAVZIkybIsI4oizWaTSqWiTODr6+uEw2Hq9TpqtRqXy8X4+DhXrlyht7eXrq4uNBrN1yr/HwVRFGm1WkSjUVZWVnj48CHRaJTd3V20Wi1ms5lQKMT09DTBYBC3263Mu50HWqVSoWq1WnKr1WJ/f59MJsPy8jKPHz8mmUxSqVRoNpsEAgH6+voYGxujr68Pn8+HyWRSvKrDSv9HpTPSlMtl8vk8Ozs7RKNRFhcXSaVS7O7uYjQacbvdBAIBhoaGGBkZwefz4XQ6laFNtbOzIyeTScWb6BxAFEXcbjc9PT2MjIwwNDSkhNW/bufvO/60hMhkMiwtLbG5uUksFiOTyVAulzEYDAQCAcbGxhgcHMTv99PV1YXVakX1+eefy7/61a/Y3d0lm81Sr9ex2WwMDg4yNzfHlStX0Gq16HQ6dDrdU2b2HV9Nx3PtZOdUKhVyuRw3btzg7t27JJNJWq0WOp1O8VyvXbtGKBRCfe3atQ9v3bpFLpejUqmg0+no6+vj3LlzTExMMDQ09GfrjZMWpN6SqNRFNnbrLGdqLKWqbO7V2a+IiJKMXiOgUoFwgufZuU9qtRqdToder8doNCoiZbNZyuUy5XKZer2OLMsMDg7i9XpRX7x48cPFxUVarZayCAwGg3z/+98nEAhgNBoP/96JU6mL7FdEboSL/GG9yI1wiZV0jXxVxKAT6LJoUAsqNMLJiXIYQRBQq9Xo9XpkWSaTyVAqlajX6zQaDWRZZmxsjJ6enralhMNhjEYjZrOZZrNJoVAgkUiws7NDqVQCUCzlJDwtSZapt2QyxSYr6Sq3omV+v1ZgKV0llW9SqovUWhL5mkgy3+TxTo3sgdWoBVALKtSqkxlyO0kikUiEhw8f8vnnn3Pr1i22trao1Wqo1WpkWcZgMCgRZ0UUt9uNx+NBo9FQrVbZ2tqiUChQq9UQRRFJkhRzPM6JvtaUKNYkkvkGa9t1FlNV5uMV7icq7JVaVJoyLQkaokyxLrFTapLINWlKMpIMLQkkGTRqAUHVFug4EEWRSqXC3t6e4iIvLCywsLBAMpnEbDYrG2WiKKLRaP4kyrvvvvthOBxmbGxMSVwwm82k02ny+Ty7u7uEw2G2trYQBAG9Xq/Eco6DZL7BcqbG79eK3NgssrFbZ7vUotaUkJ4Vi5BBlGVKdYlkvsn6Tp18VcSoFTBoBUy641ngVioVNjY2uHfvHh9//DHLy8vE43Gq1Sq9vb1cu3aNsbExjEYjpVKJZrP556KMjIwwNjbG0NAQTqcTQNmE2tvbY29vT5mkOpkpsiyjVquPdCXfFGVKdZHtUpPNvQaLqSoLySoPExWi+w2KdYl6S+ZZenSQZag1ZfI1kf2ySL0l0ZJkai2ZelOmKba/rRFUR+IMdIIi1WqVbDZLMpnk8ePHPHr0iMXFRSUB0Ol0EggEmJmZ4eLFi1itVkqlkpKw8WfDVycM0BFnamqKgYEB3G43hUKB7e1tJfs9HA4rnprZbD5SZ6DckIhlG9zbqvDPi3nuxMosp6vka+JzhfgqJBlyVZH13TqR/TrxbBNJBr1Ghd2oPjJnQJZl0uk0q6urfP7553z22Wc8fPiQRCKBJElMTU1x9epVrl69yqVLl/B6vZTLZSUc85QoHUvpRDQ7WSU6nQ6DwYDNZsNut+PxeNBqtcpOY7FYZGdnh0KhQLlcRpZlBEF4qb2DTtSt2pTIVVqs79S5v1Xh7laFpXSNrWyDYk2k9jWW8XXIB3NLS5QpNyXyVZHdSotCTaTalA4sBtTq9jl//Zm36WRfJpNJ5ufnefDgAfPz82xtbSlxwtHRUa5cucL58+eV1NhO6u3+/j6JROL5ogQCAWX/XKPRYDablZBAT08PsixTq9XY3d1le3ubSCSihPA7mzmd9JvnDWkdc5dkqIsy+5UWiXyDe7EyNzfL3N+qsJVtUG1KtKTD3351Os5AMt8kmW8qHppJp0ajVqFVqxB4/vqmc+6dTa9OwPb69evMz8+zsrJCo9HA4XAwPDzMhQsX+OCDDxgdHcXj8SgZMCqVir29vWeL8uTw1RHFarU+dSIqlQqtVovD4aC/v59QKKQo3VkIxeNxUqkUuVwOvV6vzEtfhQzslJrcjZX5MlLmi3CJxzt1MsUmlcZXTOJHSGfe2Su32NxrsFtqUWlI2Azq5zoDncDtwsICX3zxBbdv3+bhw4fE43Fl3/573/seP/jBD5ienmZwcBCHw/HMGOE3EqXjdblcLmXfXaVS0Wg0UKlUVCoVUqkUOzs7ZLNZDAYDFosFjUajDGey3B6C8jWRvZJIKt9kOV3j5maZ+USVpXSN/YpIrdl2ZV83ogyVpsReWSSea5CviZTr7aGsJbWjBjKgfWLOkSRJ2Qq/desWt27dIhKJkM/nsVqt+P1+xsfHuXz5MnNzc/T29uJ0OpVkisN8I1EOIwgCDoeDkZERenp6sFqtVKtVyuWyku3RaDRwOp04HA44GKpESWYlU+N+vMKNcJE7sQobu3XyNRHxCIepV6HWlNivtIjsNYjn2kOnVi3gMLVvqCy3M3c2Nja4fv06jx49Ip1OY7FYGBoa4u233+bSpUvMzc0pkZBnWceTfJUoL73Y6MR07Ha7kjV4/vx53nrrLd544w1FpMNPR7bSYiVT40G8wt1YmcVUjeh+nVxVpN46BtP4Guotmf2KSGS/zlK6ynyiwmqmytZ+g1JdVK5bo9Gg1+vp6upibGyMubk5Ll++zJkzZ5R3MK1W69cK8jxeyVI6qFQqTCYTXV1dyg6kIAhK8p3X61Xc5fWdOl+ES9yJlVnN1CnVRZri4SOePKLUdj7yNRFQoVGrsBs1OEwaxXnRarV4PB4GBwe5fPkyMzMzuN1uZSeRF/Q+j8xSOnSeHLVajVarxWg04vf7uXTpElNTUwQCAUwmk/J5n03LpSEz703Y+WHQSo9di/bABT0taARwmtRM9Rj5xTkXPwxamfAZcR4MYSqVSkklmpqaYnp6Gq/XqyThHVUU/ZVFeZInh7RgMEhfX5/yanRTlCjUREw6gUmfkSsjVq6O2Rj3Gui2arAb1eg1qhdeGxw1ggq0ahVWvUCXVcugW88bARM/mrBxod+M36FtOyhVkZYoYzQa6e7upu8gBfdl3y57EY5ElOexXWzx+UaRO9Ey0f0GggpGPHo+mHLwn95w8cNxGyNdenSa9gLuuLHo1fjtWq6MWPn5WSe/OOfkzWErZr2aXEVkKVXl45UCnz0ukKu2Dn/9tfDaRclX2xd272CCj+43qLck+pw6zvlNXBw0M9tnZrrXSL9Lh92oRqd+vQJpBBUWvUCPTcuYV8/5PjMXB8xc6DcT6jZiN6iJZxsspqvcjpX5MlJiKVWl3DgeF1E4SrN7FrWWRKbY4m6szC/v7/OPD7P8fq1IbL+OTq1iusfIz2Yc/Lc3vfxowk6o24DTpH5t841aBRa9wIBTzw/Gbfxsxsnfzro432/CaVJTqIk8SFT43/f2+ehBlt8sFVjO1MjXRFrHsYA6DkuR5XbMqdKQyFZENnZq3Nsq86+Pi/xxvchCskqlIeG3aznTa+LqqJUfTdi5OGDGbVZj0BydOD6bhjMBE38xbuOdkI0L/SaGPXrsRjXxbJObm+3Ns883iixnaiRyDQo1kVpTQpTkdhjiGBA6sZzXjXzwL1Ns8TBR5V8W83w0n+XjlQKR/QZ6rUDIZ+C9CTt/N+vmWtBOj12HWX80z40KGHDpeXPYwl+ddfDXZ5280Wem26pFlOB+vMKvFrL843yWf31cbAdD68czXB3maK74FSnVJR5v1/h0Jc///HKXT1YKrGRq1JoSg249Pz/r5OdnXXwwZWem14jbrEHzEmds0gmMePS8NWLhb2ddvBuyMdNrwqwVyBQafLFR5J8eZvnvt3b4MlIiXWhSOwUL2Ze4xKOn2pSI5xp8GS3z60d5Pl0tcDdWJrxXRy3A3ICZt8esXAvauDRoYaLbQI9dh93w1c6ARlBh1Ap4LBpGPHrOB0y8PWrl/Uk7Z/1mXGYN2YrIo2SV6xslfrdS4NePciymq+xXRGUD7CQ5UVE6NESZQk1kbbvGHx4X+T/39/ndcp6N3TqiJBNw6nhz2ML7U3beDdk44zfiMmvQH5pvBBXYjGr6XTreHrXysxkH74RsTPeasBrU7JWbPIiX+efFHL9ayPEgXiaRa9BoyUgnM1I9k1MhiiS3hclVRWLZOo9SVe5tVbi1WWI+USGyV0enUTHSZeCNgIlLgxa+P2RhusdEn1OHWSfgMKoJdRs532fi8pCFuX4zEz4jHouWcl3kYaLK7WiZ29Ey8/EKa9s1tostyg0J8fjm8BfiVIjyJC2pvSW8vlPjN0t5PnqQ5f8+zLG+U0MjwJBbz1ujVv7+gov3p+zM9ZtxmzX47Tp+PGnnr2Yc/HTGwYzfiFkvsFdu8m+RMv/jy13+8WGOL8IlEvnm1+7znySnThQOLKfWaltOKt9kbbvGp6sF/vlRnusbRaJ7ddSCimGPnisjFv7mrJOfTNs54287A9WGxGKyyicrBf7fYp5bkRLxXIP9cotSXaIpvpwgL/PZo+BUivIkDVFmp9TixkaJXy3k+O1SnrtbZZL5Jha9muleEz+ZdvBO0EaPTUtDlAnv1rgRLvEvi3l+t1LgUapK45tYhtxeb73y91+SUy9KB0mGUl1kK9vg3yJl/uH+PjfDJSJ7dWrNdtDz3laFT1cL/NNCjvlEhd1Ssy3Gcd3NI+JbI4pMe0jbq7S9tC/CRR4mK0T326IU6xLLmSr3tyrcif0pR+y4QiNHybdGlCeRZGiJkK2I7JZaNESZpthOU6o2X4NvqwKV6sVTj74pQiqdOfx/3wpkoNFqJ35L8p/cavE1jFXHIYYkSe08h0oFYe3xxuG/f8cJIEkS+UKRXC6PUCq3X3X4jpOlXK5w4+a/8b/+4SOEVut4dtO+4/nU6jUeLS7xye//FaFTie47Tge1eh3B2+U5/P/fcQKo1RrcbhcetxshODZ6+O/fcQIYjQbeOHuGt69cRjht1en+o6LTahno7+Pihdlv5+Lx3yNarZaAv5dLc9+Jcip57aLoNSo8Fg1OoxqjVkD92n/x6NCpVVgNAl6rFq9Vi/YIM2uex2u/RV0WLW8OW5jtN9Pv1GF+zgs5pw23WcNEt5F3gzb+YsyKw3i0pW6/itcuitWgZtzb2cZtZ0IOunQ4DjIhj4KjinYJKjBqBbwWDRPdBt7oa5/zbL+Z0S4DRu1rv11wHKIYtCq6rFrOBkz8dMbBjyZsfH/YQr9Lj0WvPpZg34ugOhiuXCY1IZ+RD6YcfDDV3jwb8xqwGdQvld70TXjtPyOo2i94mnUCLrOGoNfI5SELfzlt54MpO5cGzfTa26/gnRSCCkLdBn4YtPGXMw4lY6bPqcNu1BzMhUebWf88XrsoHVSqdiGBbpuW6V4T74bsvD9l580RKyMePWadgF6jQi28fKj8ZT/PgRBadTtHzKJXc8Zv5FrQxvuTdq6MWOl36bEZTmb+OzZRnoXdqGam18h7E3b+/oKLq2NtgYy6V7nNL45GaE/is30mfjJl579ecvP9YSt9Tt2xzRvP40TPwKxTM+Bqv6TzF+M2Lg9amOk1MeTW02VpDxtHVRGCA/fcblDTa9cx7jVwod/MlREL7wRthLoNeCxadMc1cTyHkz8DwKAV8Jg1vNHXzkz5Lxfc/HjSzsDB+yrCN9yKVQFqAXxWLWcDRn52xsF/Pu/irVEro10GTPp2cYPTwqkQRS2o0GkE7EYNfruWca+B831m3h61cnnIwlm/CZdZ88zc4echqNreX79Lx5VhK28dHO/MgTW6zRrM+nZ9ludVmThuToUoT6JVq3CZNEz1GPnrM07+6kzbGwo4dW0P6PAXnoNGUGHTq5npNfF3F9z89VknPxizMeTWY9G363+dRk6dKCqVCkFou9FGXTvEEew28l7Ixk9nHFwZbTsDBs2zQzY6tQqbof2G77VQ28X9/rAFn02LzaDGoBXQqNuWcVwu7suiXFaz2aRWqyn1vDplw08am0HNoFvHO+M2/uaMk3dDNs73mfE7/vRKhApQqzqvQGgZ9ui5PGTh/cl2XvFcvwm7QXhtr+y9KE9WYG00GjQaDer1OqL4dEEBRZROBbxYLMbe3h7NZvNUiMLBRK1Rqw4WnwbeHrXyt+ddzPab8dm1GLQqrAY1wW4j7wRt/P0FF5eHLAScWkxaAeEUjVOdVKJOP5ZIJEKhUHjqM+pf/OIXH0YiEQCl2l2ntoogCEo3uZOks/DUqlWY9WrsRjXdNi0mXXvh5zJr0B6Uhhpw6RjxtF9mNWrVykr8pIeqTlXBTCZDJBJhY2OD1dVVNjY2qNfrWK1Wzpw5Q19fH6rf/e538i9/+Uvy+TzVahWTyYTb7cbn83H58mXeeeedw8c/cSS5/ZJPJ3ter1EpyXka9Z8qD520EE9SqVTIZrPcuHGDBw8ePFXAzuVyMTg4yE9+8hNmZmZQhcNh+d69e6RSKaVPSqlUQqPREAwGOXfuHG63G5fLRXd3NxaLRWlAedJ0KsFqNBpkWabRaKDX609FAzbpiX5lsViMnZ0dMpkMi4uLxONxVCoVDofjqeoVExMT+Hw+VKIoypIkkUwm2dzc5NatWywtLbG9vQ2ATqdjcnKSqakpZmdnCQQCmM3mY6u2+jyy2Sy1Wg2j0Yh00O7cZrMp5axOElEUqVarrK6u8sknnxCJREgkEjQaDYxGo1Lgc25ujv7+ftxut/JdpVVHp2FmOp1mc3OTcDhMMpkkk8lgNBqx2+0EDpqBBYNBurq6cLvdSqGYk6BT1L/TunBwcFCpxnQStFotpelAPB4nHA4TjUaJRCJKwbpOX+KhoSH8fj8+n0+pT9zhmZ2GdnZ2WF9f5/Hjxzx+/Fhp2yrLMj6fj3Pnzild2zwejzKkHbc4CwsLPHjwgOvXr6PX67l27ZpSW/k46bi4+/v77OzsEIlEWFlZURp3Go1Gurq66OnpIRQKEQqF6O/vx2QyPdMJeaYonSbMpVKJUqnE/fv3WV5eZmNjg1qtprTMczqdXL16lYmJCaVq0XGysLDA/fv3+cMf/oBer+e9995jenr62EXplGu8d+8eN2/eVBpYl0ol3G43Z8+eJRgMMjIy8lRz6K/qsKH+8MMPP3zqfwCNRoPRaMRmsyml1jv9tgRBUIoiZzIZ1Go1jUaDSqVCo9FQSq4/r9rqUbG9va0Mt2q1WikE53K5Dn/0yOm03kgmk4TDYZaWlpifn2d+fh7xoGeZ3+9nYmKC2dlZgsEgQ0NDWK3Wp5oBHRaEr7KUDp0/dSxnd3eXSCTCwsIC6+vrRKNRzGYzDocDn8/H5OQkly5dwuPxYLfbDx/uyOlYymeffYZer+fHP/7xsVlKIpEgFosp9yKRSFAsFqlWq0xMTDAzM0MoFCIQCODxeJR2Jy/Cc0V5EvGgGVjn6YhEIkQiEaLRKLlcDgC32610BR0YGFCeWoPB8Frmm+MUpVOHeG9vj1QqpTyUqVSKYrGIWq3G6/USOGjrNDQ0hNfrxWazKbWaX5RnDl/PQhAEdDodNptNaf/t9XoVK8rn86TTadbW1iiVStRqNWXY0+l0B4HGoxWmM3xFIhE0Gs1rGb7kg7aB5XKZnZ0dVldX+fLLL7l9+zZLS0tUq1WMRiMDAwPMzs4qfZI7VfNepYPGC1vKYarVKpVKhUwmQyaTIZVKsba2xv379zGZTIojMDAwQDAYZHh4mOHh4cOH+UYch6U0m01WV1dZXl4mHA6TyWTY29sjn88jCAIXL15UFn1er5euri6lVdar8sKWchitVqtUWu3u7sbj8SAIguI6d2rAd4KbwkEL10ajgSRJT5XIfdknqcNRW0rn+Ww2mxSLRXK5HNvb29y7d0+xjN3dXQRBwGaz0dfXx9WrV7lw4QLDw8O43e6n+pa9Kq9sKU8iHvQ3zOfzZDIZtra22Nzc5P79+2QyGfR6PW63m+7ubkKhEGNjY4yOjior71cV5agtRT4IrW9vbyt9Ljt9gTvzRiAQYHJykuHhYQKBAG63W2ko8KrXcZhXtpQnEQ5asur1eux2+1NddHQ6neIk7O3tUT3o0l2tVqnX6wgHLaU0mnZK6Mtc2FFYSueZ7HS52NjYYHFxkfn5ecLhMKlUSpnEO40zJycnlerlJpPpSAXhqCylQ+dQHcspl8tsbGxw+/Zt1tfXicViNJtNtFotPp+PUCjEm2++qTgOvKQoR2EpnXPe3NxkbW2N27dvEw6HlWHKaDQyOjrKzMwMZ8+epbu7G7PZ/FR46WXO+UU4UlGepOO17O/vE4/HSafT7OzssLCwQCKRAMDhcDAwMIDP56Onp4dgMIjf71cWqV/HNxFFPtgBDIfDLC4u8mQD0k6Qs9NwtLu7W4lTvapH9TK8NlEOU6vVqFar/Pa3v+XevXtkMhmKxSK1Wg3rQcfua9euMTs7i9lsxmAwKEG6r7oBLyuKdNA1vF6vK+dz/fp1fv3rX1OpVGi1Wuj1ejweDyMjI1y8eJELFy6g0+leeOF3FBybKKIoIooiyWSSdDpNIpFQAnfFYpFms0nfQe92v9+vDBnPi0K/rCi1Wo1CocDq6iqbm5tsbW0Rj8eJx+M4HA68Xi/j4+NKN2yv16t4lV91Dq+DI5noXwThoPmkw+HA4/HgcDgwmUzKBTcaDQqFAjs7O+TzeRqNBmq1WtmifnLx2bGcr5voO0NUR4x4PM7jx4+Zn59ncXGR9fV1arUaDodD6UN27tw5pTT8s7pbHAfHZilPIkmSEsQsFAqEw2FlmyCZTNJoNDAYDNjtds6dO8fMzIyyEfTkFsHXWUqr1aLRaLC9vU08Hufu3busrKyQz+dpNpvKSnx8fJzJyUmlaYJer1fmjeMWhOO0lCdRPdGHxGq1YjabcTqdeDwebDYbKpWKcrlMIpGgWq2Sy+WUtnsdF1Sj0XylpTgcDvL5PNFolLt37/LgwQOWl5dZWVkhk8ko/bJmZ2c5c+YMoVBI6dSn1+sV6zgJQTgpS3keqVSKmzdvKqvoTidWvV7P+fPn+fnPf87AwAAOh+MrLWVwcJBoNMrt27f5zW9+QzKZVFxfi8XC9773Pebm5rh06dKpyNY5zKkTpVQqKa5pOBwmHo+TTCbZ399X1gw9PT14vV5kWWZ3d5fr168jCAKXL1/GarWi1WpJJBJEo1FisRgajQav10tfXx9+v5+hoSECgQA+n+9YvaoX5dSJIh+EOjqbSEtLSywtLbG2tkY6naZeryt9J/v7+1GpVNy7dw9RFAmFQkrEoNNZz2QyEQgECAaDTE9PMzw8jNVqxWAwHP7pU8OpFIUnogKlUolsNks0GmV1dZXV1VVyuZzSkVWWZQqFArIsY7FYlHRbi8WC3+9nampKSVKw2+2YTCbUR9xa96g5daI8i2azqXSrXl9fJ37QUzKZTJLL5ZAPurFqNBo8Ho+SpDA8PEwwGFS6vB7nWuOb8K0QRT4I2TQPGkl3dj4/+eQTlpaWkCQJnU6HxWLhwoULXLx4Eb/fT1dXl+LensR641X5VohymHw+z97eHg8ePCASiVCpVNBqtbjdbsbGxhgbG1Oi1d9G/j+lZ7cxHf87SgAAAABJRU5ErkJggg==;" vertex="1" parent="1">
          <mxGeometry x="750" y="-91" width="38.35" height="41" as="geometry" />
        </mxCell>
        <mxCell id="7TJYjL8CNuQm4D0-0RJm-42" value="" style="shape=image;verticalLabelPosition=bottom;labelBackgroundColor=default;verticalAlign=top;aspect=fixed;imageAspect=0;image=data:image/png,iVBORw0KGgoAAAANSUhEUgAAAGUAAABsCAYAAABzc3wHAAAAAXNSR0IArs4c6QAAAARnQU1BAACxjwv8YQUAAAAJcEhZcwAADsMAAA7DAcdvqGQAACO9SURBVHhe7Z1pdxvnled/KOz7ShAkwH0BuEmyKEpRLFvpWHZip5PuzmROd8+reTdfwx9lzpx5MWc649PTSfcksR13IstSWytFcRUJAiBWbth3VNW8AFGRGFmWZIqku/07R29EoFBV/7rPc5/73LpXJcuyzCmk0WhQqVRIJpMkEgnC4TCRSIR0Oo1KpcJgMDA6OkogEMDn89FqtYjFYkQiEba2thBFEaPRSG9vL4ODgwwPDxMIBPB4POj1ejQazeGfPDWoTpsooihSr9fJ5/Nsb2+zvLzM6uoqa2trFItFLBYLfr+fgYEB5ubmGBsbw2KxIIoi+/v7zM/PMz8/TzKZZGdnh2q1is/nIxgMMjk5yfDwMC6XC4vFgk6nQxCEw6dw4pw6UXK5HOvr66ysrLCwsEA+n6dYLNJoNOjv7+ett96ip6cHh8OB2+3GarWi1WqRJIlGo0E2m2V/f5+dnR3W19e5e/cuxWIRnU6HzWbD4/Fw5swZgsEgw8PD6PX6w6dw4pyoKLIsI8sy5XKZYrFIPp8nHo+zsrLCxsYG4XAYp9Op/JuamuKtt97C6XSi0+kOH05BkiRKpRKRSITbt28Ti8UUoRqNBsFgkPHxcSYmJnC73TgcDqxWKwaD4fChToQTFUWSJERRJBKJsL6+zvLyMhsbG+zu7iJJEnq9njfeeIPp6Wn6+/vp7u7GarWi0WhQqVSHD6cgyzKSJFGr1SgUCqTTaeLxOLdu3WJ5eRkAk8lET08P4+PjTE5OMjY2htfrPXyoE+FERGk2m5RKJXZ3d0kkEkQiETY3N5U5wGg04vP5GB4eZnBwkL6+PlwuF2azGZVK9VxBnqQjerFYJJvN8vjxY8LhMPF4nL29Per1Og6HA5/Px9jYGP39/fh8PhwOByaTCUEQXvi3jpITEaVSqbC1tcXS0hI3btwgmUyyu7uL2Wymt7eXiYkJzp49y+XLlxEE4cgm41arRaFQ4Msvv2R+fl6Zs2q1Gv39/YyNjXHx4kVGR0fp7u5Gq9Ue2W+/DMcmSrPZpF6vc+fOHVZXV8lkMmxvb7O9vY3VasXj8TA1NcXo6ChOpxOXy0VXV9dLWcbXIUkSzWaT3d1d9vb22N/fZ3l5mfv371OtVlGpVHg8Hnp6ehgYGGBiYoKxsTG0Wi1qtfrw4V4br02UziRer9efmsg//vhjFhYWqFQqqFQqzGYzw8PDjI+PMzs7y/Dw8LEMG515Z35+nhs3bhCJRMhkMlSrVfR6Pd3d3czOzjI7O4vFYsFqtWI0GtFqtUf6oDyL1yZKx0VNJBIsLS0RjUaJx+MkEgmq1SpdXV0MDAwwOTlJb2+vMpabzWaA13rRHIgCkM/n2d/fJx6PE4vFWF1dJZVKkc/ncblceL1e+vv7GR8fZ3x8HKfTiV6vf63nd6SidCbWUqlEoVAglUqxsbHB2toa29vb5HI5rFYrbreboaEhhoeHCYVC2O12LBYLHIMYX8Xe3h6ZTIb19XU2NzfZ2NigWCxSr9fxeDwMDAwQCoXw+/14vV7Fco5yzutwpKI0Gg2q1SrhcJjV1VVu3rxJOBxGFEVsNhtut5uLFy8yOTnJwMAAdrtdcW87YpyUKJIkIUkSrVaL7e1tZfG6tLREPp+n1WrhcDgYHR3l3LlzBINB/H4/Op3uyEM2RyJKrVYjl8sRi8VYWVkhk8mQTqeJxWKo1WpGRkbo7++nr6+Pvr4+uru7sdvtp2413bkVlUqF3d1d0uk0yWSSaDRKNBolnU4r7npXVxfd3d1MT0/T19eHzWY7MmfgpUXpfLwzUbZaLXK5HNFolLt37/Lpp5/SbDYRRRG1Ws34+DjvvPMOoVCIoaGhw4c79TSbTZaXl7lz5w43b95ke3tbuT6bzcZPf/pT5ubm8Pv9GAwG1Go1KpXqGw1pryxKLpdjb2+PtbU1YrEYyWSSdDpNOp2mr6+PQCBAT08PQ0NDDA4O4nQ6sdlshw936pEkiWw2q1j+1tYW8Xiczc1NstmssrgNBAIMDg4yODj41Bz5KrywKB0fv1qtUigUiMfjRKNRHj16RCKRoFKpYDQa8Xg8TExMEAwGGRgYoKurC71e/42enNNA59pTqRSbm5s8evSIjY0NSqUSsixjs9kYGhpifHycQCBAb28vFosFvV6PVquFl5gvX1iURqNBPp8nFospJxSLxahWq2g0GpxOJ6FQiMuXLytBPoPBoKyKX/SETisdR6DRaFCr1UilUsTjcR49esTm5ibb29sIgoDBYFDiacFgEJ/Ph81me6l78FxR5IMFYCqVUoJ6sViMcDhMNpulUqkwODhIT08P3d3dDA0NMTU1hcFgeG4U998DpVKJXC5HOBwmFosRj8eJRCKEw2F6enro7+9XnJvOiOFyuV5o4flcUTpPxx//+Efu3LnD8vIyOzs7iKKI1Wqlq6uL999/n5mZGZxOJwaD4c9c3H+vSJKELMu0Wi2q1Sr7+/t8+umnfPTRRwAIgoBGoyEQCHDhwgUl2v0i65qnROl4VNlslkQiQTqdJpPJsLa2RiqVolwuY7PZGB8fx+fz4fP5GB0dxev1otfrj8wl/LYhiiK1Wo3NzU1WVlbY3t4mmUwSj8dpNpvY7XbFcvx+v7IsMBqNz3yAVZIkybIsI4oizWaTSqWiTODr6+uEw2Hq9TpqtRqXy8X4+DhXrlyht7eXrq4uNBrN1yr/HwVRFGm1WkSjUVZWVnj48CHRaJTd3V20Wi1ms5lQKMT09DTBYBC3263Mu50HWqVSoWq1WnKr1WJ/f59MJsPy8jKPHz8mmUxSqVRoNpsEAgH6+voYGxujr68Pn8+HyWRSvKrDSv9HpTPSlMtl8vk8Ozs7RKNRFhcXSaVS7O7uYjQacbvdBAIBhoaGGBkZwefz4XQ6laFNtbOzIyeTScWb6BxAFEXcbjc9PT2MjIwwNDSkhNW/bufvO/60hMhkMiwtLbG5uUksFiOTyVAulzEYDAQCAcbGxhgcHMTv99PV1YXVakX1+eefy7/61a/Y3d0lm81Sr9ex2WwMDg4yNzfHlStX0Gq16HQ6dDrdU2b2HV9Nx3PtZOdUKhVyuRw3btzg7t27JJNJWq0WOp1O8VyvXbtGKBRCfe3atQ9v3bpFLpejUqmg0+no6+vj3LlzTExMMDQ09GfrjZMWpN6SqNRFNnbrLGdqLKWqbO7V2a+IiJKMXiOgUoFwgufZuU9qtRqdToder8doNCoiZbNZyuUy5XKZer2OLMsMDg7i9XpRX7x48cPFxUVarZayCAwGg3z/+98nEAhgNBoP/96JU6mL7FdEboSL/GG9yI1wiZV0jXxVxKAT6LJoUAsqNMLJiXIYQRBQq9Xo9XpkWSaTyVAqlajX6zQaDWRZZmxsjJ6enralhMNhjEYjZrOZZrNJoVAgkUiws7NDqVQCUCzlJDwtSZapt2QyxSYr6Sq3omV+v1ZgKV0llW9SqovUWhL5mkgy3+TxTo3sgdWoBVALKtSqkxlyO0kikUiEhw8f8vnnn3Pr1i22trao1Wqo1WpkWcZgMCgRZ0UUt9uNx+NBo9FQrVbZ2tqiUChQq9UQRRFJkhRzPM6JvtaUKNYkkvkGa9t1FlNV5uMV7icq7JVaVJoyLQkaokyxLrFTapLINWlKMpIMLQkkGTRqAUHVFug4EEWRSqXC3t6e4iIvLCywsLBAMpnEbDYrG2WiKKLRaP4kyrvvvvthOBxmbGxMSVwwm82k02ny+Ty7u7uEw2G2trYQBAG9Xq/Eco6DZL7BcqbG79eK3NgssrFbZ7vUotaUkJ4Vi5BBlGVKdYlkvsn6Tp18VcSoFTBoBUy641ngVioVNjY2uHfvHh9//DHLy8vE43Gq1Sq9vb1cu3aNsbExjEYjpVKJZrP556KMjIwwNjbG0NAQTqcTQNmE2tvbY29vT5mkOpkpsiyjVquPdCXfFGVKdZHtUpPNvQaLqSoLySoPExWi+w2KdYl6S+ZZenSQZag1ZfI1kf2ySL0l0ZJkai2ZelOmKba/rRFUR+IMdIIi1WqVbDZLMpnk8ePHPHr0iMXFRSUB0Ol0EggEmJmZ4eLFi1itVkqlkpKw8WfDVycM0BFnamqKgYEB3G43hUKB7e1tJfs9HA4rnprZbD5SZ6DckIhlG9zbqvDPi3nuxMosp6vka+JzhfgqJBlyVZH13TqR/TrxbBNJBr1Ghd2oPjJnQJZl0uk0q6urfP7553z22Wc8fPiQRCKBJElMTU1x9epVrl69yqVLl/B6vZTLZSUc85QoHUvpRDQ7WSU6nQ6DwYDNZsNut+PxeNBqtcpOY7FYZGdnh0KhQLlcRpZlBEF4qb2DTtSt2pTIVVqs79S5v1Xh7laFpXSNrWyDYk2k9jWW8XXIB3NLS5QpNyXyVZHdSotCTaTalA4sBtTq9jl//Zm36WRfJpNJ5ufnefDgAfPz82xtbSlxwtHRUa5cucL58+eV1NhO6u3+/j6JROL5ogQCAWX/XKPRYDablZBAT08PsixTq9XY3d1le3ubSCSihPA7mzmd9JvnDWkdc5dkqIsy+5UWiXyDe7EyNzfL3N+qsJVtUG1KtKTD3351Os5AMt8kmW8qHppJp0ajVqFVqxB4/vqmc+6dTa9OwPb69evMz8+zsrJCo9HA4XAwPDzMhQsX+OCDDxgdHcXj8SgZMCqVir29vWeL8uTw1RHFarU+dSIqlQqtVovD4aC/v59QKKQo3VkIxeNxUqkUuVwOvV6vzEtfhQzslJrcjZX5MlLmi3CJxzt1MsUmlcZXTOJHSGfe2Su32NxrsFtqUWlI2Azq5zoDncDtwsICX3zxBbdv3+bhw4fE43Fl3/573/seP/jBD5ienmZwcBCHw/HMGOE3EqXjdblcLmXfXaVS0Wg0UKlUVCoVUqkUOzs7ZLNZDAYDFosFjUajDGey3B6C8jWRvZJIKt9kOV3j5maZ+USVpXSN/YpIrdl2ZV83ogyVpsReWSSea5CviZTr7aGsJbWjBjKgfWLOkSRJ2Qq/desWt27dIhKJkM/nsVqt+P1+xsfHuXz5MnNzc/T29uJ0OpVkisN8I1EOIwgCDoeDkZERenp6sFqtVKtVyuWyku3RaDRwOp04HA44GKpESWYlU+N+vMKNcJE7sQobu3XyNRHxCIepV6HWlNivtIjsNYjn2kOnVi3gMLVvqCy3M3c2Nja4fv06jx49Ip1OY7FYGBoa4u233+bSpUvMzc0pkZBnWceTfJUoL73Y6MR07Ha7kjV4/vx53nrrLd544w1FpMNPR7bSYiVT40G8wt1YmcVUjeh+nVxVpN46BtP4Guotmf2KSGS/zlK6ynyiwmqmytZ+g1JdVK5bo9Gg1+vp6upibGyMubk5Ll++zJkzZ5R3MK1W69cK8jxeyVI6qFQqTCYTXV1dyg6kIAhK8p3X61Xc5fWdOl+ES9yJlVnN1CnVRZri4SOePKLUdj7yNRFQoVGrsBs1OEwaxXnRarV4PB4GBwe5fPkyMzMzuN1uZSeRF/Q+j8xSOnSeHLVajVarxWg04vf7uXTpElNTUwQCAUwmk/J5n03LpSEz703Y+WHQSo9di/bABT0taARwmtRM9Rj5xTkXPwxamfAZcR4MYSqVSkklmpqaYnp6Gq/XqyThHVUU/ZVFeZInh7RgMEhfX5/yanRTlCjUREw6gUmfkSsjVq6O2Rj3Gui2arAb1eg1qhdeGxw1ggq0ahVWvUCXVcugW88bARM/mrBxod+M36FtOyhVkZYoYzQa6e7upu8gBfdl3y57EY5ElOexXWzx+UaRO9Ey0f0GggpGPHo+mHLwn95w8cNxGyNdenSa9gLuuLHo1fjtWq6MWPn5WSe/OOfkzWErZr2aXEVkKVXl45UCnz0ukKu2Dn/9tfDaRclX2xd272CCj+43qLck+pw6zvlNXBw0M9tnZrrXSL9Lh92oRqd+vQJpBBUWvUCPTcuYV8/5PjMXB8xc6DcT6jZiN6iJZxsspqvcjpX5MlJiKVWl3DgeF1E4SrN7FrWWRKbY4m6szC/v7/OPD7P8fq1IbL+OTq1iusfIz2Yc/Lc3vfxowk6o24DTpH5t841aBRa9wIBTzw/Gbfxsxsnfzro432/CaVJTqIk8SFT43/f2+ehBlt8sFVjO1MjXRFrHsYA6DkuR5XbMqdKQyFZENnZq3Nsq86+Pi/xxvchCskqlIeG3aznTa+LqqJUfTdi5OGDGbVZj0BydOD6bhjMBE38xbuOdkI0L/SaGPXrsRjXxbJObm+3Ns883iixnaiRyDQo1kVpTQpTkdhjiGBA6sZzXjXzwL1Ns8TBR5V8W83w0n+XjlQKR/QZ6rUDIZ+C9CTt/N+vmWtBOj12HWX80z40KGHDpeXPYwl+ddfDXZ5280Wem26pFlOB+vMKvFrL843yWf31cbAdD68czXB3maK74FSnVJR5v1/h0Jc///HKXT1YKrGRq1JoSg249Pz/r5OdnXXwwZWem14jbrEHzEmds0gmMePS8NWLhb2ddvBuyMdNrwqwVyBQafLFR5J8eZvnvt3b4MlIiXWhSOwUL2Ze4xKOn2pSI5xp8GS3z60d5Pl0tcDdWJrxXRy3A3ICZt8esXAvauDRoYaLbQI9dh93w1c6ARlBh1Ap4LBpGPHrOB0y8PWrl/Uk7Z/1mXGYN2YrIo2SV6xslfrdS4NePciymq+xXRGUD7CQ5UVE6NESZQk1kbbvGHx4X+T/39/ndcp6N3TqiJBNw6nhz2ML7U3beDdk44zfiMmvQH5pvBBXYjGr6XTreHrXysxkH74RsTPeasBrU7JWbPIiX+efFHL9ayPEgXiaRa9BoyUgnM1I9k1MhiiS3hclVRWLZOo9SVe5tVbi1WWI+USGyV0enUTHSZeCNgIlLgxa+P2RhusdEn1OHWSfgMKoJdRs532fi8pCFuX4zEz4jHouWcl3kYaLK7WiZ29Ey8/EKa9s1tostyg0J8fjm8BfiVIjyJC2pvSW8vlPjN0t5PnqQ5f8+zLG+U0MjwJBbz1ujVv7+gov3p+zM9ZtxmzX47Tp+PGnnr2Yc/HTGwYzfiFkvsFdu8m+RMv/jy13+8WGOL8IlEvnm1+7znySnThQOLKfWaltOKt9kbbvGp6sF/vlRnusbRaJ7ddSCimGPnisjFv7mrJOfTNs54287A9WGxGKyyicrBf7fYp5bkRLxXIP9cotSXaIpvpwgL/PZo+BUivIkDVFmp9TixkaJXy3k+O1SnrtbZZL5Jha9muleEz+ZdvBO0EaPTUtDlAnv1rgRLvEvi3l+t1LgUapK45tYhtxeb73y91+SUy9KB0mGUl1kK9vg3yJl/uH+PjfDJSJ7dWrNdtDz3laFT1cL/NNCjvlEhd1Ssy3Gcd3NI+JbI4pMe0jbq7S9tC/CRR4mK0T326IU6xLLmSr3tyrcif0pR+y4QiNHybdGlCeRZGiJkK2I7JZaNESZpthOU6o2X4NvqwKV6sVTj74pQiqdOfx/3wpkoNFqJ35L8p/cavE1jFXHIYYkSe08h0oFYe3xxuG/f8cJIEkS+UKRXC6PUCq3X3X4jpOlXK5w4+a/8b/+4SOEVut4dtO+4/nU6jUeLS7xye//FaFTie47Tge1eh3B2+U5/P/fcQKo1RrcbhcetxshODZ6+O/fcQIYjQbeOHuGt69cRjht1en+o6LTahno7+Pihdlv5+Lx3yNarZaAv5dLc9+Jcip57aLoNSo8Fg1OoxqjVkD92n/x6NCpVVgNAl6rFq9Vi/YIM2uex2u/RV0WLW8OW5jtN9Pv1GF+zgs5pw23WcNEt5F3gzb+YsyKw3i0pW6/itcuitWgZtzb2cZtZ0IOunQ4DjIhj4KjinYJKjBqBbwWDRPdBt7oa5/zbL+Z0S4DRu1rv11wHKIYtCq6rFrOBkz8dMbBjyZsfH/YQr9Lj0WvPpZg34ugOhiuXCY1IZ+RD6YcfDDV3jwb8xqwGdQvld70TXjtPyOo2i94mnUCLrOGoNfI5SELfzlt54MpO5cGzfTa26/gnRSCCkLdBn4YtPGXMw4lY6bPqcNu1BzMhUebWf88XrsoHVSqdiGBbpuW6V4T74bsvD9l580RKyMePWadgF6jQi28fKj8ZT/PgRBadTtHzKJXc8Zv5FrQxvuTdq6MWOl36bEZTmb+OzZRnoXdqGam18h7E3b+/oKLq2NtgYy6V7nNL45GaE/is30mfjJl579ecvP9YSt9Tt2xzRvP40TPwKxTM+Bqv6TzF+M2Lg9amOk1MeTW02VpDxtHVRGCA/fcblDTa9cx7jVwod/MlREL7wRthLoNeCxadMc1cTyHkz8DwKAV8Jg1vNHXzkz5Lxfc/HjSzsDB+yrCN9yKVQFqAXxWLWcDRn52xsF/Pu/irVEro10GTPp2cYPTwqkQRS2o0GkE7EYNfruWca+B831m3h61cnnIwlm/CZdZ88zc4echqNreX79Lx5VhK28dHO/MgTW6zRrM+nZ9ludVmThuToUoT6JVq3CZNEz1GPnrM07+6kzbGwo4dW0P6PAXnoNGUGHTq5npNfF3F9z89VknPxizMeTWY9G363+dRk6dKCqVCkFou9FGXTvEEew28l7Ixk9nHFwZbTsDBs2zQzY6tQqbof2G77VQ28X9/rAFn02LzaDGoBXQqNuWcVwu7suiXFaz2aRWqyn1vDplw08am0HNoFvHO+M2/uaMk3dDNs73mfE7/vRKhApQqzqvQGgZ9ui5PGTh/cl2XvFcvwm7QXhtr+y9KE9WYG00GjQaDer1OqL4dEEBRZROBbxYLMbe3h7NZvNUiMLBRK1Rqw4WnwbeHrXyt+ddzPab8dm1GLQqrAY1wW4j7wRt/P0FF5eHLAScWkxaAeEUjVOdVKJOP5ZIJEKhUHjqM+pf/OIXH0YiEQCl2l2ntoogCEo3uZOks/DUqlWY9WrsRjXdNi0mXXvh5zJr0B6Uhhpw6RjxtF9mNWrVykr8pIeqTlXBTCZDJBJhY2OD1dVVNjY2qNfrWK1Wzpw5Q19fH6rf/e538i9/+Uvy+TzVahWTyYTb7cbn83H58mXeeeedw8c/cSS5/ZJPJ3ter1EpyXka9Z8qD520EE9SqVTIZrPcuHGDBw8ePFXAzuVyMTg4yE9+8hNmZmZQhcNh+d69e6RSKaVPSqlUQqPREAwGOXfuHG63G5fLRXd3NxaLRWlAedJ0KsFqNBpkWabRaKDX609FAzbpiX5lsViMnZ0dMpkMi4uLxONxVCoVDofjqeoVExMT+Hw+VKIoypIkkUwm2dzc5NatWywtLbG9vQ2ATqdjcnKSqakpZmdnCQQCmM3mY6u2+jyy2Sy1Wg2j0Yh00O7cZrMp5axOElEUqVarrK6u8sknnxCJREgkEjQaDYxGo1Lgc25ujv7+ftxut/JdpVVHp2FmOp1mc3OTcDhMMpkkk8lgNBqx2+0EDpqBBYNBurq6cLvdSqGYk6BT1L/TunBwcFCpxnQStFotpelAPB4nHA4TjUaJRCJKwbpOX+KhoSH8fj8+n0+pT9zhmZ2GdnZ2WF9f5/Hjxzx+/Fhp2yrLMj6fj3Pnzild2zwejzKkHbc4CwsLPHjwgOvXr6PX67l27ZpSW/k46bi4+/v77OzsEIlEWFlZURp3Go1Gurq66OnpIRQKEQqF6O/vx2QyPdMJeaYonSbMpVKJUqnE/fv3WV5eZmNjg1qtprTMczqdXL16lYmJCaVq0XGysLDA/fv3+cMf/oBer+e9995jenr62EXplGu8d+8eN2/eVBpYl0ol3G43Z8+eJRgMMjIy8lRz6K/qsKH+8MMPP3zqfwCNRoPRaMRmsyml1jv9tgRBUIoiZzIZ1Go1jUaDSqVCo9FQSq4/r9rqUbG9va0Mt2q1WikE53K5Dn/0yOm03kgmk4TDYZaWlpifn2d+fh7xoGeZ3+9nYmKC2dlZgsEgQ0NDWK3Wp5oBHRaEr7KUDp0/dSxnd3eXSCTCwsIC6+vrRKNRzGYzDocDn8/H5OQkly5dwuPxYLfbDx/uyOlYymeffYZer+fHP/7xsVlKIpEgFosp9yKRSFAsFqlWq0xMTDAzM0MoFCIQCODxeJR2Jy/Cc0V5EvGgGVjn6YhEIkQiEaLRKLlcDgC32610BR0YGFCeWoPB8Frmm+MUpVOHeG9vj1QqpTyUqVSKYrGIWq3G6/USOGjrNDQ0hNfrxWazKbWaX5RnDl/PQhAEdDodNptNaf/t9XoVK8rn86TTadbW1iiVStRqNWXY0+l0B4HGoxWmM3xFIhE0Gs1rGb7kg7aB5XKZnZ0dVldX+fLLL7l9+zZLS0tUq1WMRiMDAwPMzs4qfZI7VfNepYPGC1vKYarVKpVKhUwmQyaTIZVKsba2xv379zGZTIojMDAwQDAYZHh4mOHh4cOH+UYch6U0m01WV1dZXl4mHA6TyWTY29sjn88jCAIXL15UFn1er5euri6lVdar8sKWchitVqtUWu3u7sbj8SAIguI6d2rAd4KbwkEL10ajgSRJT5XIfdknqcNRW0rn+Ww2mxSLRXK5HNvb29y7d0+xjN3dXQRBwGaz0dfXx9WrV7lw4QLDw8O43e6n+pa9Kq9sKU8iHvQ3zOfzZDIZtra22Nzc5P79+2QyGfR6PW63m+7ubkKhEGNjY4yOjior71cV5agtRT4IrW9vbyt9Ljt9gTvzRiAQYHJykuHhYQKBAG63W2ko8KrXcZhXtpQnEQ5asur1eux2+1NddHQ6neIk7O3tUT3o0l2tVqnX6wgHLaU0mnZK6Mtc2FFYSueZ7HS52NjYYHFxkfn5ecLhMKlUSpnEO40zJycnlerlJpPpSAXhqCylQ+dQHcspl8tsbGxw+/Zt1tfXicViNJtNtFotPp+PUCjEm2++qTgOvKQoR2EpnXPe3NxkbW2N27dvEw6HlWHKaDQyOjrKzMwMZ8+epbu7G7PZ/FR46WXO+UU4UlGepOO17O/vE4/HSafT7OzssLCwQCKRAMDhcDAwMIDP56Onp4dgMIjf71cWqV/HNxFFPtgBDIfDLC4u8mQD0k6Qs9NwtLu7W4lTvapH9TK8NlEOU6vVqFar/Pa3v+XevXtkMhmKxSK1Wg3rQcfua9euMTs7i9lsxmAwKEG6r7oBLyuKdNA1vF6vK+dz/fp1fv3rX1OpVGi1Wuj1ejweDyMjI1y8eJELFy6g0+leeOF3FBybKKIoIooiyWSSdDpNIpFQAnfFYpFms0nfQe92v9+vDBnPi0K/rCi1Wo1CocDq6iqbm5tsbW0Rj8eJx+M4HA68Xi/j4+NKN2yv16t4lV91Dq+DI5noXwThoPmkw+HA4/HgcDgwmUzKBTcaDQqFAjs7O+TzeRqNBmq1WtmifnLx2bGcr5voO0NUR4x4PM7jx4+Zn59ncXGR9fV1arUaDodD6UN27tw5pTT8s7pbHAfHZilPIkmSEsQsFAqEw2FlmyCZTNJoNDAYDNjtds6dO8fMzIyyEfTkFsHXWUqr1aLRaLC9vU08Hufu3busrKyQz+dpNpvKSnx8fJzJyUmlaYJer1fmjeMWhOO0lCdRPdGHxGq1YjabcTqdeDwebDYbKpWKcrlMIpGgWq2Sy+WUtnsdF1Sj0XylpTgcDvL5PNFolLt37/LgwQOWl5dZWVkhk8ko/bJmZ2c5c+YMoVBI6dSn1+sV6zgJQTgpS3keqVSKmzdvKqvoTidWvV7P+fPn+fnPf87AwAAOh+MrLWVwcJBoNMrt27f5zW9+QzKZVFxfi8XC9773Pebm5rh06dKpyNY5zKkTpVQqKa5pOBwmHo+TTCbZ399X1gw9PT14vV5kWWZ3d5fr168jCAKXL1/GarWi1WpJJBJEo1FisRgajQav10tfXx9+v5+hoSECgQA+n+9YvaoX5dSJIh+EOjqbSEtLSywtLbG2tkY6naZeryt9J/v7+1GpVNy7dw9RFAmFQkrEoNNZz2QyEQgECAaDTE9PMzw8jNVqxWAwHP7pU8OpFIUnogKlUolsNks0GmV1dZXV1VVyuZzSkVWWZQqFArIsY7FYlHRbi8WC3+9nampKSVKw2+2YTCbUR9xa96g5daI8i2azqXSrXl9fJ37QUzKZTJLL5ZAPurFqNBo8Ho+SpDA8PEwwGFS6vB7nWuOb8K0QRT4I2TQPGkl3dj4/+eQTlpaWkCQJnU6HxWLhwoULXLx4Eb/fT1dXl+LensR641X5VohymHw+z97eHg8ePCASiVCpVNBqtbjdbsbGxhgbG1Oi1d9G/j+lZ7cxHf87SgAAAABJRU5ErkJggg==;" vertex="1" parent="1">
          <mxGeometry x="700" y="-31" width="38.35" height="41" as="geometry" />
        </mxCell>
        <mxCell id="7TJYjL8CNuQm4D0-0RJm-43" value="" style="shape=image;verticalLabelPosition=bottom;labelBackgroundColor=default;verticalAlign=top;aspect=fixed;imageAspect=0;image=data:image/png,iVBORw0KGgoAAAANSUhEUgAAAGUAAABsCAYAAABzc3wHAAAAAXNSR0IArs4c6QAAAARnQU1BAACxjwv8YQUAAAAJcEhZcwAADsMAAA7DAcdvqGQAACO9SURBVHhe7Z1pdxvnled/KOz7ShAkwH0BuEmyKEpRLFvpWHZip5PuzmROd8+reTdfwx9lzpx5MWc649PTSfcksR13IstSWytFcRUJAiBWbth3VNW8AFGRGFmWZIqku/07R29EoFBV/7rPc5/73LpXJcuyzCmk0WhQqVRIJpMkEgnC4TCRSIR0Oo1KpcJgMDA6OkogEMDn89FqtYjFYkQiEba2thBFEaPRSG9vL4ODgwwPDxMIBPB4POj1ejQazeGfPDWoTpsooihSr9fJ5/Nsb2+zvLzM6uoqa2trFItFLBYLfr+fgYEB5ubmGBsbw2KxIIoi+/v7zM/PMz8/TzKZZGdnh2q1is/nIxgMMjk5yfDwMC6XC4vFgk6nQxCEw6dw4pw6UXK5HOvr66ysrLCwsEA+n6dYLNJoNOjv7+ett96ip6cHh8OB2+3GarWi1WqRJIlGo0E2m2V/f5+dnR3W19e5e/cuxWIRnU6HzWbD4/Fw5swZgsEgw8PD6PX6w6dw4pyoKLIsI8sy5XKZYrFIPp8nHo+zsrLCxsYG4XAYp9Op/JuamuKtt97C6XSi0+kOH05BkiRKpRKRSITbt28Ti8UUoRqNBsFgkPHxcSYmJnC73TgcDqxWKwaD4fChToQTFUWSJERRJBKJsL6+zvLyMhsbG+zu7iJJEnq9njfeeIPp6Wn6+/vp7u7GarWi0WhQqVSHD6cgyzKSJFGr1SgUCqTTaeLxOLdu3WJ5eRkAk8lET08P4+PjTE5OMjY2htfrPXyoE+FERGk2m5RKJXZ3d0kkEkQiETY3N5U5wGg04vP5GB4eZnBwkL6+PlwuF2azGZVK9VxBnqQjerFYJJvN8vjxY8LhMPF4nL29Per1Og6HA5/Px9jYGP39/fh8PhwOByaTCUEQXvi3jpITEaVSqbC1tcXS0hI3btwgmUyyu7uL2Wymt7eXiYkJzp49y+XLlxEE4cgm41arRaFQ4Msvv2R+fl6Zs2q1Gv39/YyNjXHx4kVGR0fp7u5Gq9Ue2W+/DMcmSrPZpF6vc+fOHVZXV8lkMmxvb7O9vY3VasXj8TA1NcXo6ChOpxOXy0VXV9dLWcbXIUkSzWaT3d1d9vb22N/fZ3l5mfv371OtVlGpVHg8Hnp6ehgYGGBiYoKxsTG0Wi1qtfrw4V4br02UziRer9efmsg//vhjFhYWqFQqqFQqzGYzw8PDjI+PMzs7y/Dw8LEMG515Z35+nhs3bhCJRMhkMlSrVfR6Pd3d3czOzjI7O4vFYsFqtWI0GtFqtUf6oDyL1yZKx0VNJBIsLS0RjUaJx+MkEgmq1SpdXV0MDAwwOTlJb2+vMpabzWaA13rRHIgCkM/n2d/fJx6PE4vFWF1dJZVKkc/ncblceL1e+vv7GR8fZ3x8HKfTiV6vf63nd6SidCbWUqlEoVAglUqxsbHB2toa29vb5HI5rFYrbreboaEhhoeHCYVC2O12LBYLHIMYX8Xe3h6ZTIb19XU2NzfZ2NigWCxSr9fxeDwMDAwQCoXw+/14vV7Fco5yzutwpKI0Gg2q1SrhcJjV1VVu3rxJOBxGFEVsNhtut5uLFy8yOTnJwMAAdrtdcW87YpyUKJIkIUkSrVaL7e1tZfG6tLREPp+n1WrhcDgYHR3l3LlzBINB/H4/Op3uyEM2RyJKrVYjl8sRi8VYWVkhk8mQTqeJxWKo1WpGRkbo7++nr6+Pvr4+uru7sdvtp2413bkVlUqF3d1d0uk0yWSSaDRKNBolnU4r7npXVxfd3d1MT0/T19eHzWY7MmfgpUXpfLwzUbZaLXK5HNFolLt37/Lpp5/SbDYRRRG1Ws34+DjvvPMOoVCIoaGhw4c79TSbTZaXl7lz5w43b95ke3tbuT6bzcZPf/pT5ubm8Pv9GAwG1Go1KpXqGw1pryxKLpdjb2+PtbU1YrEYyWSSdDpNOp2mr6+PQCBAT08PQ0NDDA4O4nQ6sdlshw936pEkiWw2q1j+1tYW8Xiczc1NstmssrgNBAIMDg4yODj41Bz5KrywKB0fv1qtUigUiMfjRKNRHj16RCKRoFKpYDQa8Xg8TExMEAwGGRgYoKurC71e/42enNNA59pTqRSbm5s8evSIjY0NSqUSsixjs9kYGhpifHycQCBAb28vFosFvV6PVquFl5gvX1iURqNBPp8nFospJxSLxahWq2g0GpxOJ6FQiMuXLytBPoPBoKyKX/SETisdR6DRaFCr1UilUsTjcR49esTm5ibb29sIgoDBYFDiacFgEJ/Ph81me6l78FxR5IMFYCqVUoJ6sViMcDhMNpulUqkwODhIT08P3d3dDA0NMTU1hcFgeG4U998DpVKJXC5HOBwmFosRj8eJRCKEw2F6enro7+9XnJvOiOFyuV5o4flcUTpPxx//+Efu3LnD8vIyOzs7iKKI1Wqlq6uL999/n5mZGZxOJwaD4c9c3H+vSJKELMu0Wi2q1Sr7+/t8+umnfPTRRwAIgoBGoyEQCHDhwgUl2v0i65qnROl4VNlslkQiQTqdJpPJsLa2RiqVolwuY7PZGB8fx+fz4fP5GB0dxev1otfrj8wl/LYhiiK1Wo3NzU1WVlbY3t4mmUwSj8dpNpvY7XbFcvx+v7IsMBqNz3yAVZIkybIsI4oizWaTSqWiTODr6+uEw2Hq9TpqtRqXy8X4+DhXrlyht7eXrq4uNBrN1yr/HwVRFGm1WkSjUVZWVnj48CHRaJTd3V20Wi1ms5lQKMT09DTBYBC3263Mu50HWqVSoWq1WnKr1WJ/f59MJsPy8jKPHz8mmUxSqVRoNpsEAgH6+voYGxujr68Pn8+HyWRSvKrDSv9HpTPSlMtl8vk8Ozs7RKNRFhcXSaVS7O7uYjQacbvdBAIBhoaGGBkZwefz4XQ6laFNtbOzIyeTScWb6BxAFEXcbjc9PT2MjIwwNDSkhNW/bufvO/60hMhkMiwtLbG5uUksFiOTyVAulzEYDAQCAcbGxhgcHMTv99PV1YXVakX1+eefy7/61a/Y3d0lm81Sr9ex2WwMDg4yNzfHlStX0Gq16HQ6dDrdU2b2HV9Nx3PtZOdUKhVyuRw3btzg7t27JJNJWq0WOp1O8VyvXbtGKBRCfe3atQ9v3bpFLpejUqmg0+no6+vj3LlzTExMMDQ09GfrjZMWpN6SqNRFNnbrLGdqLKWqbO7V2a+IiJKMXiOgUoFwgufZuU9qtRqdToder8doNCoiZbNZyuUy5XKZer2OLMsMDg7i9XpRX7x48cPFxUVarZayCAwGg3z/+98nEAhgNBoP/96JU6mL7FdEboSL/GG9yI1wiZV0jXxVxKAT6LJoUAsqNMLJiXIYQRBQq9Xo9XpkWSaTyVAqlajX6zQaDWRZZmxsjJ6enralhMNhjEYjZrOZZrNJoVAgkUiws7NDqVQCUCzlJDwtSZapt2QyxSYr6Sq3omV+v1ZgKV0llW9SqovUWhL5mkgy3+TxTo3sgdWoBVALKtSqkxlyO0kikUiEhw8f8vnnn3Pr1i22trao1Wqo1WpkWcZgMCgRZ0UUt9uNx+NBo9FQrVbZ2tqiUChQq9UQRRFJkhRzPM6JvtaUKNYkkvkGa9t1FlNV5uMV7icq7JVaVJoyLQkaokyxLrFTapLINWlKMpIMLQkkGTRqAUHVFug4EEWRSqXC3t6e4iIvLCywsLBAMpnEbDYrG2WiKKLRaP4kyrvvvvthOBxmbGxMSVwwm82k02ny+Ty7u7uEw2G2trYQBAG9Xq/Eco6DZL7BcqbG79eK3NgssrFbZ7vUotaUkJ4Vi5BBlGVKdYlkvsn6Tp18VcSoFTBoBUy641ngVioVNjY2uHfvHh9//DHLy8vE43Gq1Sq9vb1cu3aNsbExjEYjpVKJZrP556KMjIwwNjbG0NAQTqcTQNmE2tvbY29vT5mkOpkpsiyjVquPdCXfFGVKdZHtUpPNvQaLqSoLySoPExWi+w2KdYl6S+ZZenSQZag1ZfI1kf2ySL0l0ZJkai2ZelOmKba/rRFUR+IMdIIi1WqVbDZLMpnk8ePHPHr0iMXFRSUB0Ol0EggEmJmZ4eLFi1itVkqlkpKw8WfDVycM0BFnamqKgYEB3G43hUKB7e1tJfs9HA4rnprZbD5SZ6DckIhlG9zbqvDPi3nuxMosp6vka+JzhfgqJBlyVZH13TqR/TrxbBNJBr1Ghd2oPjJnQJZl0uk0q6urfP7553z22Wc8fPiQRCKBJElMTU1x9epVrl69yqVLl/B6vZTLZSUc85QoHUvpRDQ7WSU6nQ6DwYDNZsNut+PxeNBqtcpOY7FYZGdnh0KhQLlcRpZlBEF4qb2DTtSt2pTIVVqs79S5v1Xh7laFpXSNrWyDYk2k9jWW8XXIB3NLS5QpNyXyVZHdSotCTaTalA4sBtTq9jl//Zm36WRfJpNJ5ufnefDgAfPz82xtbSlxwtHRUa5cucL58+eV1NhO6u3+/j6JROL5ogQCAWX/XKPRYDablZBAT08PsixTq9XY3d1le3ubSCSihPA7mzmd9JvnDWkdc5dkqIsy+5UWiXyDe7EyNzfL3N+qsJVtUG1KtKTD3351Os5AMt8kmW8qHppJp0ajVqFVqxB4/vqmc+6dTa9OwPb69evMz8+zsrJCo9HA4XAwPDzMhQsX+OCDDxgdHcXj8SgZMCqVir29vWeL8uTw1RHFarU+dSIqlQqtVovD4aC/v59QKKQo3VkIxeNxUqkUuVwOvV6vzEtfhQzslJrcjZX5MlLmi3CJxzt1MsUmlcZXTOJHSGfe2Su32NxrsFtqUWlI2Azq5zoDncDtwsICX3zxBbdv3+bhw4fE43Fl3/573/seP/jBD5ienmZwcBCHw/HMGOE3EqXjdblcLmXfXaVS0Wg0UKlUVCoVUqkUOzs7ZLNZDAYDFosFjUajDGey3B6C8jWRvZJIKt9kOV3j5maZ+USVpXSN/YpIrdl2ZV83ogyVpsReWSSea5CviZTr7aGsJbWjBjKgfWLOkSRJ2Qq/desWt27dIhKJkM/nsVqt+P1+xsfHuXz5MnNzc/T29uJ0OpVkisN8I1EOIwgCDoeDkZERenp6sFqtVKtVyuWyku3RaDRwOp04HA44GKpESWYlU+N+vMKNcJE7sQobu3XyNRHxCIepV6HWlNivtIjsNYjn2kOnVi3gMLVvqCy3M3c2Nja4fv06jx49Ip1OY7FYGBoa4u233+bSpUvMzc0pkZBnWceTfJUoL73Y6MR07Ha7kjV4/vx53nrrLd544w1FpMNPR7bSYiVT40G8wt1YmcVUjeh+nVxVpN46BtP4Guotmf2KSGS/zlK6ynyiwmqmytZ+g1JdVK5bo9Gg1+vp6upibGyMubk5Ll++zJkzZ5R3MK1W69cK8jxeyVI6qFQqTCYTXV1dyg6kIAhK8p3X61Xc5fWdOl+ES9yJlVnN1CnVRZri4SOePKLUdj7yNRFQoVGrsBs1OEwaxXnRarV4PB4GBwe5fPkyMzMzuN1uZSeRF/Q+j8xSOnSeHLVajVarxWg04vf7uXTpElNTUwQCAUwmk/J5n03LpSEz703Y+WHQSo9di/bABT0taARwmtRM9Rj5xTkXPwxamfAZcR4MYSqVSkklmpqaYnp6Gq/XqyThHVUU/ZVFeZInh7RgMEhfX5/yanRTlCjUREw6gUmfkSsjVq6O2Rj3Gui2arAb1eg1qhdeGxw1ggq0ahVWvUCXVcugW88bARM/mrBxod+M36FtOyhVkZYoYzQa6e7upu8gBfdl3y57EY5ElOexXWzx+UaRO9Ey0f0GggpGPHo+mHLwn95w8cNxGyNdenSa9gLuuLHo1fjtWq6MWPn5WSe/OOfkzWErZr2aXEVkKVXl45UCnz0ukKu2Dn/9tfDaRclX2xd272CCj+43qLck+pw6zvlNXBw0M9tnZrrXSL9Lh92oRqd+vQJpBBUWvUCPTcuYV8/5PjMXB8xc6DcT6jZiN6iJZxsspqvcjpX5MlJiKVWl3DgeF1E4SrN7FrWWRKbY4m6szC/v7/OPD7P8fq1IbL+OTq1iusfIz2Yc/Lc3vfxowk6o24DTpH5t841aBRa9wIBTzw/Gbfxsxsnfzro432/CaVJTqIk8SFT43/f2+ehBlt8sFVjO1MjXRFrHsYA6DkuR5XbMqdKQyFZENnZq3Nsq86+Pi/xxvchCskqlIeG3aznTa+LqqJUfTdi5OGDGbVZj0BydOD6bhjMBE38xbuOdkI0L/SaGPXrsRjXxbJObm+3Ns883iixnaiRyDQo1kVpTQpTkdhjiGBA6sZzXjXzwL1Ns8TBR5V8W83w0n+XjlQKR/QZ6rUDIZ+C9CTt/N+vmWtBOj12HWX80z40KGHDpeXPYwl+ddfDXZ5280Wem26pFlOB+vMKvFrL843yWf31cbAdD68czXB3maK74FSnVJR5v1/h0Jc///HKXT1YKrGRq1JoSg249Pz/r5OdnXXwwZWem14jbrEHzEmds0gmMePS8NWLhb2ddvBuyMdNrwqwVyBQafLFR5J8eZvnvt3b4MlIiXWhSOwUL2Ze4xKOn2pSI5xp8GS3z60d5Pl0tcDdWJrxXRy3A3ICZt8esXAvauDRoYaLbQI9dh93w1c6ARlBh1Ap4LBpGPHrOB0y8PWrl/Uk7Z/1mXGYN2YrIo2SV6xslfrdS4NePciymq+xXRGUD7CQ5UVE6NESZQk1kbbvGHx4X+T/39/ndcp6N3TqiJBNw6nhz2ML7U3beDdk44zfiMmvQH5pvBBXYjGr6XTreHrXysxkH74RsTPeasBrU7JWbPIiX+efFHL9ayPEgXiaRa9BoyUgnM1I9k1MhiiS3hclVRWLZOo9SVe5tVbi1WWI+USGyV0enUTHSZeCNgIlLgxa+P2RhusdEn1OHWSfgMKoJdRs532fi8pCFuX4zEz4jHouWcl3kYaLK7WiZ29Ey8/EKa9s1tostyg0J8fjm8BfiVIjyJC2pvSW8vlPjN0t5PnqQ5f8+zLG+U0MjwJBbz1ujVv7+gov3p+zM9ZtxmzX47Tp+PGnnr2Yc/HTGwYzfiFkvsFdu8m+RMv/jy13+8WGOL8IlEvnm1+7znySnThQOLKfWaltOKt9kbbvGp6sF/vlRnusbRaJ7ddSCimGPnisjFv7mrJOfTNs54287A9WGxGKyyicrBf7fYp5bkRLxXIP9cotSXaIpvpwgL/PZo+BUivIkDVFmp9TixkaJXy3k+O1SnrtbZZL5Jha9muleEz+ZdvBO0EaPTUtDlAnv1rgRLvEvi3l+t1LgUapK45tYhtxeb73y91+SUy9KB0mGUl1kK9vg3yJl/uH+PjfDJSJ7dWrNdtDz3laFT1cL/NNCjvlEhd1Ssy3Gcd3NI+JbI4pMe0jbq7S9tC/CRR4mK0T326IU6xLLmSr3tyrcif0pR+y4QiNHybdGlCeRZGiJkK2I7JZaNESZpthOU6o2X4NvqwKV6sVTj74pQiqdOfx/3wpkoNFqJ35L8p/cavE1jFXHIYYkSe08h0oFYe3xxuG/f8cJIEkS+UKRXC6PUCq3X3X4jpOlXK5w4+a/8b/+4SOEVut4dtO+4/nU6jUeLS7xye//FaFTie47Tge1eh3B2+U5/P/fcQKo1RrcbhcetxshODZ6+O/fcQIYjQbeOHuGt69cRjht1en+o6LTahno7+Pihdlv5+Lx3yNarZaAv5dLc9+Jcip57aLoNSo8Fg1OoxqjVkD92n/x6NCpVVgNAl6rFq9Vi/YIM2uex2u/RV0WLW8OW5jtN9Pv1GF+zgs5pw23WcNEt5F3gzb+YsyKw3i0pW6/itcuitWgZtzb2cZtZ0IOunQ4DjIhj4KjinYJKjBqBbwWDRPdBt7oa5/zbL+Z0S4DRu1rv11wHKIYtCq6rFrOBkz8dMbBjyZsfH/YQr9Lj0WvPpZg34ugOhiuXCY1IZ+RD6YcfDDV3jwb8xqwGdQvld70TXjtPyOo2i94mnUCLrOGoNfI5SELfzlt54MpO5cGzfTa26/gnRSCCkLdBn4YtPGXMw4lY6bPqcNu1BzMhUebWf88XrsoHVSqdiGBbpuW6V4T74bsvD9l580RKyMePWadgF6jQi28fKj8ZT/PgRBadTtHzKJXc8Zv5FrQxvuTdq6MWOl36bEZTmb+OzZRnoXdqGam18h7E3b+/oKLq2NtgYy6V7nNL45GaE/is30mfjJl579ecvP9YSt9Tt2xzRvP40TPwKxTM+Bqv6TzF+M2Lg9amOk1MeTW02VpDxtHVRGCA/fcblDTa9cx7jVwod/MlREL7wRthLoNeCxadMc1cTyHkz8DwKAV8Jg1vNHXzkz5Lxfc/HjSzsDB+yrCN9yKVQFqAXxWLWcDRn52xsF/Pu/irVEro10GTPp2cYPTwqkQRS2o0GkE7EYNfruWca+B831m3h61cnnIwlm/CZdZ88zc4echqNreX79Lx5VhK28dHO/MgTW6zRrM+nZ9ludVmThuToUoT6JVq3CZNEz1GPnrM07+6kzbGwo4dW0P6PAXnoNGUGHTq5npNfF3F9z89VknPxizMeTWY9G363+dRk6dKCqVCkFou9FGXTvEEew28l7Ixk9nHFwZbTsDBs2zQzY6tQqbof2G77VQ28X9/rAFn02LzaDGoBXQqNuWcVwu7suiXFaz2aRWqyn1vDplw08am0HNoFvHO+M2/uaMk3dDNs73mfE7/vRKhApQqzqvQGgZ9ui5PGTh/cl2XvFcvwm7QXhtr+y9KE9WYG00GjQaDer1OqL4dEEBRZROBbxYLMbe3h7NZvNUiMLBRK1Rqw4WnwbeHrXyt+ddzPab8dm1GLQqrAY1wW4j7wRt/P0FF5eHLAScWkxaAeEUjVOdVKJOP5ZIJEKhUHjqM+pf/OIXH0YiEQCl2l2ntoogCEo3uZOks/DUqlWY9WrsRjXdNi0mXXvh5zJr0B6Uhhpw6RjxtF9mNWrVykr8pIeqTlXBTCZDJBJhY2OD1dVVNjY2qNfrWK1Wzpw5Q19fH6rf/e538i9/+Uvy+TzVahWTyYTb7cbn83H58mXeeeedw8c/cSS5/ZJPJ3ter1EpyXka9Z8qD520EE9SqVTIZrPcuHGDBw8ePFXAzuVyMTg4yE9+8hNmZmZQhcNh+d69e6RSKaVPSqlUQqPREAwGOXfuHG63G5fLRXd3NxaLRWlAedJ0KsFqNBpkWabRaKDX609FAzbpiX5lsViMnZ0dMpkMi4uLxONxVCoVDofjqeoVExMT+Hw+VKIoypIkkUwm2dzc5NatWywtLbG9vQ2ATqdjcnKSqakpZmdnCQQCmM3mY6u2+jyy2Sy1Wg2j0Yh00O7cZrMp5axOElEUqVarrK6u8sknnxCJREgkEjQaDYxGo1Lgc25ujv7+ftxut/JdpVVHp2FmOp1mc3OTcDhMMpkkk8lgNBqx2+0EDpqBBYNBurq6cLvdSqGYk6BT1L/TunBwcFCpxnQStFotpelAPB4nHA4TjUaJRCJKwbpOX+KhoSH8fj8+n0+pT9zhmZ2GdnZ2WF9f5/Hjxzx+/Fhp2yrLMj6fj3Pnzild2zwejzKkHbc4CwsLPHjwgOvXr6PX67l27ZpSW/k46bi4+/v77OzsEIlEWFlZURp3Go1Gurq66OnpIRQKEQqF6O/vx2QyPdMJeaYonSbMpVKJUqnE/fv3WV5eZmNjg1qtprTMczqdXL16lYmJCaVq0XGysLDA/fv3+cMf/oBer+e9995jenr62EXplGu8d+8eN2/eVBpYl0ol3G43Z8+eJRgMMjIy8lRz6K/qsKH+8MMPP3zqfwCNRoPRaMRmsyml1jv9tgRBUIoiZzIZ1Go1jUaDSqVCo9FQSq4/r9rqUbG9va0Mt2q1WikE53K5Dn/0yOm03kgmk4TDYZaWlpifn2d+fh7xoGeZ3+9nYmKC2dlZgsEgQ0NDWK3Wp5oBHRaEr7KUDp0/dSxnd3eXSCTCwsIC6+vrRKNRzGYzDocDn8/H5OQkly5dwuPxYLfbDx/uyOlYymeffYZer+fHP/7xsVlKIpEgFosp9yKRSFAsFqlWq0xMTDAzM0MoFCIQCODxeJR2Jy/Cc0V5EvGgGVjn6YhEIkQiEaLRKLlcDgC32610BR0YGFCeWoPB8Frmm+MUpVOHeG9vj1QqpTyUqVSKYrGIWq3G6/USOGjrNDQ0hNfrxWazKbWaX5RnDl/PQhAEdDodNptNaf/t9XoVK8rn86TTadbW1iiVStRqNWXY0+l0B4HGoxWmM3xFIhE0Gs1rGb7kg7aB5XKZnZ0dVldX+fLLL7l9+zZLS0tUq1WMRiMDAwPMzs4qfZI7VfNepYPGC1vKYarVKpVKhUwmQyaTIZVKsba2xv379zGZTIojMDAwQDAYZHh4mOHh4cOH+UYch6U0m01WV1dZXl4mHA6TyWTY29sjn88jCAIXL15UFn1er5euri6lVdar8sKWchitVqtUWu3u7sbj8SAIguI6d2rAd4KbwkEL10ajgSRJT5XIfdknqcNRW0rn+Ww2mxSLRXK5HNvb29y7d0+xjN3dXQRBwGaz0dfXx9WrV7lw4QLDw8O43e6n+pa9Kq9sKU8iHvQ3zOfzZDIZtra22Nzc5P79+2QyGfR6PW63m+7ubkKhEGNjY4yOjior71cV5agtRT4IrW9vbyt9Ljt9gTvzRiAQYHJykuHhYQKBAG63W2ko8KrXcZhXtpQnEQ5asur1eux2+1NddHQ6neIk7O3tUT3o0l2tVqnX6wgHLaU0mnZK6Mtc2FFYSueZ7HS52NjYYHFxkfn5ecLhMKlUSpnEO40zJycnlerlJpPpSAXhqCylQ+dQHcspl8tsbGxw+/Zt1tfXicViNJtNtFotPp+PUCjEm2++qTgOvKQoR2EpnXPe3NxkbW2N27dvEw6HlWHKaDQyOjrKzMwMZ8+epbu7G7PZ/FR46WXO+UU4UlGepOO17O/vE4/HSafT7OzssLCwQCKRAMDhcDAwMIDP56Onp4dgMIjf71cWqV/HNxFFPtgBDIfDLC4u8mQD0k6Qs9NwtLu7W4lTvapH9TK8NlEOU6vVqFar/Pa3v+XevXtkMhmKxSK1Wg3rQcfua9euMTs7i9lsxmAwKEG6r7oBLyuKdNA1vF6vK+dz/fp1fv3rX1OpVGi1Wuj1ejweDyMjI1y8eJELFy6g0+leeOF3FBybKKIoIooiyWSSdDpNIpFQAnfFYpFms0nfQe92v9+vDBnPi0K/rCi1Wo1CocDq6iqbm5tsbW0Rj8eJx+M4HA68Xi/j4+NKN2yv16t4lV91Dq+DI5noXwThoPmkw+HA4/HgcDgwmUzKBTcaDQqFAjs7O+TzeRqNBmq1WtmifnLx2bGcr5voO0NUR4x4PM7jx4+Zn59ncXGR9fV1arUaDodD6UN27tw5pTT8s7pbHAfHZilPIkmSEsQsFAqEw2FlmyCZTNJoNDAYDNjtds6dO8fMzIyyEfTkFsHXWUqr1aLRaLC9vU08Hufu3busrKyQz+dpNpvKSnx8fJzJyUmlaYJer1fmjeMWhOO0lCdRPdGHxGq1YjabcTqdeDwebDYbKpWKcrlMIpGgWq2Sy+WUtnsdF1Sj0XylpTgcDvL5PNFolLt37/LgwQOWl5dZWVkhk8ko/bJmZ2c5c+YMoVBI6dSn1+sV6zgJQTgpS3keqVSKmzdvKqvoTidWvV7P+fPn+fnPf87AwAAOh+MrLWVwcJBoNMrt27f5zW9+QzKZVFxfi8XC9773Pebm5rh06dKpyNY5zKkTpVQqKa5pOBwmHo+TTCbZ399X1gw9PT14vV5kWWZ3d5fr168jCAKXL1/GarWi1WpJJBJEo1FisRgajQav10tfXx9+v5+hoSECgQA+n+9YvaoX5dSJIh+EOjqbSEtLSywtLbG2tkY6naZeryt9J/v7+1GpVNy7dw9RFAmFQkrEoNNZz2QyEQgECAaDTE9PMzw8jNVqxWAwHP7pU8OpFIUnogKlUolsNks0GmV1dZXV1VVyuZzSkVWWZQqFArIsY7FYlHRbi8WC3+9nampKSVKw2+2YTCbUR9xa96g5daI8i2azqXSrXl9fJ37QUzKZTJLL5ZAPurFqNBo8Ho+SpDA8PEwwGFS6vB7nWuOb8K0QRT4I2TQPGkl3dj4/+eQTlpaWkCQJnU6HxWLhwoULXLx4Eb/fT1dXl+LensR641X5VohymHw+z97eHg8ePCASiVCpVNBqtbjdbsbGxhgbG1Oi1d9G/j+lZ7cxHf87SgAAAABJRU5ErkJggg==;" vertex="1" parent="1">
          <mxGeometry x="800" y="-31" width="38.35" height="41" as="geometry" />
        </mxCell>
        <mxCell id="7TJYjL8CNuQm4D0-0RJm-45" value="" style="endArrow=none;html=1;rounded=0;exitX=0;exitY=0.75;exitDx=0;exitDy=0;entryX=0.5;entryY=0;entryDx=0;entryDy=0;startFill=0;" edge="1" parent="1" source="7TJYjL8CNuQm4D0-0RJm-39" target="7TJYjL8CNuQm4D0-0RJm-42">
          <mxGeometry width="50" height="50" relative="1" as="geometry">
            <mxPoint x="630" y="-40" as="sourcePoint" />
            <mxPoint x="680" y="-90" as="targetPoint" />
          </mxGeometry>
        </mxCell>
        <mxCell id="7TJYjL8CNuQm4D0-0RJm-46" value="" style="endArrow=none;html=1;rounded=0;exitX=0;exitY=0.75;exitDx=0;exitDy=0;entryX=1;entryY=0.75;entryDx=0;entryDy=0;startFill=0;" edge="1" parent="1" source="7TJYjL8CNuQm4D0-0RJm-43" target="7TJYjL8CNuQm4D0-0RJm-42">
          <mxGeometry width="50" height="50" relative="1" as="geometry">
            <mxPoint x="760" y="-50" as="sourcePoint" />
            <mxPoint x="729" y="-21" as="targetPoint" />
          </mxGeometry>
        </mxCell>
        <mxCell id="7TJYjL8CNuQm4D0-0RJm-47" value="" style="endArrow=none;html=1;rounded=0;exitX=1;exitY=0.75;exitDx=0;exitDy=0;entryX=0.5;entryY=0;entryDx=0;entryDy=0;startFill=0;" edge="1" parent="1" source="7TJYjL8CNuQm4D0-0RJm-39" target="7TJYjL8CNuQm4D0-0RJm-43">
          <mxGeometry width="50" height="50" relative="1" as="geometry">
            <mxPoint x="770" y="-40" as="sourcePoint" />
            <mxPoint x="739" y="-11" as="targetPoint" />
          </mxGeometry>
        </mxCell>
        <mxCell id="7TJYjL8CNuQm4D0-0RJm-48" value="&lt;font style=&quot;font-size: 14px;&quot;&gt;区块链网络&lt;/font&gt;" style="text;html=1;align=center;verticalAlign=middle;resizable=0;points=[];autosize=1;strokeColor=none;fillColor=none;" vertex="1" parent="1">
          <mxGeometry x="724.17" y="26" width="90" height="30" as="geometry" />
        </mxCell>
        <mxCell id="7TJYjL8CNuQm4D0-0RJm-51" style="edgeStyle=orthogonalEdgeStyle;rounded=0;orthogonalLoop=1;jettySize=auto;html=1;exitX=1;exitY=0.25;exitDx=0;exitDy=0;" edge="1" parent="1">
          <mxGeometry relative="1" as="geometry">
            <mxPoint x="490" y="-67.5" as="sourcePoint" />
            <mxPoint x="680" y="-67" as="targetPoint" />
          </mxGeometry>
        </mxCell>
        <mxCell id="7TJYjL8CNuQm4D0-0RJm-52" style="edgeStyle=orthogonalEdgeStyle;rounded=0;orthogonalLoop=1;jettySize=auto;html=1;exitX=1;exitY=0.25;exitDx=0;exitDy=0;" edge="1" parent="1">
          <mxGeometry relative="1" as="geometry">
            <mxPoint x="490" y="-44" as="sourcePoint" />
            <mxPoint x="680" y="-44" as="targetPoint" />
          </mxGeometry>
        </mxCell>
        <mxCell id="7TJYjL8CNuQm4D0-0RJm-53" value="" style="endArrow=classic;html=1;rounded=0;entryX=1.001;entryY=0.637;entryDx=0;entryDy=0;entryPerimeter=0;exitX=0;exitY=0.667;exitDx=0;exitDy=0;exitPerimeter=0;" edge="1" parent="1" source="7TJYjL8CNuQm4D0-0RJm-50" target="7TJYjL8CNuQm4D0-0RJm-22">
          <mxGeometry width="50" height="50" relative="1" as="geometry">
            <mxPoint x="630" y="-50" as="sourcePoint" />
            <mxPoint x="680" y="-100" as="targetPoint" />
          </mxGeometry>
        </mxCell>
        <mxCell id="7TJYjL8CNuQm4D0-0RJm-54" value="&lt;font style=&quot;font-size: 14px;&quot;&gt;8.返回验证结果&lt;/font&gt;" style="text;html=1;align=center;verticalAlign=middle;resizable=0;points=[];autosize=1;strokeColor=none;fillColor=none;" vertex="1" parent="1">
          <mxGeometry x="531.15" y="-45" width="120" height="30" as="geometry" />
        </mxCell>
        <mxCell id="7TJYjL8CNuQm4D0-0RJm-56" value="&lt;font style=&quot;font-size: 14px;&quot;&gt;7.进行验证&lt;/font&gt;" style="text;html=1;align=center;verticalAlign=middle;resizable=0;points=[];autosize=1;strokeColor=none;fillColor=none;" vertex="1" parent="1">
          <mxGeometry x="540.15" y="-70" width="90" height="30" as="geometry" />
        </mxCell>
        <mxCell id="7TJYjL8CNuQm4D0-0RJm-57" value="&lt;font style=&quot;font-size: 14px;&quot;&gt;8.返回验证结果&lt;/font&gt;" style="text;html=1;align=center;verticalAlign=middle;resizable=0;points=[];autosize=1;strokeColor=none;fillColor=none;" vertex="1" parent="1">
          <mxGeometry x="524.15" y="-94" width="120" height="30" as="geometry" />
        </mxCell>
        <mxCell id="7TJYjL8CNuQm4D0-0RJm-59" value="" style="shape=image;verticalLabelPosition=bottom;labelBackgroundColor=default;verticalAlign=top;aspect=fixed;imageAspect=0;image=data:image/png,iVBORw0KGgoAAAANSUhEUgAAAL4AAADbCAYAAADTTSt0AAAAAXNSR0IArs4c6QAAAARnQU1BAACxjwv8YQUAAAAJcEhZcwAADsMAAA7DAcdvqGQAABJ0SURBVHhe7d1pcBb3fcDx717PpVtC0vPoACNQzH2DAcfGB3GduiRxHE/iUGcau7WbY/Kmmcz0Vepmpi8aezJpm6QmiZOxU+o4iWPXdsiBjeMjdsBAiDl8AAIkLh1ISHrOvfpCgGGjh0gYIj37/31mdjyz++cxjL7P6r/77D6r+b7vM8n09/eza9cuNm7cyPbt2wF4+OGHWbZsWXCoCBnbtuns7OSBBx7g4MGDtLW18fWvf53a2lpM0wwOv2R6cIUQE8kwDOLxOHV1dTQ0NFBXV0csFkPXL2+ql/fVhHifdF0nGo2SSqVobW0llUphWZYa4eu6TiwWo66ujlQqRSqVIhqNBoeJkDJNk9bWVmbMmEFra+tljx5Am4xzfMdxyOVy9Pf3k8lkAGhtbSWRSASHihDK5XLs27ePdDpNWVkZ8+fPv6zzeyZr+OLyOtU/wKHOo+x8cy/D6Qyu6wWHTCqu6zIwMIDjOJimSU1tDbp2aXt9TdMwDJ32tquY1d7G1OYUuq5L+GHm+z6+7/PGH3bz6xdf4alNm+k7NYDtOMGhoaVrGqZp8sGVy7j9r9fyoTXXEo9FJ+ccX1wevu+TyxfY/NLvePznz9HT169U9ACe72PbNq+/sZPXtu3kRHcPtu3IHj/MbMfh9OAw//6fG9j45LPn1lumSTweIxqNYhjh2/c5tsNQOoNt23jee9O6tWtW89m77mDxvNkSfpgVbJveUwM89O3v8+OnfgFARXkZzalG2q6aRiwWxTCM4B8reY7tMDg0zKEjnZzo7iGdyQJw3cql3PXxdVx3zVIJP8wKBZuevlM89J1HeOLpTQDMm9XOTdev5qMf/lBweOj85OlfsPm3r7K/4zAAq5cv5pMfu40br71G5viqWThvDnNnfSC4OpQWzpvNssULgqthsn6AJS4/TdOwTJPWliaakg3BzaHUkkoyraUJTdOCmyR8Vei6Tjweo7K8jEQ8HtwcSvF4jLJEAtMw/iR+CV8RmjYSfzCAsNM0bWQJrJfwlaHxpz/+cBuJfuS/QRK+UJKEL5Qk5/FD7Pzz+E8+9xsqysr4ypfuY8WShefGeN7IR/one/pIZ7IleUmDhkYsGiGVrCce+FDutW07+NqD/4Vt26xctujceXwJP8TGEn6hYDNweog3du2hp6+ffMG+4DVKgQZUVVawdOFsGuvrKC977/J1CV9BYwn/9NAwHYe7+Mn//YYT3b1QojXU1FRy4wdXsHDuB2hJNZ5bXyx8meMrzvd8HMelULCxbQfbKc2lULDJZLLY9timahK+CAcfPM9jrBMYCV9xmqahGzqjnOouLdrINzSM9f7csY0SoRWNRqipqqSutpp4PBbcXDKiEYvWpiSVFWXBTaOSg9sQG8vBret6DKXTbNu5mxPdfWSzuQteo1RUV1XywRWLqKutJhqNnFtf7OBWwg+xsYQfdsXCl6mOUJKEL5Qk4QslSfhCSXJwG2L5QoHunj7+47uP8vQvN1NWluC+z3yK+XNmBYeG1s439/Kt7z2K47isWLKAT6y7lRtWy1mdUMvl8xw70c33fvRjfrXlJaLRCDddt5qpLU3BoaF16EgXv37xFVzXZfH8uay75SbWSPjhls3m6Ojs5GfPbeLVrdsAjYhloofwu3SK8VyXgm3jA7NnzuTG1au4fpWEH2oje/yTfP9/fsKvXnyJaCTCdatW0NKUDA4NrSNdx3jxlddwXY/F8+dy24dulD1+2BUKBbp7T/HNDT/kqU3PU1aW4HOf/TQL584ODg2tHX/cwzcf/gGO43LNkoV84iO3coN8chtu8smtfHIrxAUkfKEkCV+c4/s+nueV7OKfeRDGWEj44hzbccjm8iW55PMFvDFGj3xyG25jObj1fZ9sNsfO3W/R09dPLle44DVKRVkixtUzp5NsmHLBzSjFDm4l/BAbS/iu69F7qp9HNj7FwcNd5POlGX5NdSU3rF7G0oVzmNqSOre+WPgy1VGc4zikMxmG02kKhdKMnjNv8iNHT3B6cCi4aVQSvuI838d1R5ZS/t3veR75fAHHdYObRiXhi9Dw/LG/eSV8oSQJXyhJwhdKkvCFkiR8xZX6NwdeKglfcbqhE4tGqCwvIxp57xvISo1pmtTX1ZAY49cgSviKMw2D8rIEU1uStDQ1MKW2uiSXZEMdM69qoaaqMvhPHJVcshBiY7lkwfd9XNdj4PQguXwB1/MueI1SYRoGFeUJ4rEolmWdW1/skgUJP8TGEn7YBcO/8yO3snjeLJnqCLW4rktfX5+EL9QyMrVzJXyhFk3TiFiWhC/Uous6FRUVEr5Qi2GY1Nc3FD+rk83lyeXy5Ev45gTV2bbDqf4BNjz2BJuef4nysgSfu2f9+/5CKdM0iEQiRCPWmB+2NlGCZ3X+7OnMV36/g65jJ0mX6DORxMgZjEwmyyu/386et/cTjUa4ftVymt/nVwhGIxZT6mqZN6udeCwa3DypjDv8f/qXB9m6400yOQlfXCgaidA+Yxr33X0ndTXVaJP4WaHFwi/6eyqTzZGTaY4YRcG2Sacz5HIFXLc0P+ktuse/78sPsP2PezFNg6bGehLxOIZR9H0iFOB63sj0N5OhJZXk8/fcRVNjA5ZlBodOGsX2+BcN/w973qK6spI1K5fSUF87qf+B4sorFGy2/G4bR7qOU19XG97wDxzuZHZ7G/fffSetTcnSf+y7eF+yuTyP/fQZfrdtF77vhzf8ruMnWTJ/Nvd/ZiR8obZsLs/jT21iy6tbGRxKl3T4F520m4ZBNBpB1y46TChC0zTisRiREr5h5SwpWihJwhdKkvCFkiR8oSQJXyhJwhdKkvCFkiR8oSQJXyhJwhdKkvCFkiR8oSQJXyhJwhdKkvCFkiR8oSQJXyhJwhdKkvCFkiR8oSQJXyhJwhdKkvCFkiR8oSQJXyhJwhdKkvCFkiR8oSQJXyhJwhdKkvCFkiR8oSQJXyhJwhdKkvCFkiR8oSQJXyhJwhdKkvCFkiR8oSR9cHCQ85dMJhMcI0To6M8++yxnl82bN7Nnz57gGCEume/7OK5PwRlZfN8PDpkQ+kMPPcTZZcOGDWzZsiU4RohL4no+eRt6hjyO9nt0nfLoHfLJ5H1cb2LfBDLHF1fMcN7n3W6Hn23LsWFLhm8/n+G7L2bZ1mEznPOZuOxBX758OWeXBQsW0NraGhwjxLh5Hhzr99h2wGbfUZeObpfDvS5vHXPY0+XQ0eviecE/9Zej33rrrZxd1qxZw6xZs4JjhBg32/M5esplxyGH3mGPgguuN/JboKPX5cBJF3ciw7/55ps5u6xZs4bZs2cHxwgxbpmCT++wT/egh+1euG0w49E75OFN4FxHr6io4OxSXl5OLBYLjhFi3FwXbNfHGWWvnrMhk/eZwGNbObgVV4gGWnDdGf6ZZSJJ+OKKsAwwjeDaEWURjcq4hlbsnfEXIOGLKyJuaaSqDWY0GETNC7fVlGk0VunoEr4Im4ipMbVOZ8UMi9Y6g8q4RiKi0VCp054ceUMYE1jfBP6vRdg1VRusbrdYNNVier1Bc43OglaTRVMtZjSYEr4IJ8uAunKdm+ZY3H1tnL+/Ic66JVFmNhpYReb/fykSvrhidF0jZmkkqw3aGgzakyattQYVcR1d19Am8OhWwhdKkvCFkiR8oSQJXyhJwhdKkvCFkiR8oSQJXyhJwhdKkvCFkiR8oSQJXyhJwhdKkvCFkiR8oSQJXyhJwhdKkvCFkiR8oSQJXyhJwhdKkvCFkiR8oSQJXyhJwhdKkvCFknTbtoPrhAg9fWBgILhOiNDTH3nkER577DFeeOEF9u7dy8mTJ8lkMrhe4IldQoSI/swzz/Dkk0+yadMmtmzZwquvvsrWrVsZGujH9xx8z5sETywS4vLSs9ksXV1dvPzyy2zcuJFvfOMbfPWrX+XQO3vw8mmcQmFCH70uxJWgLVmyxK+urmbOnDk0NzdTX19PdXU1P/r5r3B8jWWLF3Lv+jtoSTUG/6xQTC5f4KlNL7D55dc53HWUtdevoLqqAtOY4Kc8XMTBw538cvNvcT2XJfPnsu6Wm1lz7TVo9957r59MJlm6dCnTp08nmUxSU1PDF/753+juPcXyxfO451O305xqCL6mUMz54b9zoIO5V08jkYiiT+ADHv6c/oHTvH2gA9/zWTB7FrfceD3Xr1qB/sUvfpH777+ftWvXMnfuXJLJJNFoFF2XU/yiON/3KRQK5PN58oXCpF1sx8EwdHRDRzNGHjGqAdrQ0JBvmiamaaLr+rng7/vyA5zo7pU9vjjn/D3+8ZM93PXxD9NQV4tZ7IG2k8Af97zFhkcfx3Ecli9ewB1/81fccO01aH6RI1cJXwSdH35vXz+fv+cumhobsKzAg2wnkde27eBrD/4Xtm2zctkiPvmx27jx2mvkkgWhJglfKEnCF0qS8IWSJHyhJAlfKEnCF0qS8IWSJHyhJAlfKEnCF0qS8IWSJHyhJAlfjIM/sox+QW9JkfDFuPi+H4qvHrho+K7nUSjYcrO5gDPR958eYng4HdxUci56I8qBQ520t03jznW3kGyoCw4RisnlCmz8+S/YtfdtyhOJkr4R5aLh79y9j1g0SlOynlg0GhwiFON5Hp1HTzCcydKSagxn+P/4lX/ljV170TSIyc3n4sxUJ5fL43oeU5tTfOHe9aQapkzqe27HHf6XH3iQ3+94k0w2F9wkFBexLGZMn8o/3H0n9XU1GJN4p1gs/KJ/48b6KdRWVwVXC0F5eYJUwxRikcikjv5iiu7x3z14hL7+AbK5fHBTKO19Zz+bnn+JI13HSGcywc1FmYZJY30da9es5rqVy4ObJ5TrOpweGubpTc/z+vY/EI/FuP22W2hvuyo4dFwilkVlZTnNyQYsywpunlSK7fGLhq+al17bxrd/sJHd+95hYHAouLmoiGUxfWoL967/BJ++Y11w84QqFGx6+k7x0Hce4cnnfkNFWRlf+dJ9rFiyMDg0tIqFX5q/p4S4ZCOfPkv4QjmO40j4Qg2aBunhIToO7OeFLS9I+CJcfN/HdV3y+TzDw0Nk0ml038XEY6D3JNu3vs7jG/9XwhfhMvIhW47u7pPs3bObjnf3EfOzlGs58qd76Di4n+PHj0n4Ilw0TcOyLCorq2hsTFJbNwWfka8H9z0Px7Zlji/CR9M0IpEIVVVVpJqamNKQxNEsCr5BtKyCVHML09vaJHwRXpYVwYxEsbFI+1HqWtq4+ZYPs37930r4Irw0TUPTNNA0fB8i0ThTGhqZM3euhC/UYRgG8XiC+in1Er5Qk4QvlDTpL1JzHIdcPs+uPeO7eGy83t7fwfMvv0bX0ROks9ng5qJMw6B+Si1rVq1g1fJFwc2XTXkiwZyrZ1BVUU4kMrYrIuUiteIXqU368DOZLN29fXzrhz9mf8eRK3aHfy6XZ3BomHw+j+t6wc1FnTtvXFFOeXkiuPmy0ICmxgb+7pMfpb1tGtVVFcEho5LwSzj8vv4B9r1zkP9+9AkOHOoKbr5sPN/DdT18zxv3m0vTNAzDuKI3ZaQap7D+9ttYvmQeU5tTwc2jkvCLh3/lflKXied6Zx7Wa1Owr9ziOO7I16icOQU2ngXAdd0/ec3LueQLNrlCYVy/jURxkz58XdeJRCJEIxEiEYuIpeASsYhGIkSjEQxj0v/ISsKkn+oMpzOc6O5lw2M/Zf+hI3iT+697ReiaRlOygfUfv42rZ1415nuhZapTfKoz6cO3HYdsNsebb73L6dPDhOML7MavvCzBrJnTqa6sIBqNBDePSsIv4fDFpZPwi4cvE0ahJAlfEZ7nkcvncBwXz1PjzJDnebiehzfKKWoJXxGe55E/M/XpPz0Y3BxKw+k0g0PDuN6ZU9XnkfAV4nkeBw4doeNwJ/lCgYJtY4d0Kdg2x0/2cOzESTwvuL8vgdOZ4tKdf3D7xNObAGhKNjKrvY1F8+ZQUVGGZY7tup9S4nketm2za88+du97h4OHOwFYvXyxnNVRwWjhm6ZJbXUVLU1JEvH4pP6m40vleT6O49B59Dg9fX3k8gWQ8NUxWvgqOz98meMLJUn4QkkSvlDGyNW0Izc4SPghp2kaIxdOC03XME0DTfb44abpGtFIBMMI35mbS1EWj1NfV4tpmhJ+mOmaTiwWJdXYQHOq8YreITbZ1VRX0ZxsJNlQT8SyJPwwMwydskScJQvnct3KZWO+nDmMZs2czvw5V9OUHHk8qZzHV0DvqX6OdB3jrXcPMpRO4zhucEhoGbqOZVm0t01jxlVTSTXWjxz3SPhqKNg2g4PDZHM5XFed8HVdx7JMaqqqiMXee0j5/wMPD978sBCu2QAAAABJRU5ErkJggg==;" vertex="1" parent="1">
          <mxGeometry x="493.15" y="380" width="95.44" height="110" as="geometry" />
        </mxCell>
        <mxCell id="7TJYjL8CNuQm4D0-0RJm-60" value="&lt;font style=&quot;font-size: 14px;&quot;&gt;用户端&lt;/font&gt;" style="text;html=1;align=center;verticalAlign=middle;whiteSpace=wrap;rounded=0;" vertex="1" parent="1">
          <mxGeometry x="535.92" y="500" width="60" height="30" as="geometry" />
        </mxCell>
        <mxCell id="7TJYjL8CNuQm4D0-0RJm-61" style="edgeStyle=orthogonalEdgeStyle;rounded=0;orthogonalLoop=1;jettySize=auto;html=1;exitX=1;exitY=0.25;exitDx=0;exitDy=0;entryX=1;entryY=0.75;entryDx=0;entryDy=0;shape=flexArrow;fillColor=#7EA6E0;" edge="1" parent="1">
          <mxGeometry relative="1" as="geometry">
            <mxPoint x="586.59" y="407.5" as="sourcePoint" />
            <mxPoint x="586.59" y="462.5" as="targetPoint" />
            <Array as="points">
              <mxPoint x="631.15" y="408" />
              <mxPoint x="631.15" y="463" />
            </Array>
          </mxGeometry>
        </mxCell>
        <mxCell id="7TJYjL8CNuQm4D0-0RJm-62" value="&lt;font style=&quot;font-size: 14px;&quot;&gt;11.完整性验证&lt;/font&gt;" style="text;html=1;align=center;verticalAlign=middle;resizable=0;points=[];autosize=1;strokeColor=none;fillColor=none;" vertex="1" parent="1">
          <mxGeometry x="630.92" y="420" width="110" height="30" as="geometry" />
        </mxCell>
        <mxCell id="7TJYjL8CNuQm4D0-0RJm-66" value="&lt;font style=&quot;font-size: 14px;&quot;&gt;4.返回元数据和证书凭证&lt;/font&gt;" style="text;html=1;align=center;verticalAlign=middle;resizable=0;points=[];autosize=1;strokeColor=none;fillColor=none;" vertex="1" parent="1">
          <mxGeometry x="209.38" y="450" width="180" height="30" as="geometry" />
        </mxCell>
        <mxCell id="7TJYjL8CNuQm4D0-0RJm-67" value="&lt;font style=&quot;font-size: 14px;&quot;&gt;1.发送CSR和访问请求&lt;/font&gt;" style="text;html=1;align=center;verticalAlign=middle;resizable=0;points=[];autosize=1;strokeColor=none;fillColor=none;" vertex="1" parent="1">
          <mxGeometry x="269" y="410" width="160" height="30" as="geometry" />
        </mxCell>
        <mxCell id="7TJYjL8CNuQm4D0-0RJm-69" style="edgeStyle=orthogonalEdgeStyle;rounded=0;orthogonalLoop=1;jettySize=auto;html=1;exitX=0.25;exitY=1;exitDx=0;exitDy=0;entryX=0.373;entryY=0.002;entryDx=0;entryDy=0;entryPerimeter=0;shape=flexArrow;startArrow=block;endArrow=none;startFill=0;fillColor=#7EA6E0;" edge="1" parent="1" source="7TJYjL8CNuQm4D0-0RJm-12" target="7TJYjL8CNuQm4D0-0RJm-63">
          <mxGeometry relative="1" as="geometry" />
        </mxCell>
        <mxCell id="7TJYjL8CNuQm4D0-0RJm-70" style="edgeStyle=orthogonalEdgeStyle;rounded=0;orthogonalLoop=1;jettySize=auto;html=1;exitX=0.75;exitY=1;exitDx=0;exitDy=0;entryX=0.707;entryY=0.006;entryDx=0;entryDy=0;entryPerimeter=0;shape=flexArrow;fillColor=#7EA6E0;" edge="1" parent="1" source="7TJYjL8CNuQm4D0-0RJm-12" target="7TJYjL8CNuQm4D0-0RJm-63">
          <mxGeometry relative="1" as="geometry" />
        </mxCell>
        <mxCell id="7TJYjL8CNuQm4D0-0RJm-71" value="&lt;font style=&quot;font-size: 14px;&quot;&gt;5.带凭证请求数据&lt;/font&gt;" style="text;html=1;align=center;verticalAlign=middle;resizable=0;points=[];autosize=1;strokeColor=none;fillColor=none;" vertex="1" parent="1">
          <mxGeometry x="420" y="315" width="130" height="30" as="geometry" />
        </mxCell>
        <mxCell id="7TJYjL8CNuQm4D0-0RJm-72" value="&lt;font style=&quot;font-size: 14px;&quot;&gt;10.拒绝和返回数据&lt;/font&gt;" style="text;html=1;align=center;verticalAlign=middle;resizable=0;points=[];autosize=1;strokeColor=none;fillColor=none;" vertex="1" parent="1">
          <mxGeometry x="660" y="310" width="140" height="30" as="geometry" />
        </mxCell>
      </root>
    </mxGraphModel>
  </diagram>
</mxfile>
